<?xml version="1.0" encoding="utf-8"?>
<!-- Generator: Adobe Illustrator 26.0.1, SVG Export Plug-In . SVG Version: 6.00 Build 0)  -->
<svg version="1.1" id="Layer_1" xmlns="http://www.w3.org/2000/svg" xmlns:xlink="http://www.w3.org/1999/xlink" x="0px" y="0px"
	 viewBox="0 0 300 64" style="enable-background:new 0 0 300 64;" xml:space="preserve">
<style type="text/css">
	.st0{fill:#1D1D1B;}
</style>
<g>
	<path class="st0" d="M90.4,28.7c6.8-2.8,9.4-6.5,9.4-11.1c0-8.1-7-11.7-18.6-11.7H60.5c1.3,2,2.5,4.1,2.5,7.3v16
		c-6.1,1.2-11.5,2.2-16.7,3.5C41.8,20,36.7,5.8,36.7,5.8H23.8c0.2,1.8,0,3.7-0.9,6.2L8.5,52.2c0,0-0.9,2.8-2.9,5.4h10.5
		c-0.2-1.4,0.1-3.2,0.4-4.3c1.1-3.2,3.9-5.2,7-6.6c4-1.8,10.8-4,14.1-4.9l3.4,9.8c0,0,1.4,3.7,0.6,6.1h14.9c-2.2-3-3-5.3-3-5.4
		c-0.4-0.9-2.3-6.4-4.8-13.2c4.5-1.1,9.3-2,14.4-3v14.2c0,2.7-1.1,5.2-2.5,7.3h19.6c3.2,0,6.1-0.2,8.2-0.6c8.4-1.5,14.5-5.8,14.5-15
		C102.9,35,98.2,30.8,90.4,28.7z M24,39.3c-1.2,0.6-2.8,1.6-3.7,2.5c2.8-8.3,6.7-19.6,8.6-25l6.5,18.5C32.1,36.3,27,37.9,24,39.3z
		 M74.5,12.3c2-0.1,2.8-0.1,4.1-0.1c6.3,0,9.3,2.7,9.3,6.4c0,3.6-2.4,5.8-6.3,7c-1.7,0.5-4.4,1.1-7.1,1.5V12.3z M79.3,51.1h-4.7
		V33.9c1.8-0.4,4.6-0.9,6.5-1.1c5.7,1.3,9.9,3.7,9.9,9.5C90.9,49.1,85.9,51.1,79.3,51.1z"/>
	<path class="st0" d="M124.8,5.9h-16.6c2.5,3.8,2.5,7.3,2.5,7.3v37c0,0.1,0,3.5-2.5,7.3h16.6c-2.5-3.8-2.5-7.3-2.5-7.3v-37
		C122.3,13.1,122.3,9.7,124.8,5.9z"/>
	<path class="st0" d="M283,21.1c0.9,1.5,0.6,4-0.4,6.5l-7.2,19.2l-7.5-19.2c-1-2.5-1.4-4.9-0.4-6.5h-14.4c2,2.1,3.2,4.8,3.9,6.5
		l12.4,29.9h9.6c0,0,0.2-2.4,1.3-5.2l9.9-24.7c0.7-1.7,2.1-4.7,3.8-6.5H283z"/>
	<path class="st0" d="M236.4,19.6c-13.7,0-18.8,9.6-18.8,18.9c0,11.9,6.5,20,21.9,20c6.3,0,11.4-1.9,14.4-3.7l-3.1-6.8
		c-2.9,1.5-6.5,2.8-10.5,2.8c-6.9,0-11.1-2.4-12.1-9.3h14.9c5.5,0,9.9-0.3,11.4-1C255.3,32.8,253.2,19.6,236.4,19.6z M239,35.2
		h-10.7c0.7-5.9,3.3-8.8,8.1-8.8c5,0,7.4,3.8,7.6,8.8C244,35.1,241.8,35.2,239,35.2z"/>
	<path class="st0" d="M165.7,31.6c0-7-3.7-11.2-11.6-11.2c-5,0-9.2,2.3-12.3,5v-4.3h-12.5c2.2,3.4,2.2,6.4,2.2,6.5v23.4
		c0,0.1,0,3.1-2.2,6.5H144c-2.2-3.4-2.2-6.4-2.2-6.5V31.6c1.9-1.9,4.6-3.4,7.5-3.4c4.5,0,6.2,2.5,6.2,6.4v16.4c0,0.1,0,3.1-2.2,6.5
		h14.7c-2.2-3.4-2.2-6.4-2.2-6.5V31.6z"/>
	<path class="st0" d="M202.3,28.9c6.6-2.5,8.8-6.1,8.8-10.8c0-8.1-6.6-12.2-18.4-12.2h-19.8c1.4,2.1,1.9,5.1,1.9,7.3v37
		c0,2.4-0.4,5-1.9,7.3h18.7c3.2,0,6.2-0.2,8.3-0.6c8.3-1.4,14.4-5.7,14.4-14.8C214.4,34.8,209.7,31,202.3,28.9z M186.2,12.1h4.1
		c6.3,0,9.3,2.5,9.3,7.1c0,4.6-2.7,7.4-8.8,7.4c-1.2,0-3.3,0-4.6,0V12.1z M191.2,51.3h-5V33.2h5.2c7.3,0,11.2,3.5,11.2,9.3
		C202.6,47.5,199.5,51.3,191.2,51.3z"/>
</g>
</svg>
