<?xml version="1.0" encoding="utf-8"?>
<!-- Generator: Adobe Illustrator 26.0.1, SVG Export Plug-In . SVG Version: 6.00 Build 0)  -->
<svg version="1.1"
	 id="svg8" inkscape:version="0.92.3 (2405546, 2018-03-11)" sodipodi:docname="axa-logo.svg" xmlns:cc="http://creativecommons.org/ns#" xmlns:dc="http://purl.org/dc/elements/1.1/" xmlns:inkscape="http://www.inkscape.org/namespaces/inkscape" xmlns:rdf="http://www.w3.org/1999/02/22-rdf-syntax-ns#" xmlns:sodipodi="http://sodipodi.sourceforge.net/DTD/sodipodi-0.dtd" xmlns:svg="http://www.w3.org/2000/svg"
	 xmlns="http://www.w3.org/2000/svg" xmlns:xlink="http://www.w3.org/1999/xlink" x="0px" y="0px" viewBox="0 0 200 200"
	 style="enable-background:new 0 0 200 200;" xml:space="preserve">
<sodipodi:namedview  bordercolor="#666666" borderopacity="1.0" fit-margin-bottom="0" fit-margin-left="0" fit-margin-right="0" fit-margin-top="0" id="base" inkscape:current-layer="layer1" inkscape:cx="131.46973" inkscape:cy="-389.58457" inkscape:document-units="mm" inkscape:pageopacity="0" inkscape:pageshadow="2" inkscape:window-height="1001" inkscape:window-maximized="1" inkscape:window-width="1920" inkscape:window-x="-9" inkscape:window-y="-9" inkscape:zoom="0.7" pagecolor="#00ffff" showgrid="false">
	</sodipodi:namedview>
<g>
	<path d="M60.7,116.9c0-0.2,0-0.6-0.2-0.2c-1.9,3.9-12.7,17.2-12.7,17.2H65c0,0-3.2-10.3-3.9-12.5C60.7,120,60.7,118.4,60.7,116.9z"
		/>
	<path d="M120.6,98.9h-9.9L176.3,14H14.2v149.6l0.2-0.2c0.2-0.2,11-13.6,20.9-26.7c8.8-11.6,17.2-22.8,18.1-23.9
		c1.7-2.6,4.3-8.2,4.3-8.2h13.1c0,0,0.4,5.2,0.9,6.5c0.4,1.1,8.4,27.6,8.6,27.8l4.5-5.6l-7.5-23.5c0,0-1.7-4.3-2.4-5.2h15.5
		c0,1.5,0.2,2.8,0.4,4.1c0.6,1.9,3.9,13.8,3.9,13.8s10.5-13.1,11.2-14.2s1.3-2.6,1.3-3.9h12.9c0,0-2.4,1.7-6.5,6.9
		c-1.3,1.7-14.9,18.9-14.9,18.9s0.9,4.3,1.5,6.5c0.2,0.6,0.2,0.9,0.2,1.1c0,0,0.2-0.4,0.9-1.1c3.4-4.5,19.4-25.4,20.5-27.1
		c0.9-1.5,1.9-3,2.6-5h12.5c0,0,0.2,3.7,0.6,4.7l7.7,27.3c3,8.4,9.3,30.1,11.6,31.9h-16.1c0-1.9-0.2-3.9-0.9-5.8
		c-0.6-2.6-6.5-21.3-6.5-21.3h-25.6l-4.1,5.8c0,0,5,15.3,5.2,15.9c0.4,1.3,2.8,5.4,2.8,5.4H96.2c0,0-0.4-2.4-0.6-3.2s-1.5-5-1.5-5
		s-3.4,3.9-4.5,5.6c-0.9,1.7-1.3,2.8-1.3,2.8H76.2c0,0-0.4-2.4-0.6-3.2s-1.5-5.4-1.5-5.4s-3.4,4.1-4.3,5.8c-0.9,1.7-1.3,2.8-1.3,2.8
		H56.4c0,0,3.4-3.2,4.5-4.5c1.9-2.4,9.5-12.1,9.5-12.1l-3-10.3H41.8c0,0-14.6,19.2-15.1,19.8c-0.6,0.6-4.7,6.7-5,7.3h-7.5v17.2
		h171.6V14L120.6,98.9z"/>
	<path d="M126.6,116.9c0-0.2,0-0.6-0.2-0.2c-1.9,3.9-12.7,17.2-12.7,17.2h17.2c0,0-3.2-10.3-3.9-12.5
		C126.6,120,126.6,118.4,126.6,116.9z"/>
	<path d="M87.8,141.9l-4.5,5.8l3,9l4.7-6.5C90.6,149.9,87.8,141.9,87.8,141.9z"/>
</g>
</svg>
