<?xml version="1.0" encoding="utf-8"?>
<!-- Generator: Adobe Illustrator 26.0.1, SVG Export Plug-In . SVG Version: 6.00 Build 0)  -->
<svg version="1.1"
	 id="svg1726" inkscape:version="0.92.0 r15299" sodipodi:docname="caixabank.svg" xmlns:cc="http://creativecommons.org/ns#" xmlns:dc="http://purl.org/dc/elements/1.1/" xmlns:inkscape="http://www.inkscape.org/namespaces/inkscape" xmlns:rdf="http://www.w3.org/1999/02/22-rdf-syntax-ns#" xmlns:sodipodi="http://sodipodi.sourceforge.net/DTD/sodipodi-0.dtd" xmlns:svg="http://www.w3.org/2000/svg"
	 xmlns="http://www.w3.org/2000/svg" xmlns:xlink="http://www.w3.org/1999/xlink" x="0px" y="0px" viewBox="0 0 200 200"
	 style="enable-background:new 0 0 200 200;" xml:space="preserve">
<sodipodi:namedview  bordercolor="#666666" borderopacity="1.0" fit-margin-bottom="0" fit-margin-left="0" fit-margin-right="0" fit-margin-top="0" id="base" inkscape:current-layer="layer1" inkscape:cx="25.654043" inkscape:cy="16.293453" inkscape:document-units="mm" inkscape:pageopacity="0.0" inkscape:pageshadow="2" inkscape:window-height="744" inkscape:window-maximized="1" inkscape:window-width="1280" inkscape:window-x="-4" inkscape:window-y="-4" inkscape:zoom="14.227517" pagecolor="#ffffff" showgrid="false" units="px">
	</sodipodi:namedview>
<g>
	<path d="M61,102.1c-0.7-2.5-3.5-1.4-4.9-2.1c-2.5,0.4-4.9,0.4-6.7,1.4c-0.7,1.1-1.8,1.1-2.5,1.8l-2.1,4.2c-0.7,2.8,0,5.6,2.1,7.4
		c3.9,3.5,9.9,2.5,14.1,0.4l3.2-4.6l-0.7-4.6C62.4,105.3,62.4,103.2,61,102.1z"/>
	<path d="M59.9,140.9c-0.7-2.8-1.4-6-2.8-8.5c-1.8-0.4-1.4-2.5-3.2-3.2c-1.1,0.4-2.1-0.7-3.5-0.7c-1.4,1.1-2.8-0.4-4.2,0
		c-0.7,1.1-2.1,0.4-3.2,0.7c-2.8,1.8-6,2.5-7.4,5.6c-2.5,0.7-1.8,3.5-3.9,4.9l-1.4,6.3l0.4,3.5c-0.7,2.1,0.7,4.2,0,6.3
		c0.4,1.8,1.8,2.5,2.5,4.2c1.8,1.4,3.9,3.2,6,3.9c0.7,1.1,2.5,1.1,3.9,1.4c2.1,0,4.6,0.7,6.3-0.7c2.8,0.4,3.2-3.2,5.3-3.9
		c1.4,0.4,1.8-1.4,2.5-1.8c1.4-2.5,2.8-4.9,2.5-8.1c0.7-1.4,0.7-3.5,0.7-4.9l-0.4-0.4C61,143.7,59.6,142.7,59.9,140.9z"/>
	<path d="M185.1,155.7c-2.1-4.9-3.9-9.9-6-14.8c-1.4-2.1-2.1-4.6-3.5-6.7c-1.1-3.9-4.6-6.7-4.9-10.9c-2.5-3.9-4.6-7.8-7.1-11.3
		c-1.4-1.1-2.1-2.8-2.8-4.2c-3.2-4.6-6.3-8.8-9.9-12.7c-1.8,0.4-1.8-2.1-3.5-2.1c-2.8-2.1-3.2-6-6.3-7.8c-1.4-1.8-3.9-2.5-4.2-4.6
		c2.5-3.2,5.3-6.7,8.1-9.5c3.2-4.6,7.8-7.8,9.5-12.7c4.2-8.5,12.7-15.5,13.4-25.4c-0.4-1.4-1.8-1.1-2.8-1.4c-2.1,0.7-4.9,0-5.6,2.5
		c-4.9,2.8-9.5,4.9-14.1,7.4c-1.1,0.7-2.1,1.4-3.9,1.8c-2.8,1.4-5.3,3.5-7.8,5.3c-1.4,0.4-2.8,1.1-3.9,1.8c-1.1,2.5-3.9,2.8-5.6,4.6
		c-4.2,3.2-9.5,4.6-13.8,7.4c-1.1,0.4-1.1,1.4-2.1,1.8c-1.1,0.4-2.5,0-3.5-0.7c-3.2-4.6-8.5-6.7-12.7-9.5c-3.5-2.5-7.4-3.9-10.9-5.6
		c-3.5-0.7-7.1-2.1-10.6-2.8c-1.1,0.7-2.5,0-3.9,0.4c-0.4,0.4-1.1,1.1-1.1,1.8c1.1,1.8-0.4,4.2,1.1,5.6c1.4,5.3,5.3,9.5,7.4,14.5
		l5.6,7.8V76c-2.1,0-3.9-0.7-6-1.1c-6,0-12-1.1-18-1.4c-3.5,0.7-7.1-0.4-10.2,0.4C40.2,75,34.5,75,29.2,76.7s-10.9,3.2-14.5,8.1v0.7
		c1.4,1.1,2.5,2.8,4.2,2.5c2.1,0.4,3.5,1.8,5.6,1.4c2.8,1.4,6.7,1.4,9.5,2.8c2.1,1.1,3.9,0.7,5.3,0.7c2.1,1.4,5.3,1.1,7.8,1.8
		c6,1.4,12.7,2.1,19,2.1c3.9,1.1,7.8,0.4,12,0.4c0.4,0,0.7,0.4,0.7,0.7c-1.4,6-3.9,11.6-5.6,17.6c0,1.1,0,2.5,0,3.5
		c-2.1,1.4-2.1,3.5-2.8,5.3c0.4,2.1,0,4.2-1.1,6c-0.4,2.8-1.1,6-2.1,8.5c-0.4,2.1-0.7,4.6-1.4,6.3c0.7,3.2-1.1,6-1.1,9.2l0.4,1.1
		c-0.4,2.5,0,4.6-0.7,6.7c1.1,1.4,0,3.5,0.7,5.3c0.4,1.1,1.4,0.7,2.1,1.1c1.8-1.1,3.5-2.1,4.9-3.9c6.7-4.9,9.2-12.3,13.8-18.7
		c3.5-6,6.3-12,9.9-18c1.1-3.9,4.2-6.7,4.2-10.9c2.1-2.8,1.1-7.1,3.9-9.5c0.4-0.7,0-1.4,0.4-2.1c4.2,2.1,7.8,5.6,11.6,8.1
		c1.8,0.7,2.5,2.8,4.2,3.2c2.5,2.1,4.9,3.9,7.4,5.6c5.3,3.2,9.5,7.8,14.8,10.9c2.1,1.1,2.8,3.5,4.9,4.2c5.6,4.6,11.6,8.1,17.3,12.3
		c5.3,3.2,10.9,6.3,16.9,8.5c1.1-0.4,2.1,1.1,2.8,0.4C185.1,157.8,185.4,156.8,185.1,155.7z"/>
</g>
</svg>
