<?xml version="1.0" encoding="utf-8"?>
<!-- Generator: Adobe Illustrator 26.0.1, SVG Export Plug-In . SVG Version: 6.00 Build 0)  -->
<svg version="1.1" id="Layer_1" xmlns="http://www.w3.org/2000/svg" xmlns:xlink="http://www.w3.org/1999/xlink" x="0px" y="0px"
	 viewBox="0 0 200 53.2" style="enable-background:new 0 0 200 53.2;" xml:space="preserve">
<g>
	<rect x="75.3" y="15.9" width="3.8" height="21.9"/>
	<path d="M3.5,49.2h44.3V4.9H3.5V49.2z M31.8,8.3c7.8,2.6,13.5,10,13.5,18.7c0,8.6-5.5,16-13.5,18.8V8.3z M25.6,7.3
		c1.4,0,2.9,0.2,4.2,0.4c0,10-9.7,18.3-19.7,18.3l-4.2,0C6.6,15.8,15.1,7.3,25.6,7.3z M10.1,28.1c10,0,19.7,8.2,19.7,18.3
		c-1.3,0.3-2.8,0.4-4.2,0.4c-10.5,0-19.3-8.5-19.7-18.7H10.1z"/>
	<path d="M62.6,31v-2.8h9.2v-3.6h-9.2v-5.2h9.8v-3.5H58.8v14.9c0,3.8,1.6,6.3,5.4,6.9c0.1,0,0.1,0,0.2,0h0.1c0.4,0,0.8,0.1,1.2,0.1
		h7v-3.5h-6.9C64.5,34.2,62.6,33.7,62.6,31z"/>
	<path d="M108.6,24.8c1.7,0,3,0.6,4,1.7l2.3-2.4c-1.8-2-4-2.7-6.4-2.7c-4.8,0-8.6,3.6-8.6,8.4c0,4.9,3.9,8.4,8.6,8.4
		c2.4,0,4.5-0.8,6.4-2.7l-2.3-2.4c-1.1,1.1-2.3,1.7-4,1.7c-2.8,0-4.9-2.1-4.9-5C103.7,26.9,105.8,24.8,108.6,24.8z"/>
	<rect x="157.5" y="15.9" width="3.8" height="21.9"/>
	<path d="M174.8,31.2c0,2.5-1.5,3.6-3.5,3.6c-2,0-3.5-1.1-3.5-3.6V22h-3.8v9.6c0,4.5,3.3,6.7,7.2,6.7c4,0,7.3-2.2,7.3-6.8V22h-3.8
		V31.2z"/>
	<polygon points="192.9,32.7 190.5,29.4 193.5,25.4 196,22 191.9,22 188.4,26.7 185,22 180.9,22 183.2,25.2 186.4,29.4 183.1,34 
		180.4,37.8 184.4,37.8 188.4,32.2 192.5,37.8 196.5,37.8 	"/>
	<path d="M90.1,21.5c-4.8,0-8.3,3.3-8.3,8.4V30c0,5,3.4,8.2,8.4,8.2c2.4,0,4.6-0.7,6.7-2.8l-2.3-2.2c-1.2,1.2-2.4,1.8-4.3,1.8
		c-2.8,0-4.7-1.6-4.8-4.2h12.4c0.1-0.6,0.1-1.3,0.1-1.3C98,25,94.9,21.5,90.1,21.5z M85.6,28.1c0.2-1.9,2.1-3.5,4.5-3.5
		c2.2,0,4,1.6,4,3.5H85.6z"/>
	<path d="M121.1,31L121.1,31l0-5.6h3.4V22h-3.4v-6.1h-3.8v15.3l0,0c0.1,3.6,1.7,6,5.4,6.5c0.1,0,0.1,0,0.2,0h0.1
		c0.4,0,0.8,0.1,1.2,0.1h0.4l0-3.5h-0.4C123,34.3,121.1,33.7,121.1,31z"/>
	<path d="M146.5,21.5c-4.8,0-8.6,3.6-8.6,8.4c0,4.7,3.8,8.4,8.6,8.4c4.8,0,8.6-3.6,8.6-8.4C155.1,25.1,151.3,21.5,146.5,21.5z
		 M146.5,34.8c-2.8,0-4.9-2.2-4.9-5c0-2.8,2.1-5,4.9-5c2.8,0,4.9,2.2,4.9,5C151.4,32.7,149.3,34.8,146.5,34.8z"/>
	<path d="M131.4,24.3V22h-3.7v15.8h3.7v-8.3c0-2.6,1.7-4.2,4.3-4.2c0.6,0,1.1,0.1,1.6,0.2v-3.6c-0.4-0.1-0.8-0.1-1.1-0.1
		C133.9,21.6,132.2,22.7,131.4,24.3z"/>
</g>
</svg>
