<?xml version="1.0" encoding="utf-8"?>
<!-- Generator: Adobe Illustrator 26.0.1, SVG Export Plug-In . SVG Version: 6.00 Build 0)  -->
<svg version="1.1"
	 id="svg2" inkscape:version="0.48.2 r9819" sodipodi:docname="FCB.svg" xmlns:cc="http://creativecommons.org/ns#" xmlns:dc="http://purl.org/dc/elements/1.1/" xmlns:inkscape="http://www.inkscape.org/namespaces/inkscape" xmlns:rdf="http://www.w3.org/1999/02/22-rdf-syntax-ns#" xmlns:sodipodi="http://sodipodi.sourceforge.net/DTD/sodipodi-0.dtd" xmlns:svg="http://www.w3.org/2000/svg"
	 xmlns="http://www.w3.org/2000/svg" xmlns:xlink="http://www.w3.org/1999/xlink" x="0px" y="0px" viewBox="0 0 142 144"
	 style="enable-background:new 0 0 142 144;" xml:space="preserve">
<style type="text/css">
	.st0{fill-rule:evenodd;clip-rule:evenodd;}
</style>
<sodipodi:namedview  bordercolor="#666666" borderopacity="1" gridtolerance="10" guidetolerance="10" id="namedview42" inkscape:current-layer="svg2" inkscape:cx="71" inkscape:cy="72" inkscape:pageopacity="0" inkscape:pageshadow="2" inkscape:window-height="962" inkscape:window-maximized="1" inkscape:window-width="1280" inkscape:window-x="-8" inkscape:window-y="-8" inkscape:zoom="1.6388889" objecttolerance="10" pagecolor="#ffffff" showgrid="false">
	</sodipodi:namedview>
<g>
	<path class="st0" d="M125.2,77.3H16.9l-0.1,0.7c-1.5,13.1,1.2,23.9,7.9,32.1c7.7,9.3,20.5,14.8,37,16l18.2,0l0,0
		c16-0.9,28.6-6.2,36.5-15.3c7.1-8.3,10.1-19.3,8.9-32.7L125.2,77.3z M31.9,78.8h15.7v40.8v2.2v0.4c-6.1-1.7-11.4-4.2-15.7-7.4V78.8
		z M57.3,101.1c0-3.7,1.4-7.2,4-9.8c0,0,0,0,0.1-0.1c-1.1,4.7-1.6,9.5,1.5,12.6c-1.4,1.9-2.5,2.2-4.6,2.3
		C57.7,104.6,57.3,102.9,57.3,101.1z M61.4,110.9c-1-1-1.8-2.1-2.4-3.2c2-0.2,3.5-0.7,5.1-2.8c0.1,0.1,0.3,0.2,0.4,0.3
		c0.7,0.4,1.5,0.7,2.2,0.7c0.4,0,0.8-0.1,1.2-0.2c2.2-0.7,3.5-3.2,3.9-4.2c1.1-0.6,2-0.8,2.8-0.4c1,0.4,1.8,1.6,2.4,3.5
		c-1.9,4.2-6.7,6.7-14.5,7.5C62.1,111.6,61.7,111.2,61.4,110.9z M78.3,103.4c-0.7-2.1-1.7-3.4-3.1-3.9c-1.2-0.5-2.6-0.3-4.1,0.5
		c-1.6-1.5-3-2.9,0-6.6c6.1-1.4,11.6,5,13.8,8.8c-0.1,1.3-0.4,2.6-0.8,3.8c-0.6-0.9-1.5-1.7-2.5-2.2
		C80.5,103.3,79.4,103.2,78.3,103.4z M80.9,91.3c2.2,2.2,3.6,5,3.9,8c-2.9-3.9-8.1-8.6-13.9-7.4c-1.3-1.9-1.3-3.3,0.2-4.6
		c0,0,0,0,0.1,0c0,0,0,0,0,0C74.8,87.3,78.3,88.7,80.9,91.3z M69.7,92.8c-3.6,4.6-1.2,6.9,0.5,8.4c-0.6,1.1-1.6,2.5-2.8,2.9
		c-0.7,0.2-1.4,0.1-2.2-0.3c-4.1-2.4-3.7-7.2-1.9-14.2c1.7-1.1,3.6-1.9,5.6-2.2C68.1,89.1,68.3,90.8,69.7,92.8z M78.4,104.9
		c1-0.3,1.9-0.1,2.5,0.2c1.1,0.5,2,1.5,2.4,2.6c-0.6,1.1-1.4,2.2-2.3,3.1c-2.6,2.6-6.1,4-9.8,4c0,0,0,0,0,0c-2.4,0-4.7-0.6-6.8-1.8
		C71.8,112.1,76.4,109.4,78.4,104.9z M78.9,87.9c-2.3-1.4-5-2.1-7.7-2.1c0,0,0,0,0,0c-2.9,0-5.6,0.8-8,2.3v-9.3h15.7V87.9z
		 M63.2,114.2c2.4,1.5,5.1,2.3,8,2.3c0,0,0,0,0,0c2.8,0,5.4-0.7,7.7-2.1v10.2l-15.7,0V114.2z M94.3,121.8v-2.2V78.8H110v35.9
		c-4.4,3.3-9.6,5.9-15.7,7.6V121.8z"/>
	<path class="st0" d="M140.5,71.7l-0.5-0.5c-17.3-18.9-19.4-37.5-6-55.4l0.3-0.4l-6.4-8.9l-0.5,0.2c-11.6,4.4-25.3,2.7-34.9-4.2
		L92,2l-0.4,0.3c-13.8,9.9-27.6,9.9-41.1,0L50,2l-0.4,0.3c-10.5,8-25.8,8.1-34.7,4.1l-0.5-0.2l-6.7,9.1l0.3,0.4
		C21.4,34,19.4,52.1,1.8,71.1l-0.5,0.5l7,7.1c-1,33.1,17,52.2,52.1,55.3l10.6,8.6l10.7-8.7c7.6-0.5,21.8-2.6,33.7-11.7
		c12.7-9.7,18.8-24.4,18.3-43.6L140.5,71.7z M114.5,121.1c-11.7,9-25.8,11-33.1,11.4l-0.2,0L71,140.7l-10-8.1l-0.2,0
		c-34.9-3-52-21.2-50.9-54.1l0-0.3l-6.4-6.5c17.3-19,19.3-38,6-56.3l5.3-7.2c9.3,3.8,24.5,3.6,35.2-4.2c13.8,9.9,27.9,9.9,42,0
		c9.8,6.9,23.6,8.5,35.3,4.3l5.1,7.1c-13.4,18.2-11.4,37.2,6,56.3l-6.3,6.3l0,0.3C132.8,97.2,126.8,111.6,114.5,121.1z"/>
	<path class="st0" d="M20.3,58.8l-0.4,1l102.1,0.1l-0.5-1.1c-6.2-13.9-5.6-28.5,1.6-41l0.7-1.2l-1.4,0.1c-14.3,1.3-22.3,0-29.8-4.6
		l-0.4-0.2l-0.4,0.2c-14,8-28,8.1-41.6,0.1L49.8,12l-0.4,0.2c-8.7,4.7-18,6-30.1,4.3l-1.5-0.2l0.8,1.3C25.8,30,26.4,44.2,20.3,58.8z
		 M25.5,45.4h14.4v12.9l-17.8,0C23.8,54,24.9,49.7,25.5,45.4z M86.7,58.4l-5,0V18c1.7-0.5,3.4-1.1,5-1.8V58.4z M76,58.3l-4.4,0V19.6
		c1.4,0,2.9-0.1,4.4-0.4V58.3z M70.2,30.2H55.1V16.4c5,2.1,10,3.2,15.1,3.3V30.2z M55.1,45.4h15.1v12.9l-15.1,0V45.4z M103.1,58.4
		V17.8c1.6,0.3,3.2,0.5,5,0.7v39.9L103.1,58.4z M121,18.3c-6.6,12.3-7.1,26.4-1.4,40l-5.9,0V18.7C116,18.7,118.4,18.6,121,18.3z
		 M97.5,16.2v42.2l-5.1,0V13.7C94,14.7,95.7,15.5,97.5,16.2z M39.9,17.5v12.8H25c-0.9-4.2-2.4-8.2-4.5-12.1
		C27.8,19.1,34.1,18.9,39.9,17.5z"/>
	<polygon class="st0" points="58.1,64.6 58.1,61.5 48.1,61.5 48.1,75.5 51.1,75.5 51.1,69.8 55.2,69.8 55.2,66.7 51.1,66.7 
		51.1,64.6 	"/>
	<path class="st0" d="M69.8,64.4C69.8,64.4,69.8,64.4,69.8,64.4c1,0,1.9,0.6,2.6,1.5l0,0.1l2.7-1.4l0-0.1c-0.8-1.9-3-3.1-5.5-3.2
		c0,0,0,0,0,0c-2.3,0-4.2,1.2-5.1,3.2c-1.2,3-1.1,6.2,0.2,8.4c1,1.7,2.5,2.7,4.4,2.9c0.3,0,0.6,0.1,1,0.1c2.3,0,4.2-1.3,5-3.5l0-0.1
		l-2.7-1.5l0,0.1c-0.4,0.9-1.2,1.5-2.1,1.7c-1.1,0.1-2.1-0.5-2.9-1.6c-0.5-1.1-0.8-3-0.1-5C67.9,64.9,68.8,64.4,69.8,64.4z"/>
	<path class="st0" d="M89.9,75.5c1.3-0.2,3-1.5,3.6-3.3c0.4-1.5-0.1-3-1.5-4.3c1-0.9,1.4-2.3,1.1-3.6c-0.4-1.4-1.6-2.4-3.4-2.8
		l-7.4,0l0.1,14v0.1L89.9,75.5z M89,66.6h-3.7v-2.1h3.7c0.6,0.2,1,0.6,1,1.1C89.9,66,89.5,66.5,89,66.6z M85.3,72.5l0-3l3.8,0.1
		c0.8,0.2,1.2,0.8,1.2,1.5c0,0.7-0.5,1.3-1.2,1.5L85.3,72.5z"/>
</g>
</svg>
