<?xml version="1.0" encoding="utf-8"?>
<!-- Generator: Adobe Illustrator 26.0.1, SVG Export Plug-In . SVG Version: 6.00 Build 0)  -->
<svg version="1.1" id="Layer_1" xmlns="http://www.w3.org/2000/svg" xmlns:xlink="http://www.w3.org/1999/xlink" x="0px" y="0px"
	 viewBox="0 0 205 69.4" style="enable-background:new 0 0 205 69.4;" xml:space="preserve">
<g>
	<path d="M132.8,0v29.1H205V0H132.8z M149,26.2L144.1,10H144l-3.3,16.2h-5.9l5-23.4h7.8l4.8,16.2h0.1l3.3-16.2h6l-5,23.4H149z
		 M173,26.2l2.1-10h-7.5l-2.1,10h-6.3l4.9-23.4h6.3l-1.9,9h7.4l1.9-9h6.4l-4.9,23.4H173z M200.8,8.1c-1.2-0.6-2.9-1.1-5.2-1.1
		c-2.5,0-4.5,0.4-4.5,2.2c0,3.3,9.1,2.1,9.1,9.2c0,6.5-6,8.1-11.5,8.1c-2.4,0-5.2-0.6-7.3-1.2l1.5-4.8c1.2,0.8,3.7,1.3,5.8,1.3
		c2,0,5-0.4,5-2.8c0-3.8-9.1-2.3-9.1-9c0-6,5.3-7.8,10.5-7.8c2.9,0.2,5.6,0.5,7.2,1.2L200.8,8.1z"/>
	<path d="M6.8,46.2h3v3.7c-0.5,0.1-1.1,0.2-1.9,0.2c-1.6,0-2.8-0.5-3.6-1.5C3.4,47.7,3,46.5,3,45s0.4-2.7,1.4-3.7
		c0.9-1,2.1-1.5,3.8-1.5c1.2,0,2.5,0.3,3.9,0.6l0.2-2.4c-1.2-0.4-2.6-0.6-4.2-0.6c-5.2,0.1-7.8,2.7-7.9,7.7c0,2.4,0.7,4.2,2.2,5.4
		c1.4,1.2,3.2,1.8,5.6,1.8c1.5,0,3.1-0.2,4.6-0.7v-7.7H6.8V46.2z"/>
	<path d="M22.2,46.6c0,0.3,0,0.7-0.1,1.1c-0.1,0.4-0.2,0.7-0.4,1.1c-0.1,0.4-0.4,0.7-0.7,0.9c-0.4,0.3-0.8,0.4-1.3,0.4
		c-0.4,0-0.8-0.1-1-0.3c-0.2-0.2-0.4-0.4-0.5-0.7c-0.1-0.3-0.2-0.6-0.2-1c0-0.2,0-0.3,0-0.5s0-0.3,0-0.5v-5.6h-2.7v6.7
		c0,1.2,0.3,2.2,0.9,3c0.6,0.8,1.5,1.2,2.7,1.2c1.5,0,2.6-0.6,3.5-1.7v1.4H25V41.4h-2.8V46.6z"/>
	<path d="M32.2,49.3l-2.4-7.7h-3l4,11.1c0,0.6-0.2,1.1-0.5,1.4s-0.7,0.5-1.3,0.5s-1.1-0.1-1.4-0.2l-0.2,2c0.6,0.2,1.2,0.3,1.9,0.3
		s1.3-0.1,1.8-0.4c0.4-0.2,0.8-0.6,1.1-1c0.3-0.4,0.6-0.9,0.8-1.5c0.2-0.6,0.4-1.1,0.6-1.7l4-10.5h-2.8L32.2,49.3z"/>
	<polygon points="39.8,37.8 38.5,43 40.9,43 42.8,37.8 	"/>
	<path d="M49.7,46.9c-0.2-0.2-0.4-0.4-0.7-0.6c-0.3-0.2-0.6-0.3-0.9-0.4c-0.3-0.1-0.6-0.2-0.9-0.3c-0.3-0.1-0.6-0.2-0.8-0.3
		c-0.5-0.1-0.8-0.4-0.8-0.8c0.1-0.4,0.2-0.7,0.6-0.9c0.4-0.1,0.7-0.2,1.1-0.2c0.5,0,0.9,0,1.3,0.1c0.3,0,0.7,0.1,1.1,0.3l0.3-2.1
		c-0.4-0.1-0.8-0.2-1.3-0.3s-1.1-0.1-1.7-0.1c-1.2,0-2.1,0.3-2.9,0.8c-0.9,0.5-1.3,1.4-1.3,2.5c0,0.5,0,0.9,0.2,1.2
		c0.1,0.3,0.3,0.6,0.5,0.8c0.3,0.2,0.5,0.4,0.8,0.5c0.3,0.1,0.6,0.2,0.9,0.3c0.6,0.1,1.1,0.3,1.6,0.5c0.3,0.1,0.5,0.2,0.6,0.4
		c0.1,0.2,0.2,0.4,0.2,0.7c0,0.5-0.2,0.8-0.6,1c-0.4,0.2-0.8,0.3-1.2,0.3c-0.9,0-1.8-0.2-2.7-0.7l-0.2,2.3c1,0.3,2,0.5,3.1,0.5
		c1.2,0,2.2-0.3,3.1-0.8c0.9-0.5,1.4-1.4,1.4-2.6c0-0.5-0.1-1-0.2-1.3C50.1,47.4,49.9,47.1,49.7,46.9z"/>
	<path d="M67,49.8c0-0.7,0-1.6,0-2.6v-1.4c0-3.1-1.5-4.5-4.6-4.5c-1.3,0-2.5,0.3-3.7,0.8v2.4c1-0.7,2.1-1.1,3.3-1.1
		c0.8,0,1.4,0.2,1.8,0.5c0.4,0.4,0.6,1,0.6,1.8h-1.5c-0.6,0-1.2,0-1.8,0.1c-0.6,0.1-1.2,0.2-1.7,0.5c-0.5,0.2-1,0.6-1.3,1.1
		c-0.3,0.5-0.5,1.1-0.5,1.9c0,1,0.4,1.8,1.2,2.3c0.7,0.5,1.5,0.8,2.5,0.8c0.7,0,1.3-0.2,1.9-0.5c0.6-0.3,1.1-0.7,1.4-1.3
		c0,0.4,0,1,0.1,1.6h2.4C67.1,51.4,67,50.6,67,49.8z M63.8,49.5c-0.4,0.6-1.1,0.9-1.9,0.9c-0.5,0-0.9-0.1-1.2-0.3
		c-0.4-0.3-0.5-0.6-0.6-1c0-0.4,0.1-0.8,0.3-1c0.2-0.3,0.5-0.5,0.8-0.6c0.3-0.1,0.6-0.2,1-0.2c0.2,0,0.3,0,0.5,0s0.3,0,0.5,0h1.2
		C64.4,48.2,64.2,48.9,63.8,49.5z"/>
	<path d="M76.5,45.6c0,0.3,0,0.7,0,1v5.6h2.7v-6.7c0-1.2-0.2-2.2-0.8-3c-0.5-0.8-1.5-1.2-2.7-1.2c-1.5,0-2.6,0.6-3.5,1.7v-1.4h-2.5
		v10.5h2.7v-5.2c0-0.3,0-0.7,0.1-1.1c0.1-0.4,0.2-0.7,0.4-1.1c0.2-0.4,0.4-0.7,0.7-0.9c0.3-0.2,0.7-0.3,1.2-0.3c0.4,0,0.7,0.1,1,0.3
		c0.2,0.2,0.4,0.5,0.5,0.8C76.4,44.9,76.5,45.2,76.5,45.6z"/>
	<path d="M89.1,42.8c-0.8-1-1.9-1.5-3.2-1.5c-1.6,0-2.7,0.5-3.4,1.6s-1,2.4-1,3.9s0.3,2.8,1,3.9c0.7,1.1,1.8,1.7,3.4,1.7
		c1.3,0,2.3-0.4,3.2-1.3v1h2.7V36.7h-2.7V42.8z M88.9,48c-0.1,0.4-0.2,0.8-0.4,1.1c-0.1,0.3-0.4,0.6-0.7,0.8s-0.7,0.3-1.2,0.3
		c-0.4,0-0.8-0.1-1.1-0.3s-0.5-0.5-0.7-0.8c-0.3-0.8-0.5-1.5-0.5-2.2c0-0.3,0-0.7,0.1-1.1c0-0.4,0.1-0.8,0.3-1.1
		c0.3-0.7,0.9-1.1,1.8-1.1c0.4,0,0.8,0.1,1.1,0.3c0.3,0.2,0.6,0.5,0.8,0.8c0.4,0.7,0.6,1.4,0.6,2.2C89,47.2,89,47.6,88.9,48z"/>
	<path d="M101,44.6c0.3,0.2,0.6,0.5,1,0.7c0.3,0.2,0.7,0.4,1.1,0.6c0.9,0.3,1.6,0.6,2.2,0.9c0.3,0.1,0.5,0.4,0.7,0.6
		c0.1,0.3,0.2,0.6,0.2,0.9c0,0.6-0.3,1.1-0.8,1.4s-1.1,0.5-1.7,0.5c-1.1,0-2.2-0.3-3.2-0.9l-0.3,2.6c0.7,0.2,1.3,0.3,1.8,0.4
		c0.5,0.1,1.2,0.2,1.9,0.2c1.5,0,2.8-0.3,3.8-1c1-0.6,1.6-1.8,1.6-3.3c0-0.6,0-1.2-0.2-1.6c-0.2-0.4-0.4-0.8-0.7-1.1s-0.6-0.6-1-0.8
		c-0.3-0.2-0.7-0.3-1.1-0.5c-0.4-0.2-0.7-0.3-1.1-0.5c-0.3-0.2-0.7-0.3-1-0.5s-0.5-0.4-0.7-0.6s-0.3-0.5-0.3-0.8c0-0.4,0-0.7,0.2-1
		c0.2-0.3,0.4-0.5,0.6-0.6c0.2-0.1,0.4-0.2,0.7-0.3c0.2-0.1,0.5-0.1,0.7-0.1c1,0,2,0.3,2.7,0.7l0.3-2.4c-1-0.3-2.2-0.5-3.4-0.5
		c-1.3,0-2.4,0.4-3.4,1c-1,0.7-1.6,1.8-1.6,3.4c0,0.6,0.1,1.1,0.3,1.5C100.5,43.9,100.7,44.3,101,44.6z"/>
	<path d="M112.8,43.6V49c0,2.2,1.1,3.3,3.3,3.4c0.8,0,1.5,0,2-0.2L118,50c-0.4,0.2-0.8,0.3-1.3,0.3c-0.5-0.1-0.8-0.2-1-0.6
		c-0.2-0.3-0.3-0.7-0.3-1.2v-4.9h2.4v-2h-2.4v-3l-2.7,0.9v2.1h-2v2H112.8L112.8,43.6z"/>
	<polygon points="131.2,52.2 131.2,40.1 135.3,40.1 135.3,37.8 124.2,37.8 124.2,40.1 128.3,40.1 128.3,52.2 	"/>
	<path d="M143.7,52.2h2.7v-6.7c0-1.2-0.2-2.2-0.8-3c-0.5-0.8-1.5-1.2-2.7-1.2c-1.5,0-2.6,0.6-3.3,1.7v-6.2h-2.7v15.3h2.7v-5.2
		c0-0.3,0-0.7,0.1-1.1c0.1-0.4,0.2-0.7,0.4-1.1c0.2-0.4,0.4-0.7,0.7-0.9c0.3-0.2,0.7-0.3,1.2-0.3c0.4,0,0.7,0.1,1,0.3
		c0.2,0.2,0.4,0.5,0.5,0.8s0.2,0.6,0.2,1c0,0.3,0,0.7,0,1V52.2z"/>
	<path d="M154.3,52.4c1.8,0,3.1-0.6,4.1-1.6c0.9-1.1,1.4-2.4,1.4-3.9c0-1.7-0.6-3.1-1.6-4.1c-1.1-1-2.4-1.5-4-1.5s-2.9,0.5-3.9,1.5
		s-1.5,2.4-1.6,4.1c0,1.6,0.5,2.9,1.5,3.9S152.5,52.4,154.3,52.4z M152.3,44.5c0.5-0.7,1.1-1,2-1c0.9,0,1.5,0.3,2,0.9
		c0.4,0.6,0.6,1.4,0.6,2.2c0,0.4,0,0.9-0.1,1.3c-0.1,0.4-0.2,0.8-0.4,1.2c-0.2,0.3-0.5,0.6-0.8,0.8c-0.3,0.2-0.8,0.3-1.3,0.3
		s-1-0.1-1.3-0.3s-0.6-0.4-0.8-0.8c-0.2-0.4-0.3-0.8-0.4-1.2c0-0.2-0.1-0.5-0.1-0.7c-0.1-0.2-0.1-0.4-0.1-0.5
		C151.6,45.8,151.8,45.1,152.3,44.5z"/>
	<path d="M174.5,44.3c0.2,0.5,0.2,1.1,0.2,1.6v6.3h2.7v-6.7c0-1.2-0.2-2.2-0.7-3c-0.5-0.8-1.4-1.2-2.7-1.2c-0.7,0-1.3,0.2-1.9,0.5
		c-0.6,0.3-1.1,0.8-1.4,1.4c-0.6-1.3-1.6-1.9-3.1-1.9c-0.5,0-1,0.2-1.6,0.4c-0.5,0.3-1,0.8-1.5,1.4v-1.5h-2.6h0V52h2.7v-5.1
		c0-0.4,0-0.8,0.1-1.2c0.1-0.4,0.2-0.7,0.3-1.1c0.1-0.4,0.3-0.7,0.6-0.9c0.3-0.2,0.6-0.3,1.1-0.3c0.4,0,0.7,0,0.9,0.2
		c0.3,0.2,0.4,0.4,0.5,0.6c0.2,0.5,0.2,1.1,0.2,1.6v6.3h2.7V47c0-0.4,0-0.8,0.1-1.2c0.1-0.4,0.2-0.7,0.3-1.1
		c0.1-0.4,0.3-0.7,0.6-0.9c0.3-0.2,0.6-0.3,1.1-0.3c0.4,0,0.7,0,0.9,0.2C174.3,43.9,174.4,44.1,174.5,44.3z"/>
	<path d="M186.7,52.2h2.4c0-0.8-0.1-1.6-0.1-2.4c0-0.7,0-1.6,0-2.6v-1.4c0-3.1-1.5-4.5-4.6-4.5c-1.3,0-2.5,0.3-3.7,0.8v2.4
		c1-0.7,2.1-1.1,3.3-1.1c0.8,0,1.4,0.2,1.8,0.5c0.4,0.4,0.6,1,0.6,1.8h-1.5c-0.6,0-1.2,0-1.8,0.1c-0.6,0.1-1.2,0.2-1.7,0.5
		c-0.5,0.2-1,0.6-1.3,1.1s-0.5,1.1-0.5,1.9c0,1,0.4,1.8,1.2,2.3c0.7,0.5,1.5,0.8,2.5,0.8c0.7,0,1.3-0.2,1.9-0.5s1.1-0.7,1.4-1.3
		C186.6,51,186.6,51.6,186.7,52.2z M185.8,49.5c-0.4,0.6-1.1,0.9-1.9,0.9c-0.5,0-0.9-0.1-1.2-0.3c-0.4-0.3-0.6-0.6-0.6-1
		c0-0.4,0.1-0.8,0.3-1c0.2-0.3,0.5-0.5,0.8-0.6c0.3-0.1,0.6-0.2,1-0.2c0.2,0,0.3,0,0.5,0s0.3,0,0.5,0h1.2
		C186.4,48.2,186.2,48.9,185.8,49.5z"/>
	<path d="M194.4,43.6c0.4-0.1,0.7-0.2,1.1-0.2c0.5,0,0.9,0,1.3,0.1c0.3,0,0.7,0.1,1.1,0.3l0.3-2.1c-0.4-0.1-0.8-0.2-1.3-0.3
		s-1.1-0.1-1.7-0.1c-1.2,0-2.1,0.3-2.9,0.8c-0.9,0.5-1.3,1.4-1.3,2.5c0,0.5,0,0.9,0.2,1.2c0.1,0.3,0.3,0.6,0.5,0.8
		c0.3,0.2,0.5,0.4,0.8,0.5c0.3,0.1,0.6,0.2,0.9,0.3c0.6,0.1,1.1,0.3,1.6,0.5c0.3,0.1,0.5,0.2,0.6,0.4c0.1,0.2,0.2,0.4,0.2,0.7
		c0,0.5-0.2,0.8-0.6,1c-0.4,0.2-0.8,0.3-1.2,0.3c-0.9,0-1.8-0.2-2.7-0.7l-0.2,2.3c1,0.3,2,0.5,3.1,0.5c1.2,0,2.2-0.3,3.1-0.8
		c0.9-0.5,1.4-1.4,1.4-2.6c0-0.5-0.1-1-0.2-1.3c-0.2-0.3-0.4-0.6-0.6-0.8s-0.4-0.4-0.7-0.6c-0.3-0.2-0.6-0.3-0.9-0.4
		s-0.6-0.2-0.9-0.3c-0.3-0.1-0.6-0.2-0.8-0.3c-0.5-0.1-0.8-0.4-0.8-0.8C193.9,44.1,194,43.8,194.4,43.6z"/>
	<polygon points="204.3,37.8 201.3,37.8 200,42.9 202.4,42.9 	"/>
	<polygon points="71.9,66.8 68.3,59.7 65.9,59.7 65.9,69.2 67.7,69.2 67.7,62.1 71.4,69.2 73.7,69.2 73.7,59.7 71.9,59.7 	"/>
	<polygon points="81.6,63.6 77.8,63.6 77.8,59.7 75.9,59.7 75.9,69.2 77.8,69.2 77.8,65 81.6,65 81.6,69.2 83.5,69.2 83.5,59.7 
		81.6,59.7 	"/>
	<path d="M91.1,64.8c-0.2-0.2-0.4-0.4-0.7-0.5c-0.3-0.2-0.5-0.3-0.8-0.4c-0.3-0.1-0.6-0.2-0.8-0.3c-0.3-0.1-0.5-0.2-0.7-0.3
		c-0.2-0.1-0.4-0.3-0.5-0.4c-0.1-0.1-0.2-0.3-0.2-0.5c0-0.3,0.1-0.5,0.2-0.7c0.1-0.2,0.3-0.3,0.4-0.4c0.2-0.1,0.3-0.2,0.5-0.2
		C88.7,61,88.8,61,89,61c0.6,0,1.3,0.2,2.1,0.6l0.2-1.6c-0.7-0.2-1.5-0.3-2.3-0.3c-0.9,0-1.6,0.2-2.3,0.6c-0.7,0.5-1.1,1.2-1.1,2.3
		c0,0.4,0.1,0.7,0.2,1c0.1,0.3,0.3,0.5,0.5,0.7c0.2,0.2,0.5,0.4,0.7,0.5c0.3,0.2,0.5,0.3,0.8,0.4c0.5,0.2,1,0.4,1.4,0.6
		c0.2,0.1,0.4,0.2,0.5,0.4c0.1,0.2,0.2,0.4,0.2,0.6c0,0.4-0.2,0.7-0.6,0.9C89,67.9,88.6,68,88.2,68c-0.8,0-1.5-0.2-2.2-0.6l-0.2,1.7
		c0.5,0.1,0.9,0.2,1.2,0.3s0.7,0.1,1.2,0.1c1,0,1.8-0.3,2.5-0.7c0.7-0.4,1.1-1.2,1.1-2.2c0-0.5-0.1-0.8-0.2-1.1
		C91.5,65.2,91.3,65,91.1,64.8z"/>
	<polygon points="97.2,69.3 99.1,69.3 99.1,65.1 102.3,65.1 102.3,63.6 99.1,63.6 99.1,61.2 102.5,61.2 102.5,59.7 97.2,59.7 	"/>
	<path d="M107.1,62c-1,0-1.9,0.4-2.6,1c-0.7,0.7-1.1,1.6-1.1,2.7c0,1.1,0.4,1.9,1,2.6c0.6,0.7,1.5,1.1,2.7,1.1
		c1.1-0.1,2.1-0.4,2.7-1.1c0.7-0.7,1-1.6,1-2.6c-0.1-1.1-0.4-2-1.1-2.7C109.1,62.3,108.2,62,107.1,62z M108.7,66.4
		c-0.1,0.3-0.2,0.6-0.3,0.8c-0.1,0.3-0.3,0.5-0.5,0.6c-0.2,0.1-0.5,0.2-0.9,0.2c-0.3,0-0.6,0-0.8-0.2c-0.2-0.2-0.4-0.4-0.5-0.6
		c-0.2-0.2-0.2-0.5-0.3-0.8c-0.1-0.1-0.1-0.2-0.1-0.4c0-0.2,0-0.3-0.1-0.6c0-0.5,0.2-1,0.5-1.4c0.3-0.4,0.7-0.6,1.3-0.6
		c0.6,0,1.1,0.2,1.4,0.6c0.3,0.4,0.4,0.9,0.4,1.5C108.8,65.8,108.7,66.1,108.7,66.4z"/>
	<path d="M116.9,65.6c0,0.2-0.1,0.4-0.1,0.7c0,0.3-0.1,0.6-0.2,0.8c-0.1,0.2-0.3,0.4-0.5,0.6c-0.2,0.2-0.5,0.3-0.8,0.3
		s-0.5-0.1-0.7-0.2c-0.2-0.1-0.3-0.3-0.4-0.5c0-0.2-0.1-0.5-0.1-0.7c0-0.1,0-0.2,0-0.3c0-0.1,0-0.2,0-0.3v-3.9h-1.8v4.4
		c0,0.8,0.2,1.5,0.6,2c0.4,0.5,1,0.8,1.8,0.8c1,0,1.7-0.4,2.3-1.1v1h1.7v-7h-1.8V65.6z"/>
	<path d="M124.6,62.1c-0.9,0-1.7,0.3-2.3,1.1v-1h-1.6v7.1h1.8v-3.4c0-0.3,0-0.5,0.1-0.8c0-0.3,0.1-0.6,0.2-0.8
		c0.1-0.2,0.3-0.4,0.5-0.6c0.2-0.1,0.5-0.2,0.8-0.2c0.3,0,0.5,0.1,0.7,0.2c0.1,0.1,0.2,0.3,0.3,0.5c0,0.1,0.1,0.4,0.1,0.6
		c0,0.2,0,0.5,0,0.7v3.8h1.8v-4.4c0-0.8-0.2-1.5-0.6-2C126,62.4,125.4,62.1,124.6,62.1z"/>
	<path d="M133.5,63c-0.5-0.7-1.2-1-2.1-1c-1.1,0-1.8,0.4-2.3,1.1s-0.7,1.6-0.7,2.6s0.2,1.9,0.7,2.6c0.5,0.7,1.2,1.1,2.3,1.1
		c0.9,0,1.5-0.4,2.1-0.9v0.8h1.8V59h-1.8V63z M133.5,66.5c-0.1,0.2-0.2,0.5-0.3,0.7c-0.1,0.2-0.3,0.4-0.5,0.5
		c-0.2,0.1-0.5,0.2-0.8,0.2c-0.3,0-0.5,0-0.7-0.2c-0.2-0.1-0.4-0.3-0.5-0.5c-0.2-0.5-0.3-1-0.3-1.4c0-0.3,0-0.5,0.1-0.8
		c0-0.2,0.1-0.5,0.2-0.7c0.2-0.5,0.6-0.8,1.2-0.8c0.3,0,0.6,0.1,0.8,0.2c0.2,0.1,0.4,0.3,0.5,0.5c0.3,0.5,0.4,1,0.4,1.5
		C133.6,66,133.5,66.2,133.5,66.5z"/>
	<path d="M143,66v-0.9c0.1-2-0.9-3-3-3c-0.8,0-1.6,0.2-2.4,0.5l-0.1,1.8c0.7-0.5,1.4-0.8,2.2-0.8c0.5,0,0.9,0.1,1.2,0.3
		c0.3,0.2,0.4,0.6,0.4,1.2h-1c-0.4,0-0.8,0.1-1.2,0.1c-0.4,0-0.8,0.1-1.2,0.3c-0.3,0.1-0.6,0.4-0.8,0.7c-0.3,0.3-0.4,0.8-0.4,1.3
		c0,0.6,0.3,1.1,0.8,1.5c0.5,0.3,1.1,0.5,1.7,0.5c0.5,0,0.9-0.1,1.3-0.3c0.4-0.2,0.7-0.5,0.9-0.9c0,0.3,0,0.7,0.1,1.1h1.6
		c-0.1-0.6-0.1-1.1-0.1-1.6S143,66.7,143,66z M141,67.4c-0.3,0.4-0.7,0.6-1.3,0.6c-0.3,0-0.6-0.1-0.8-0.2c-0.2-0.1-0.3-0.3-0.3-0.5
		c0-0.3,0.1-0.5,0.2-0.7c0.1-0.2,0.3-0.3,0.5-0.4c0.2-0.1,0.5-0.2,0.7-0.2c0.1,0,0.2,0,0.3,0c0.1,0,0.2,0,0.3,0h0.8
		C141.4,66.5,141.3,67,141,67.4z"/>
	<path d="M148.2,68c-0.4,0-0.6-0.2-0.7-0.4c-0.1-0.2-0.2-0.5-0.2-0.8v-3.3h1.6v-1.3h-1.6v-2l-1.8,0.6v1.4h-1.4v1.3h1.4v3.6
		c0,1.5,0.7,2.3,2.2,2.3c0.6,0,1-0.1,1.4-0.2l-0.1-1.4C148.8,67.9,148.5,68,148.2,68z"/>
	<rect x="150.2" y="59.2" width="1.8" height="1.8"/>
	<rect x="150.2" y="62.2" width="1.8" height="7"/>
	<path d="M157.2,62c-1,0-1.9,0.4-2.6,1c-0.7,0.7-1,1.6-1.1,2.7c0,1.1,0.4,1.9,1,2.6c0.6,0.7,1.5,1.1,2.7,1.1
		c1.1-0.1,2.1-0.4,2.7-1.1c0.7-0.7,1-1.6,1-2.6c-0.1-1.1-0.4-2-1.1-2.7C159.2,62.3,158.3,62,157.2,62z M158.9,66.4
		c-0.1,0.3-0.2,0.6-0.3,0.8c-0.1,0.3-0.3,0.5-0.5,0.6c-0.2,0.1-0.5,0.2-0.9,0.2c-0.3,0-0.6,0-0.8-0.2c-0.2-0.2-0.4-0.4-0.5-0.6
		c-0.2-0.2-0.2-0.5-0.3-0.8c-0.1-0.1-0.1-0.2-0.1-0.4c0-0.2,0-0.3-0.1-0.6c0-0.5,0.2-1,0.5-1.4c0.3-0.4,0.7-0.6,1.3-0.6
		c0.6,0,1.1,0.2,1.4,0.6c0.3,0.4,0.4,0.9,0.4,1.5C159,65.8,158.9,66.1,158.9,66.4z"/>
	<path d="M166.4,62.1c-0.9,0-1.7,0.3-2.3,1.1v-1h-1.6v7.1h1.8v-3.4c0-0.3,0-0.5,0.1-0.8c0-0.3,0.1-0.6,0.2-0.8
		c0.1-0.2,0.3-0.4,0.5-0.6c0.2-0.1,0.5-0.2,0.8-0.2c0.3,0,0.5,0.1,0.7,0.2c0.1,0.1,0.2,0.3,0.3,0.5c0,0.1,0.1,0.4,0.1,0.6
		c0,0.2,0,0.5,0,0.7v3.8h1.8v-4.4c0-0.8-0.2-1.5-0.6-2C167.8,62.4,167.2,62.1,166.4,62.1z"/>
	<polygon points="181.1,59.7 173.7,59.7 173.7,61.2 176.4,61.2 176.5,61.2 176.5,69.2 178.4,69.2 178.4,61.2 181.1,61.2 	"/>
	<path d="M183.1,62.7c-0.3,0.4-0.5,0.7-0.6,1.1v-1.6h-1.6v7.1h1.8v-2.6c0-0.3,0-0.6,0-0.9c0.1-0.3,0.1-0.6,0.2-0.9
		c0.1-0.4,0.3-0.6,0.5-0.8s0.4-0.3,0.8-0.3c0.3,0,0.6,0.1,0.8,0.2v-1.8c-0.2-0.1-0.4-0.1-0.6-0.1C183.9,62.1,183.4,62.3,183.1,62.7z
		"/>
	<path d="M190.9,65.6c0,0.2-0.1,0.4-0.1,0.7c0,0.3-0.1,0.6-0.2,0.8c-0.1,0.2-0.3,0.4-0.5,0.6c-0.2,0.2-0.5,0.3-0.8,0.3
		s-0.5-0.1-0.7-0.2c-0.2-0.1-0.3-0.3-0.4-0.5c0-0.2-0.1-0.5-0.1-0.7c0-0.1,0-0.2,0-0.3c0-0.1,0-0.2,0-0.3v-3.9h-1.8v4.4
		c0,0.8,0.2,1.5,0.6,2c0.4,0.5,1,0.8,1.8,0.8c1,0,1.7-0.4,2.3-1.1v1h1.7v-7h-1.8V65.6z"/>
	<path d="M198.6,65.8c-0.2-0.2-0.3-0.3-0.5-0.4s-0.4-0.1-0.6-0.2c-0.2-0.1-0.4-0.1-0.6-0.2c-0.2-0.1-0.3-0.1-0.5-0.2
		c-0.3-0.1-0.5-0.3-0.5-0.6c0-0.3,0.2-0.5,0.4-0.6c0.2-0.1,0.4-0.2,0.7-0.2c0.4,0,0.7,0.1,0.9,0.1c0.3,0,0.5,0.1,0.8,0.2l-0.1-1.4
		c-0.3-0.1-0.6-0.1-0.9-0.2c-0.3-0.1-0.7-0.1-1.1-0.1c-0.7,0-1.4,0.2-1.9,0.5c-0.6,0.4-0.9,0.9-0.9,1.7c0,0.3,0.1,0.6,0.2,0.8
		c0.1,0.2,0.2,0.4,0.4,0.5c0.1,0.2,0.3,0.3,0.5,0.4s0.4,0.1,0.6,0.2c0.4,0.2,0.8,0.3,1.1,0.4c0.2,0.1,0.3,0.2,0.4,0.3
		c0.1,0.2,0.1,0.3,0.1,0.5c0,0.4-0.1,0.6-0.4,0.7c-0.3,0.1-0.5,0.2-0.8,0.2c-0.6,0-1.2-0.2-1.8-0.5l-0.1,1.5
		c0.7,0.2,1.4,0.3,2.1,0.3c0.8,0,1.5-0.1,2.1-0.5c0.6-0.4,0.9-1,0.9-1.8c0-0.3,0-0.6-0.1-0.8C198.9,66.1,198.8,66,198.6,65.8z"/>
	<path d="M203.9,68c-0.4,0-0.6-0.2-0.7-0.4s-0.2-0.5-0.2-0.8v-3.3h1.6v-1.3H203v-2l-1.8,0.6v1.4h-1.4v1.3h1.4v3.6
		c0,1.5,0.7,2.3,2.2,2.3c0.6,0,1-0.1,1.4-0.2l-0.1-1.4C204.5,67.9,204.2,68,203.9,68z"/>
</g>
<g id="Instruction_-_DO_NOT_PRINT">
</g>
</svg>
