<?xml version="1.0" encoding="utf-8"?>
<!-- Generator: Adobe Illustrator 26.0.1, SVG Export Plug-In . SVG Version: 6.00 Build 0)  -->
<svg version="1.1" id="svg2811" xmlns:svg="http://www.w3.org/2000/svg"
	 xmlns="http://www.w3.org/2000/svg" xmlns:xlink="http://www.w3.org/1999/xlink" x="0px" y="0px" viewBox="0 0 200 200"
	 style="enable-background:new 0 0 200 200;" xml:space="preserve">
<g>
	<path d="M181.9,41.2c-3.1,1.4-5.5-0.1-9.4,7.8c-12,24.6-21.3,44.6-32.4,73.4c0.3-23.6,4.5-42.4,7.1-65.4c0.5-4.2,1.1-10.1,1-14.5
		c-0.1-3.4-3.4-3.8-10.3-0.5c-3.8,1.8-8.3,1.7-10.1,6.2c-7.4,19.1-24.4,72.3-32.4,102.4c-1.9,7.2,5.3,8.4,7.4,1
		c5.2-17.9,17.1-57.6,24.2-78c-0.7,18.7-5.8,48.3-3.4,63.8c0.8,4.9,5.3,7,7.6,11.1c1.7,2.9,4.3,3.2,5.8-0.8
		c7-18.9,20.4-52.3,33.5-79c-2.6,11.7-12.3,61.6-15.1,81.5c-0.6,4,4.4,4.1,8.7,10.1c1,1.3,4.7,2.8,5.4-0.6
		c2.3-11.9,17.4-89.3,23.4-113.9C194.6,39.1,194.1,35.8,181.9,41.2z"/>
	<path d="M83,97.5c5.2-7.8,6.7-6.2,8-8.6c1.6-3,0.5-5.7-5-5c0,0-2.1,0.2-6,0.6c6.2-15.9,11.6-29.4,15.5-39.6c1.3-3.5,1.5-6-0.7-6.5
		c-2.3-0.6-9,3-13.1,3.8c-1.3,0.2-2.5,1.6-3,2.6c-6.6,15.1-12.4,29.4-17.5,42.5c-6.5,1.1-14.1,2.6-22.6,4.5
		c6.1-15.7,12.3-31.1,18.3-46c3-7.3-4.8-8-7.8-0.6C45,54.7,37.7,72.7,29.5,93.8c-6,1.5-12.3,3.1-18.9,5.1c-4.8,1.4-5,2.7-2.9,5.6
		c1.1,1.6,3.5,1.5,4.6,2.6c2.8,3,4.5,6.5,9.6,7.1c-4.5,12-9,24.4-13.1,36.3c-2.6,7.5,4.7,9,7.5,1.1c4.5-12.8,9.2-25.7,14.1-38.6
		c4.1-1,13.9-3.1,23-5c-7.2,19.8-11.9,34.8-13.8,42.1c-0.3,1.4,0.2,2.2,0.5,2.7c2.4,3.5,4.8,3.7,7.9,8.1c0.8,1.2,3.7,1.8,4.7-1.1
		c6.7-20.2,13.6-39.1,20-56.1C75.3,103,80.1,101.8,83,97.5z"/>
	<path d="M88,128.3c-0.5,0.4-1,0.9-1.5,1.3c-0.6-1.7-1.1-3.5-1.6-5.2c1.6-1.9,3.1-3.8,4.4-5.8c5.4-8.4-5.2-13.2-9.8-7.7
		c-2.5,2.9-1.8,5.7-1.2,8.2c0.2,0.8,0.5,1.8,0.9,3.1c-1.3,1.3-2.9,3-4.9,5.4c-5.2,6-3.8,13.8,1.8,15.5c3.4,1.1,6.5-0.5,9.3-2.9
		c0.1,0.3,0.3,0.7,0.4,1c1.4,3.6,5.9,2.5,4.2-1.8c-0.3-0.8-0.7-1.8-1.1-3c0.9-1.1,1.7-2.2,2.4-3.3C94.5,128.3,91.3,125.4,88,128.3z
		 M84.5,116.8c-0.5,0.6-1,1.1-1.5,1.6c-0.1-0.4-0.2-0.8-0.3-1.1C81.2,111.4,87.8,113,84.5,116.8z M80.8,134.5
		c-2,1.2-3.6-0.1-0.9-3.8c0.4-0.6,0.9-1.2,1.4-1.8c0.5,1.4,1,2.9,1.4,4.3C82.1,133.7,81.5,134.2,80.8,134.5z"/>
</g>
</svg>
