<?xml version="1.0" encoding="utf-8"?>
<!-- Generator: Adobe Illustrator 26.0.1, SVG Export Plug-In . SVG Version: 6.00 Build 0)  -->
<svg version="1.1" id="Layer_1" xmlns:svg="http://www.w3.org/2000/svg"
	 xmlns="http://www.w3.org/2000/svg" xmlns:xlink="http://www.w3.org/1999/xlink" x="0px" y="0px" viewBox="0 0 275.3 174.5"
	 style="enable-background:new 0 0 275.3 174.5;" xml:space="preserve">
<g>
	<path d="M38.6,142.4L38.6,142.4l4,0.5c1.8,0.2,2,1.7,2,2.6v4.6h-18v-4.6c0-0.9,0.2-2.4,2-2.6l3.9-0.5v-3.9H9v3.9l3.9,0.5
		c1.8,0.2,2,1.7,2,2.6v15.1c0,0.9-0.2,2.4-2,2.6L9,163.7v3.9h23.4v-3.9l-3.9-0.5c-1.8-0.2-2-1.7-2-2.6V156h18v4.6
		c0,0.9-0.2,2.4-2,2.6l-3.9,0.5v3.9H62v-3.9l-3.9-0.5c-1.8-0.2-2-1.7-2-2.6v-15.1c0-0.9,0.2-2.4,2-2.6l3.9-0.5v-3.9H38.6V142.4z"/>
	<path d="M194.3,138.5h-28.8v3.9l3.5,0.4c1.2,0.2,2.1,0.7,2.1,2.3v15.4c0,0.9-0.2,2.4-2,2.6l-3.9,0.5v3.9h29.2
		c10.5,0,19.1-4.2,19.1-14.6C213.4,142.6,204.8,138.5,194.3,138.5z M192.2,162.1h-9.8v-18h9.8c5.8,0,7.8,2.7,7.8,9
		C200,159.3,198,162.1,192.2,162.1z"/>
	<path d="M262.4,163.3c-1.9-0.2-2.4-1.4-3-2.2L246,140.5c-0.9-1.5-1.7-2-3.1-2h-22.1v3.9l5.3,0.6c0.7,0.1,1.8,1.1,0.9,2.4l-10,16.2
		c-0.4,0.7-0.9,1.4-2.1,1.6l-3.9,0.5v3.9h18.6v-3.9l-3.2-0.3c-1.4-0.2-2.2-1.1-1.4-2.2l1.5-2.4h18l1.3,2c1.2,1.8-0.3,2.5-1.6,2.6
		l-3.3,0.4v3.9h25.2v-3.9L262.4,163.3z M229.7,153.6l5.5-9l5.9,9H229.7z"/>
	<path d="M144.7,142.4l3.9,0.5c1.8,0.2,2,1.7,2,2.6v14.6l-15.4-20.4c-0.7-0.9-1.3-1.2-3-1.2h-20v3.9l3.9,0.5c1.8,0.2,2,1.7,2,2.6
		v15.1c0,0.9-0.2,2.4-2,2.6l-3.9,0.5v3.9h18.7v-3.9l-3.9-0.5c-1.8-0.2-2-1.7-2-2.6V146l15.4,20.3c0.7,0.9,1.3,1.2,3,1.2h0.2h14
		v-22.2c0-0.9,0.2-2.4,2-2.6l3.9-0.5v-3.9h-18.6L144.7,142.4z"/>
	<path d="M87,137.5c-19,0-23.8,8.3-23.8,15.5s4.9,15.6,23.8,15.6c19,0,23.8-8.3,23.8-15.5C110.8,145.8,106,137.5,87,137.5z
		 M87,163.1c-7.4,0-10.4-3.1-10.4-10s3.1-10,10.4-10c7.4,0,10.4,3.1,10.4,10S94.4,163.1,87,163.1z"/>
	<path d="M102.4,110.2c0,0,2.7,0.5,7.2,0.7c4.7,0.3,6.8,0.3,6.8,0.3c2-7.4,4.3-17.6,7-22c2.2-3.6,5.6-3.9,7.6-4.2
		c3-0.4,5.6-0.5,6.7-0.5c1.2,0,3.7,0,6.7,0.5c2,0.3,5.3,0.7,7.6,4.2c2.7,4.4,5.1,14.6,7,22c0,0,2.1,0,6.7-0.3
		c4.5-0.3,7.2-0.7,7.2-0.7c1.4-16.7,3-38.8,3.8-52c0.8-12.4,2.7-42,2.7-42c-1.6-0.2-3.2-0.4-5-0.5c-1.4-0.1-4.6-0.2-4.6-0.2
		c-3.2,14.3-4.5,20.9-7.1,31.2c-2.5,9.9-4.5,19.2-7.9,23.7c-3.4,4.6-7.9,5.5-11,5.9c-1.6,0.2-2.8,0.3-6.3,0.3s-4.7-0.1-6.3-0.3
		c-3.1-0.4-7.7-1.3-11-5.9c-3.4-4.5-5.3-13.7-7.8-23.7c-2.6-10.4-3.9-16.9-7.1-31.2c0,0-3.2,0.1-4.6,0.2c-2,0.1-3.5,0.3-5,0.5
		c0,0,1.9,29.5,2.7,42C99.4,71.3,101,93.4,102.4,110.2z"/>
	<path d="M69.7,77.2c0.4,3.8,2,15.2,4,21.1c2.8,8.1,5.3,10.5,8.3,12.9c5.4,4.4,14.4,5.8,16.3,6.2c10.1,1.8,30.5,2.2,39.6,2.2
		c9,0,29.5-0.3,39.6-2.2c1.9-0.4,10.8-1.7,16.3-6.2c3-2.4,5.5-4.8,8.3-12.9c2.1-5.9,3.6-17.4,4-21.1c0.6-5.5,1.6-13.6,1.8-25.4
		c-0.1-7.2-0.3-13.8-0.7-18.9c-1.9-18.7-14.4-22.6-25.3-24.5c-5.5-0.9-15.3-1.7-21.6-2C154.8,6,141.9,5.8,138,5.8
		c-3.9,0-16.8,0.2-22.3,0.6c-6.3,0.3-16.1,1-21.6,2c-10.9,1.9-23.5,5.8-25.3,24.5c-0.6,5.1-0.7,11.8-0.6,18.9
		C68.1,63.7,69.1,71.6,69.7,77.2z M75.9,32.9c1.4-11.8,7.2-17.7,19.6-19.8c5.8-1,13.7-1.8,21-2.2c6-0.4,15.7-0.6,21.2-0.6
		c5.4-0.1,15.2,0.2,21.1,0.6c7.4,0.4,15.2,1.1,21,2.2c12.4,2.2,18.2,8.1,19.7,19.8c1,7.8,1.1,22.3,0.5,31.4
		c-1.1,15-2.4,23.9-4.3,30.4c-1.7,5.7-3.7,9.4-6.7,12.2c-5,4.6-12,5.5-16.1,6.2c-8.8,1.3-23.7,1.8-35.3,1.8
		c-11.7,0-26.5-0.5-35.3-1.8c-4.1-0.7-11-1.6-16.1-6.2c-3-2.7-5-6.5-6.7-12.2c-1.9-6.5-3.3-15.4-4.3-30.4
		C74.7,55.4,74.8,40.8,75.9,32.9z"/>
</g>
</svg>
