<?xml version="1.0" encoding="utf-8"?>
<!-- Generator: Adobe Illustrator 26.0.1, SVG Export Plug-In . SVG Version: 6.00 Build 0)  -->
<svg version="1.1" id="IKEA_logo" xmlns="http://www.w3.org/2000/svg" xmlns:xlink="http://www.w3.org/1999/xlink" x="0px" y="0px"
	 viewBox="0 0 200 96.2" style="enable-background:new 0 0 200 96.2;" xml:space="preserve">
<g>
	<path d="M10,12.1v72h180l0,0v-72H10z M100,80.5c-50.2,0-86.4-14.8-86.4-32.4S49.8,15.7,100,15.7s86.4,14.8,86.4,32.4
		S150.2,80.5,100,80.5z"/>
	<path d="M98.7,37.3v21.6c0,0.7,0,1.4-0.4,2.2h31.3v-7.2c-0.7,0.4-1.4,0.4-2.3,0.4h-13.1v-3.4h12.6v-5.4h-12.6V42h13.1
		c0.7,0,1.4,0,2.3,0.4v-7.2H98.4C98.7,35.9,98.7,36.6,98.7,37.3z"/>
	<path d="M93.5,58.9c-1.1-1.4-8.8-13.1-8.8-13.1s5.2-6.3,6.1-7.4c1.1-1.3,2.3-2.7,3.4-3.4H77.3c0,0.7-1.1,2.3-2,3.6
		c-1.3,1.6-6.3,8.1-6.3,8.1v-9.4c0-0.7,0-1.4,0.4-2.2H53.2c0.4,0.7,0.4,1.4,0.4,2.2v21.6c0,0.7,0,1.4-0.4,2.2h16.2
		C69,60.4,69,59.6,69,58.9v-9c0,0,4.5,6.7,5.2,7.9c0.9,1.3,1.6,2.7,1.6,3.4h19.4C94.8,60.5,94.2,59.8,93.5,58.9L93.5,58.9z"/>
	<path d="M45.6,35.2H28c0.4,0.7,0.4,1.4,0.4,2.2v21.6c0,0.7,0,1.4-0.4,2.2h17.6c-0.4-0.7-0.4-1.4-0.4-2.2V37.3
		C45.3,36.6,45.3,35.9,45.6,35.2z"/>
	<path d="M164.6,37.3c-0.4-0.7-0.7-1.4-0.5-2.2h-22.7c0.2,0.7-0.2,1.4-0.5,2.2l-8.1,21.6c-0.2,0.9-0.7,1.6-1.3,2.2h13.3
		c-0.2-0.7,0.2-1.4,0.4-2.2c0.2-0.7,0.5-1.4,0.5-1.4l0.2-0.4h9.7l0.2,0.4c0.4,0.9,0.5,1.4,0.5,1.4c0.4,0.7,0.5,1.4,0.5,2.2h16.9
		c-0.5-0.7-1.1-1.4-1.3-2.2C172.5,57.5,165.2,38.9,164.6,37.3z M148.2,51.5c1.1-3.1,2.2-5.8,2.2-6.1c0.2-0.5,0.4-1.1,0.5-1.8
		c0.2,0.5,0.4,1.1,0.5,1.8l2.3,6.1H148.2z"/>
	<path d="M171.1,33.7h-0.2c-1.8,0-3.4,1.6-3.2,3.4l0,0v0.2c0,2,1.6,3.4,3.6,3.4s3.4-1.6,3.4-3.6V37
		C174.7,35.2,173.1,33.7,171.1,33.7z M171.1,39.8c-1.6,0-2.9-1.3-2.9-2.7V37c0-1.4,1.3-2.5,2.9-2.5c1.6,0,2.9,1.3,2.9,2.7
		C174,38.6,172.7,39.8,171.1,39.8z"/>
	<path d="M172.7,36.4c0-0.7-0.5-1.3-1.3-1.3h-1.6v4h0.5v-1.4h0.9l0.9,1.4h0.7l-0.9-1.4C172.4,37.3,172.7,37,172.7,36.4z M171.3,37.1
		h-0.9v-1.4h0.9c0.4,0,0.7,0.4,0.7,0.7S171.6,37.1,171.3,37.1z"/>
</g>
</svg>
