<?xml version="1.0" encoding="utf-8"?>
<!-- Generator: Adobe Illustrator 26.0.1, SVG Export Plug-In . SVG Version: 6.00 Build 0)  -->
<svg version="1.1" id="Layer_1" xmlns="http://www.w3.org/2000/svg" xmlns:xlink="http://www.w3.org/1999/xlink" x="0px" y="0px"
	 viewBox="0 0 200 149.4" style="enable-background:new 0 0 200 149.4;" xml:space="preserve">
<g>
	<path d="M104.9,78.7c6.1,0,11.2-8.8,11.2-14.3c0-3.5-0.8-7.2-5.1-7.2c-6,0-11.5,7.5-11.5,15.3C99.5,75.6,101,78.7,104.9,78.7z
		 M111.9,58.4c2,0,2.5,1.7,2.4,3.3c0,5.4-6.1,15.6-10.3,15.6c-1.7,0-2.4-1.2-2.4-2.8C101.6,68.4,107.7,58.4,111.9,58.4z"/>
	<path d="M133.9,73.8c0.3-0.4-0.2-0.8-0.5-0.5c-0.5,0.5-1.9,2.3-3.3,3.1c-0.3,0.1-0.5,0.1-0.4-0.4l11.1-24.7c0.2-0.5,0.3-0.7,0.3-1
		c0-0.3-0.2-0.5-0.5-0.5c-0.5,0-1.2,0.1-1.9,0.2c-0.7,0-1.8,0.1-2.9,0.2c-0.3,0-0.4,0.3-0.4,0.5c0,0.3,0.2,0.4,0.5,0.4
		c0.5,0,1.1,0,1.6,0.1c0.2,0.1,0.3,0.3,0.3,0.4c0,0.1,0,0.4-0.2,0.7c-3.6,7.8-7.2,15.6-10.7,23.5c-0.2,0.4-0.5,1.2-0.5,1.7
		c0,0.7,0.5,1.2,1.2,1.2c0.4,0,0.8-0.1,1.1-0.3C130.6,77.8,132.6,75.7,133.9,73.8z"/>
	<path d="M99.8,117.7h13.4c5.9,0,15.6-2.8,15.6-14.5c0-11.8-8-13.9-15.8-13.9h-12.8l0,0c-0.9,0-0.8,1.1-0.2,1.1
		c1.1,0,2.9,0.5,2.9,2.7v20.1c0,2.2-0.5,3.5-3,3.5C99.2,116.7,99.2,117.7,99.8,117.7z M107.1,93.3c0-2.6,1.5-2.7,4.9-2.7
		c6,0,12.1,3,12.1,12.5c0,9.3-5.1,13.2-11.8,13.2h-1.4c-1.8,0-3.8-0.4-3.8-3.9L107.1,93.3L107.1,93.3z"/>
	<path d="M170.2,44.8c0.2,0,0.4-0.1,0.5-0.4c0.3-0.5,0.7-0.9,1.5-0.9c1.7,0,3.7,2,8.6,2c4.2,0,11.5-1.3,11.5-9.7
		c0-3.3-1.4-7.6-9.5-9.9c-5.7-1.6-7.6-4-7.6-7c0-2.5,1.5-5,5.6-5c2,0,5.4,0.6,7.6,4.9c0.3,0.3,0.4,0.3,0.6,0.3
		c0.2,0,0.5-0.1,0.4-0.5l-0.9-6c-0.1-0.4-0.3-0.5-0.5-0.5c-0.1,0-0.3,0.1-0.5,0.4c-0.3,0.5-0.7,1-1.4,1c-1.3,0-2.6-1-5.7-1
		c-4.1,0-9.6,1.8-9.6,7.8s4.8,8,9,9.5c4.4,1.6,7.8,2.8,7.8,7.3c0,5.1-3.6,6.7-7,6.7c-3.7,0-8.1-1.8-9.7-7.7
		c-0.1-0.5-0.3-0.6-0.7-0.6c-0.3,0-0.6,0.2-0.6,0.8v7.6C169.7,44.6,169.9,44.8,170.2,44.8z"/>
	<path d="M184.3,67c4.9-1.5,7.6-3.2,7.6-6.3c0-2.2-1.5-2.9-3.5-2.9c-5.9,0-14.7,8.4-14.7,16.4c0,2.6,1.6,4.6,4.5,4.6
		c3.7,0,6.6-2.3,8.5-4.7l0,0c0.3-0.4-0.3-1-0.7-0.4c-1.3,1.4-3.5,3.3-5.9,3.3c-2,0-3.2-1.4-3.2-3.6c0-1.7,0.9-3.8,1.5-4.9
		C179.9,68.1,182.9,67.4,184.3,67z M183.5,61.2c0.9-0.9,2.5-2.1,4-2.1c1.3,0,1.9,0.6,1.9,1.8c0,2.5-2.6,4-5.3,4.8l0,0
		c-1.9,0.6-4,1.1-4.9,1.1C180.4,64.5,181.9,62.6,183.5,61.2z"/>
	<path d="M173.3,59.1c1.4,0,1.4,0.5,2.3,0.5l0,0c0.5,0,1-0.3,1-1.2c0-0.8-0.8-1.1-1.5-1.1c-0.8,0-1.8,0.2-2.9,0.9
		c-0.3,0.2-0.9,0.5-1.3,0.3c-0.8-0.6-1.6-1-3.6-1c-2,0-4.9,1.2-6.8,3.7c-1.3,1.9-1.6,3.2-1.6,4.6c0,1.3,0.6,2.3,0.9,2.9
		c0.1,0.1,0.1,0.2,0.1,0.4c0,0.3-0.4,0.5-1.1,0.7c-1.2,0.4-3.2,1.5-3.2,3.6c0,1.3,1.1,2.6,2.3,3.4c0,0-2.5,0.7-4.4,1.7
		c-1.5,0.8-3.2,2.2-3.2,4c0,2.2,1.8,5.6,9.4,5.6c4.4,0,7.2-1.6,8.2-2.8c0.8-0.9,0.9-2,0.9-2.7c0-2.4-2.7-4.7-5.6-6.3
		c-1.9-1.1-4.6-2.4-4.6-4.2c0-0.5,0.1-1,0.7-1.3c0.4-0.3,0.9-0.4,1.5-0.4c0.8,0,1.9,0.3,2.7,0.3c2.4,0,5.6-0.8,7.7-5.1
		c0.5-1.2,0.8-2.4,0.8-3.4c0-1.3-0.2-1.6-0.2-2.3C171.8,59.4,172.3,59.1,173.3,59.1z M158.9,77.8c1.2,0.5,3,1.6,3.6,2.2
		c2.7,1.8,3.2,2.9,3.2,3.9c0,2.5-3.8,3.1-5.7,3.1l0,0c-4.9,0-6.4-2.9-6.4-4.2c0-1.3,0.5-2.2,1.9-3.1
		C156.4,78.8,157.8,78.2,158.9,77.8z M169.8,60.4c0,1.3-0.5,3-1.6,4.9c-2.1,3.4-3.7,4.1-5.2,4.1c-1.2,0-1.7-1-1.7-2.4
		c0-1.2,0.5-2.9,1.5-4.3c1.4-2.3,3.4-4.1,5.2-4.1C169.1,58.5,169.8,59.1,169.8,60.4L169.8,60.4z"/>
	<path d="M98.2,59.8c0.3,0,0.5-0.1,0.5-0.4l2.2-6.8c0.1-0.4,0-0.7-0.4-0.7c-0.1,0-0.3,0-0.5,0.2c-0.4,0.4-0.9,0.8-1.3,0.8
		c-0.2,0-0.4-0.1-0.6-0.3c-1.9-2.4-5-2.7-6.4-2.7c-6.8,0-12.7,4.5-16.1,9.9c-2.1,3.2-3.2,6.8-3.2,10.4c0,5.6,3.9,8.8,9,8.8
		c2.3,0,4-0.3,7.1-1.5c0.7-0.3,1.4-0.6,1.9-0.6c0.8,0,0.8,1.1,0.9,2.2c0,0.4,0.3,0.5,0.5,0.5c0.2,0,0.4-0.1,0.5-0.4L95,71
		c0.2-0.7,0-0.9-0.3-0.9c-0.4,0-0.6,0.1-0.9,0.7c-1.3,2-2.2,3.3-6.7,5.5c-1.9,0.9-4.1,1.4-5.8,1.4c-3.8,0-5.3-2.9-5.3-6.6
		c0-4.8,2.3-9.8,5.7-14c2.2-2.8,5.6-5.9,9.6-5.9c3.8,0,6.6,2.8,6.2,8C97.5,59.6,97.8,59.8,98.2,59.8L98.2,59.8z"/>
	<path d="M93.8,117.7l0.1-23.8c0-2.4,1-3.6,3.6-3.6c0.5,0,0.5-0.8,0-0.8h-9.2c-0.5,0-0.5,0.8,0,0.8c0.9,0,3.8,0.1,3.8,3.2l0.2,17.3
		L74.2,89.5H67l0,0c-0.5,0-0.7,0.9,0,0.9c0.8,0,2.5,0.2,2.5,2.7l-0.1,19.8c0,2.2-0.8,4-2.8,4c-0.7,0-0.7,0.9-0.1,0.9h8.2
		c0.5,0,0.5-0.9-0.1-0.9c-1.2,0-3.3-0.5-3.3-4l-0.2-20.1c0,0,21.1,24.8,21.3,25L93.8,117.7L93.8,117.7z"/>
	<rect x="9.8" y="133.2" width="179.3" height="3.9"/>
	<path d="M34.5,117.7l1.5-7.9c0.1-0.8-0.7-0.8-0.9-0.3c-2.2,6.4-6.7,6.9-11.5,6.9c-4.9,0-6-0.8-6-3.1V93.4c0-2.4,2.3-2.9,3.4-2.9
		c0.7,0,0.5-0.9,0-0.9H9.4c-0.7,0-0.6,0.9,0,0.9c2.4,0,3.8,1,3.8,3.5V113c0,2.9-2,3.6-3.6,3.6c-0.5,0-0.7,1,0.1,1H34.5z"/>
	<path d="M33.9,78.4c1.3,0,0.8-1.7-0.1-1.7c-7.6,0-8.9-4.7-9.3-7.9C24,65.6,24.1,51,24.2,49.2c0.1-1.8,1.7-1.3,2.4-0.9
		c3.7,2.5,26.6,30.1,26.6,30.1h18.4c1.1,0,0.8-1.5,0-1.6c-3.2-0.3-6.1-0.5-10.4-4c-4.1-3.4-27.7-31.5-27.7-31.5s10.5-11.1,18.6-18.6
		c7.9-7.2,12.3-8.3,13.2-8.6c1-0.3,0.8-1.7-0.5-1.6c-2.2,0.1-6.6,0.3-9.6,0.3c-5.3,0-9.8-0.4-10.7-0.4c-1.4,0-1.7,1.6-0.1,1.8
		c1.1,0.2,2.1,0.3,3.2,0.7c1.3,0.5,1.7,1.5,1.7,2.5c0,0.8-0.3,1.5-0.6,1.9c-1.2,2.3-3,4.8-5.5,7.6c-6.4,7.2-15,15.6-17.9,17.6
		c-0.9,0.7-1.2,0-1.2-0.7c0-0.5,0-13.2,0.2-21.3s6.3-8.3,7.9-8.5c1.6-0.1,1.1-1.7,0.1-1.7H7.4c-1.1,0-1.2,1.6-0.3,1.6
		c5.9,0,8.2,3.6,8.2,6.3c0.1,3.9,0.4,39.3,0,47.8c-0.3,8.2-5.4,8.4-7.5,8.6c-1.4,0.1-1.4,1.6,0.1,1.6c0.9,0,7.6-0.2,12.4-0.2
		C26,78.2,29.4,78.2,33.9,78.4z"/>
	<path d="M36.8,103.4c0,8.3,5.6,14.6,14.1,14.6c8.2,0,14.1-5.7,14.1-14.6c0-7.7-5.7-14-14.1-14C42.7,89.3,36.8,95.8,36.8,103.4z
		 M60.4,103.4c0,9.2-3.7,13.3-9.6,13.3c-5.7,0-9.5-5.5-9.5-13.3c0-7.2,3.3-12.8,9.5-12.8C56.3,90.6,60.4,95.9,60.4,103.4z"/>
	<rect x="9.8" y="127.7" width="179.3" height="1.7"/>
	<path d="M193.1,89.5h-9.2c-0.5,0-0.5,0.8,0,0.8c0.9,0,3.8,0.1,3.8,3.2l0.2,17.3l-18.1-21.4h-7.2l0,0c-0.5,0-0.7,0.9,0,0.9
		c0.8,0,2.5,0.2,2.5,2.7l-0.1,19.8c0,2.2-0.8,4-2.8,4c-0.7,0-0.7,0.9-0.1,0.9h8.2c0.5,0,0.5-0.9-0.1-0.9c-1.2,0-3.3-0.5-3.3-4
		l-0.2-20.1c0,0,21.1,24.8,21.3,25h1.4l0.1-23.8c0-2.4,1-3.6,3.6-3.6C193.6,90.3,193.6,89.5,193.1,89.5z"/>
	<path d="M164.4,17.9c0.6,0,1.2-0.1,1.3-0.3c0,0.9-0.8,2.2-2.9,2.6c-0.1,0-0.3,0.2-0.3,0.4c0,0.2,0.1,0.4,0.5,0.4
		c3.1,0,4.8-2.8,4.8-5.1c0-2-1.4-3.3-3.1-3.3c-1.2,0-2.8,0.6-2.8,2.6C161.9,17.1,163.2,17.9,164.4,17.9z"/>
	<path d="M148.3,67c4.9-1.5,7.6-3.2,7.6-6.3c0-2.2-1.5-2.9-3.5-2.9c-5.9,0-14.7,8.4-14.7,16.4c0,2.6,1.7,4.6,4.5,4.6
		c3.6,0,6.6-2.3,8.5-4.7l0,0c0.4-0.4-0.3-1-0.7-0.4c-1.3,1.4-3.5,3.3-5.9,3.3c-2.1,0-3.2-1.4-3.2-3.6c0-1.7,0.9-3.8,1.5-4.9
		C143.9,68.1,146.9,67.4,148.3,67z M147.5,61.2c0.9-0.9,2.5-2.1,4-2.1c1.3,0,1.9,0.6,1.9,1.8c0,2.5-2.6,4-5.3,4.8l0,0
		c-1.9,0.6-4,1.1-4.9,1.1C144.4,64.5,145.9,62.6,147.5,61.2z"/>
	<path d="M146.6,117.9c8.2,0,14.1-5.7,14.1-14.6c0-7.7-5.7-14-14.1-14c-8.2,0-14.1,6.4-14.1,14C132.5,111.7,138.1,117.9,146.6,117.9
		z M146.6,90.6c5.5,0,9.6,5.3,9.6,12.8c0,9.2-3.7,13.3-9.6,13.3c-5.7,0-9.5-5.5-9.5-13.3C137.1,96.2,140.5,90.6,146.6,90.6z"/>
	<path d="M144,45.6c8.2,0,12.4-4.1,13.2-4.7v-6.3h0c0-2.7,2-3,3.7-3.1c0.7-0.1,0.8-1.2-0.1-1.2h-13.5c-0.9,0-0.9,1.2,0,1.3
		c2.7,0.1,4.8,0.7,4.8,3.2v4.9c0,1.1-0.5,1.8-1.1,2.3c-2.3,1.9-5.3,2.1-7.1,2.1c-8.6,0-12.4-7.4-12.4-14.7c0-6,3-15.4,12.9-15.4
		c8.9,0,12,5.7,13.1,7.9c0.4,0.7,1.2,0.5,1.2,0v-7.1c0-0.7-1-0.8-1.2,0c-0.2,0.8-0.7,1.3-1.4,1.3c-0.5,0-1.2-0.4-1.4-0.6
		c-2.7-1.7-5.2-3-10.3-3c-8.2,0-18.3,4.1-18.3,16.5C126.2,41.7,135.7,45.6,144,45.6z"/>
	<path d="M71.5,13.9c2,0.2,4.4,1.2,4.4,3.7v22.7c0,2.5-0.9,4.1-3.9,4.1c-1.2,0-0.9,1,0,1h13.2c0.7,0,0.9-1-0.3-1
		c-2.8,0-3.9-1.9-3.9-4.1l0,0V17.6c0-2.8,2-3.6,4.1-3.7c0.8,0,0.9-1.1-0.1-1.1H71.6C70.7,12.8,70.5,13.8,71.5,13.9z"/>
	<path d="M88.9,45.4h9.6c0.5,0,0.7-0.9,0-1c-1.5-0.3-3.9-0.3-4.1-4.9c-0.2-4.6-0.4-21.7-0.4-21.7l24.1,26.9h2c0,0,0-25.1,0.1-27
		c0.1-2.2,0.9-3.4,3.3-3.6c1.2-0.1,1-1.2,0.1-1.2h-9.8c-1.2,0-0.9,1.1-0.4,1.1c1.1,0.1,4.4,0.5,4.6,3.7c0.1,4.7,0.4,19.2,0.4,19.2
		l-21.4-24h-7.6v0l0,0c-0.9,0-0.9,0.9-0.4,1.1c1,0.2,3.2,0.4,3.2,3.2c0,6.6,0,15.3-0.2,22.4c0,2.5-0.8,4.7-3,4.9
		C88.4,44.5,88.4,45.4,88.9,45.4z"/>
	<path d="M125.8,51.2c0.5,0,1.1,0,1.6,0.1c0.3,0.1,0.3,0.3,0.3,0.4l0,0c0,0.1,0,0.4-0.2,0.7c-3.6,7.8-7.2,15.6-10.7,23.5
		c-0.1,0.4-0.5,1.2-0.5,1.7c0,0.7,0.5,1.2,1.2,1.2c0.4,0,0.8-0.1,1.1-0.3c1.9-0.8,4-2.9,5.2-4.8c0.3-0.4-0.2-0.8-0.5-0.5
		c-0.5,0.5-1.9,2.3-3.3,3.1c-0.3,0.1-0.5,0.1-0.4-0.4l11.1-24.7c0.2-0.5,0.3-0.7,0.3-1c0-0.3-0.2-0.5-0.6-0.5
		c-0.5,0-1.2,0.1-1.9,0.2c-0.7,0-1.8,0.1-2.9,0.2c-0.3,0-0.4,0.3-0.4,0.5C125.3,51,125.5,51.2,125.8,51.2z"/>
</g>
</svg>
