<?xml version="1.0" encoding="utf-8"?>
<!-- Generator: Adobe Illustrator 26.0.1, SVG Export Plug-In . SVG Version: 6.00 Build 0)  -->
<svg version="1.1" id="Layer_1" xmlns="http://www.w3.org/2000/svg" xmlns:xlink="http://www.w3.org/1999/xlink" x="0px" y="0px"
	 viewBox="0 0 175.1 380.3" style="enable-background:new 0 0 175.1 380.3;" xml:space="preserve">
<g>
	<path d="M167.6,360.5c-0.2-0.2-0.6,0.1-1,0.4c-0.9,0.9-2.6,2.4-3.9,3.4c-1.6,1.2-2.9,2.3-3.9,2.6c-0.6,0.3-1.5,0.6-1.9,0.2
		c-0.3-0.2-0.3-0.8,0.3-1.8c0.5-0.8,1.4-2.1,2.7-3.6c1.3-1.6,3-3.5,3.2-4.9c0.2-1.4-0.8-2.2-2.4-2.2c-2.4,0-5.8,2.2-8.6,4.3
		c-0.6,0.5-1.2,0.9-1.8,1.4c-1,0.8-1.9,1.5-2.8,2.3c-0.4,0.4-0.8,0.7-1.2,1.1c-0.2,0.2-0.4,0.3-0.6,0.5c-0.1,0.1-0.2,0.2-0.3,0.2
		c-0.4,0.1-0.1-0.2,0-0.4c0.1-0.2,0.3-0.3,0.4-0.5c0.9-1.3,1.9-2.5,2.8-3.8c0.8-1.1,1.7-2.4,1.7-3.4c0-0.8-0.5-1.8-2-1.8
		c-1.7,0-3.6,1.2-5.5,2.7c-1.3,1.1-3.2,2.8-4.3,4c-0.7,0.6-1.4,1.3-2.3,1.9c-1.1,0.9-2.1,1.3-2.7,1.4c-0.5,0.1-1.2,0.2-1.5,0
		c2.4-2.2,4.3-4.6,4.5-6.5c0.2-1.2-0.2-2.2-0.9-2.8c0,0-1.3-1.9-6.5-0.1c0,0-0.1,0-0.1,0c-1.2,0.4-2.4,0.9-3.7,1.6
		c-1.6,0.9-2.7,1.7-3.8,2.4c-0.7,0.6-1.6,1.3-2.4,2c-1.1,1-2.3,1.9-3.6,2.9c-1.1,0.9-2.3,1.7-3.1,2.2c-0.8,0.5-1.9,1-2.4,0.5
		c-0.3-0.2-0.2-0.9,0.3-1.8c0.7-1.3,4-6,6.5-9.2c4.6-5.9,4.5-5.2,7-8.3c4.4-5.4,8.6-10.8,10.8-12.9c-0.1-0.4-0.4-0.6-1.2-0.6
		c-1.1,0-2,0.5-2.9,1.4c-3.4,3.2-8.4,9.6-11.2,12.9c-4,4.7-3.4,3.9-7.1,8.7H112c0.2-0.9-0.3-2.2-1.8-2.5c-2.2-0.3-5.1,0.7-7.9,2.2
		c-1.6,0.8-3.1,1.8-3.9,2.5c-0.3,0.2-0.5,0.4-0.8,0.6c-0.4,0.2-0.8,0.6-1.1,0.8c-0.9,0.9-2.6,2.4-3.9,3.4c-1.6,1.2-2.8,2.1-3.8,2.5
		c-0.6,0.3-1.5,0.6-1.9,0.2c-0.3-0.2-0.3-0.8,0.3-1.8c0.5-0.8,1.3-1.9,2.6-3.5c1.3-1.6,3-3.5,3.2-4.9c0.2-1.4-0.8-2.2-2.4-2.2
		c-2.4,0-6,2.4-8.8,4.5c-0.6,0.5-1.2,0.9-1.8,1.4c-0.9,0.8-1.7,1.4-2.6,2.2c-0.4,0.4-0.8,0.7-1.2,1.1c-0.2,0.2-0.4,0.3-0.6,0.5
		c-0.1,0.1-0.2,0.2-0.3,0.2c-0.6,0.3,0.3-0.8,0.3-0.9c0.9-1.3,1.8-2.5,2.8-3.7c0.8-1.1,1.7-2.4,1.7-3.4c0-0.8-0.5-1.8-2-1.8
		c-1.7,0-3.6,1.2-5.5,2.7c-1.3,1.1-3.2,2.8-4.3,4c-0.7,0.6-1.4,1.3-2.3,1.9c-1.1,0.9-2.1,1.3-2.7,1.4c-0.5,0.1-1.2,0.2-1.5,0
		c2.4-2.2,4.3-4.6,4.5-6.5c0.2-1.2-0.2-2.2-0.9-2.8c0,0,0,0,0,0c-0.2-0.2-1.6-1.6-6-0.2c-1.3,0.4-2.8,0.9-4.3,1.8
		c-1.6,0.9-3.1,1.9-3.9,2.5c-0.8,0.6-1.8,1.4-2.6,2.2c-0.1,0.1-0.2,0.2-0.3,0.3c-4.3,3.6-7.5,4.5-11.8,4.5c-1.7,0-5.4-0.8-8.3-1.5
		c-2.4-0.7-3.2-1-4.2-1.1c5.1-3.6,7.8-4.8,13.1-12.9c2.5,0.3,5,0.3,7.8,0c4.7-0.6,14.6-3.4,15.7-8.9c0.7-3.8-2.9-6.1-7.2-5.9
		c-2.2,0.2-5.2,0.8-7.2,1.6c-3-2.5-6.8-4.4-12.8-4.4c-7.6,0-11.8,4-11.8,8.2h0v0.1c0,4.3,5.7,7.3,11.1,8.5c-4.7,6.4-5.6,9.1-10,13.4
		c-0.6-0.2-2.6-0.3-3.8-0.3c-4.7-0.1-11.8,1.5-12,4.3c-0.2,1.3,1.6,2,4.8,1.9c4.9-0.1,8.9-2.7,10.8-4.3c1,0.3,2.2,1.3,4.9,2.4
		c2.2,0.9,5.6,1.7,8.7,1.7c4.5,0,8.9-2.7,13.5-7c-0.6,1.1-1,2.2-1.2,3.4c-0.2,2.2,1.4,3.5,3.9,3.5c3.2,0,6.9-2,9-3.6
		c0.5,0.3,1.6,0.3,2.1,0.2c0.7-0.2,2.1-0.8,3.4-1.8c0.8-0.5,1.5-1.2,2.1-1.8c0,0,0,0,0.1,0c1.2-1.1,2.4-2.3,3.6-3.3
		c0.9-0.8,2.2-1.8,3.1-2.2c0.4-0.2,0.7-0.3,0.8-0.1c0.1,0.3,0,0.8-0.5,1.4c-1.3,1.7-2,2.5-3.2,4.2c-1.5,1.9-2.7,3.9-3.5,5.4
		c-0.6,1.1-0.1,1.3,1,1.3c0.9,0,1.7-0.2,2.4-0.7c3.5-2.7,5.4-4.6,8.8-7.3c2.5-2,4.7-3.4,6.2-4.1c0.6-0.2,1.3-0.7,1.7-0.5
		c0.4,0.2,0.2,0.7-0.1,1.1c-1,1.1-2.1,2.5-3.3,3.9c-1.3,1.7-3.2,3.9-3.3,5.6c-0.2,1.2,0.8,2.1,2.3,2.1v0H85c2.6,0,5.7-1.9,7.4-3.2
		c1.3-1,2.9-2.4,4-3.4c-0.9,1.3-1.4,2.5-1.5,3.4c-0.2,2.6,1.5,3.3,3.2,3.2c3-0.2,6.5-2.7,8.7-4.6h0.1c-0.7,0.9-1.2,2-1.1,2.9
		c0.1,1,0.8,1.7,2.2,1.7h0.1c2.6,0,5.2-1.8,6.9-3.1c1.6-1.3,3.6-2.8,4.8-3.9c-0.7,1.1-1.2,2.4-1.3,3.7c-0.2,2.2,1.4,3.5,3.9,3.5
		c3.2,0,6.6-2.1,8.6-3.7c0.5,0.3,1.9,0.3,2.5,0.2c0.7-0.2,1.9-0.6,3.2-1.5c0.7-0.5,1.4-1.1,2-1.7c0,0,0,0,0,0c1.2-1.1,2.8-2.6,4-3.6
		c0.9-0.8,1.9-1.7,2.8-2.1c0.4-0.2,1-0.4,1.2-0.1c0.2,0.2,0,0.8-0.5,1.4c-1.3,1.7-2,2.5-3.2,4.2c-1.5,1.9-2.9,4.2-3.6,5.7
		c-0.6,1.1-0.1,1.3,1,1.3c0.9,0,1.7-0.2,2.4-0.7c3.5-2.7,5.5-4.9,9-7.6c2.5-2,4.7-3.4,6.2-4.1c0.6-0.2,1.3-0.7,1.7-0.5
		c0.4,0.2,0.2,0.7-0.1,1.1c-1,1.1-2.1,2.5-3.3,3.9c-1.3,1.7-3.3,4-3.4,5.8c-0.2,1.2,0.8,2.1,2.3,2.1v0h0.1c2.6,0,5.5-2.1,7.1-3.4
		c1.7-1.2,3.9-3.3,4.8-4.2C167.1,361.3,167.7,360.6,167.6,360.5z M47.6,341.8c1.1,2.4,1,3.7,1.2,3.7c0.2,0,0.3-1.8-0.3-3.9
		c-0.4-1.1-1-2-1.5-2.8c1.4-1,4.5-2.1,6.3-2.1c3.4-0.1,5.5,1.8,4.9,4.6c-1.1,5-8.8,7.6-13.3,8.2c-2.8,0.3-4.7,0.5-7,0.2h-0.1
		c3-4.5,4.7-8.4,7.9-10.2C46.2,339.9,47.1,340.9,47.6,341.8z M22.5,341.4L22.5,341.4c0-3.6,3.5-6.9,10.3-6.9c5.6,0,9.5,2,11.7,3.6
		c-3.8,1.6-7.5,5.9-11.2,10.8C28.1,347.7,22.5,345.3,22.5,341.4z M21.4,364.7c-2.1,2.1-5.9,3.8-8.4,3.8c-1.2,0.1-2.7-0.4-2.6-1.3
		c0.2-1.5,3.1-3,6.4-3C18.5,364,20.2,364.3,21.4,364.7L21.4,364.7L21.4,364.7z M60.2,363.4c-2.5,2.7-5.6,4.2-7.3,4.2
		c-0.9,0-1.2-0.6-1.1-1.4c0.2-1.6,2.4-4.3,4.6-6.3c0.2-0.2,0.5-0.5,0.7-0.7c1.1-1.1,3.7-3.4,5.6-3.7c2.2-0.3,2.1,1.7,1,3.4
		C62.6,360.5,60.8,362.8,60.2,363.4z M105.5,363.9c-2.1,2-4.8,3.4-6.2,3.4v0h-0.1c-0.6,0-0.9-0.2-1-0.8c-0.1-1,1.4-3,4.4-6
		c2.8-2.9,5.3-4.7,6.9-4.7c0.9,0,1.5,0.4,1.4,1.4C110.8,358.6,108,361.7,105.5,363.9z M130.2,363.4c-2.6,2.6-5.2,4.2-7,4.2
		c-0.9,0-1.2-0.6-1.1-1.4c0.2-1.6,2-4.3,4.2-6.3c0.4-0.4,0.8-0.8,1.2-1.2c1.2-1.1,3.4-3,5.1-3.2c2.4-0.4,1.9,1.7,0.7,4
		C132.4,360.9,131,362.6,130.2,363.4z"/>
	<path d="M24.4,147.3L24.4,147.3l4.2,6.6h5.5l-5.4-7c2.4-0.4,3.7-2.5,3.7-4.8c0-3.6-2.6-5.2-5.9-5.2H20v17h4.4V147.3z M24.4,140.2
		h0.4c1.4,0,3.1,0.3,3.1,2.1c0,1.9-1.6,2.1-3.1,2.1h-0.4V140.2z"/>
	<path d="M50.3,145c0,5.5,4,9.4,9.4,9.4c5.5,0,9.4-3.9,9.4-9.4c0-5.2-4.5-8.8-9.4-8.8S50.3,139.9,50.3,145z M59.8,140.5
		c2.6,0,4.8,2.1,4.8,4.5c0,2.9-2.2,5.1-4.8,5.1c-2.6,0-4.8-2.1-4.8-5.1C54.9,142.7,57.1,140.5,59.8,140.5z"/>
	<polygon points="95.9,153.9 95.9,145.7 102.2,136.8 96.9,136.8 93.7,141.5 90.5,136.8 85.2,136.8 91.5,145.7 91.5,153.9 	"/>
	<path d="M121.2,150.9h6.1l1.1,3h4.7l-6.4-17h-4.8l-6.6,17h4.7L121.2,150.9z M124.3,142.1L124.3,142.1l1.9,5.4h-3.7L124.3,142.1z"/>
	<polygon points="159.8,150.1 154.5,150.1 154.5,136.8 150.1,136.8 150.1,153.9 159.8,153.9 	"/>
	<path d="M28.3,224.8c1.4,0,2.4-0.3,3.9-0.8v-5.3c-0.9,1.1-2.4,1.8-3.8,1.8c-2.8,0-4.6-1.9-4.6-4.6c0-2.6,1.8-4.7,4.5-4.7
		c1.5,0,3,0.7,3.9,1.9v-5.3c-1.3-0.5-2.6-0.9-4-0.9c-2.4,0-4.8,1-6.5,2.8c-1.6,1.7-2.5,3.9-2.5,6.2c0,2.5,0.9,4.7,2.7,6.4
		C23.6,223.9,25.9,224.8,28.3,224.8z"/>
	<path d="M59.4,215.5c0-5.2-4.5-8.8-9.4-8.8c-4.9,0-9.4,3.6-9.4,8.8c0,5.5,4,9.4,9.4,9.4S59.4,221,59.4,215.5z M49.9,220.6
		c-2.6,0-4.8-2.1-4.8-5.1c0-2.4,2.2-4.5,4.8-4.5c2.6,0,4.8,2.1,4.8,4.5C54.7,218.5,52.6,220.6,49.9,220.6z"/>
	<polygon points="67.6,207.3 67.6,224.3 77.4,224.3 77.4,220.6 72.1,220.6 72.1,207.3 	"/>
	<polygon points="95.8,220.6 90.5,220.6 90.5,207.3 86.1,207.3 86.1,224.3 95.8,224.3 	"/>
	<polygon points="108.9,211 114.2,211 114.2,207.3 104.5,207.3 104.5,224.3 114.2,224.3 114.2,220.6 108.9,220.6 108.9,217.6 
		113.9,217.6 113.9,213.9 108.9,213.9 108.9,211 	"/>
	<path d="M132,214.8v3.5h3.6c-0.2,2-1.6,3-3.6,3c-2.9,0-4.5-2.7-4.5-5.3c0-2.6,1.5-5.4,4.4-5.4c1.8,0,3.1,1.1,3.7,2.7l4.2-1.8
		c-1.5-3.2-4.2-4.8-7.7-4.8c-5.5,0-9.2,3.6-9.2,9.2c0,5.4,3.7,9,9.1,9c2.8,0,5.4-1,7-3.3c1.5-2.1,1.7-4.3,1.7-6.7H132z"/>
	<polygon points="153.9,211 159.1,211 159.1,207.3 149.4,207.3 149.4,224.3 159.1,224.3 159.1,220.6 153.9,220.6 153.9,217.6 
		158.9,217.6 158.9,213.9 153.9,213.9 153.9,211 	"/>
	<path d="M28.6,297.2c5.5,0,9.4-3.9,9.4-9.4c0-5.2-4.5-8.8-9.4-8.8s-9.4,3.6-9.4,8.8C19.1,293.3,23.1,297.2,28.6,297.2z M28.6,283.4
		c2.6,0,4.8,2.1,4.8,4.5c0,2.9-2.2,5.1-4.8,5.1s-4.8-2.1-4.8-5.1C23.7,285.5,25.9,283.4,28.6,283.4z"/>
	<polygon points="53.2,283.4 53.2,279.6 43.4,279.6 43.4,296.7 47.9,296.7 47.9,290 52.7,290 52.7,286.2 47.9,286.2 47.9,283.4 	"/>
	<polygon points="73.8,286.9 73.9,286.9 77.8,296.7 79.5,296.7 83.6,286.9 83.7,286.9 84.9,296.7 89.3,296.7 86.8,279.6 82.4,279.6 
		78.7,288.7 75.2,279.6 70.9,279.6 68,296.7 72.4,296.7 	"/>
	<path d="M102.8,297.1c2,0,4.2-0.5,5.7-1.9c1.7-1.6,1.8-3.8,1.8-6v-9.6h-4.4v9c0,2.2-0.2,4.6-3,4.6s-3-2.4-3-4.6v-9h-4.4v9.6
		c0,2.2,0.1,4.4,1.8,6C98.5,296.6,100.8,297.1,102.8,297.1z"/>
	<path d="M121.9,293.4c-1.5,0-2.8-0.8-3.9-1.8l-1.9,3.6c1.7,1.2,3.8,1.9,6,1.9c1.7,0,3.5-0.5,4.8-1.6c1.4-1.2,1.8-2.9,1.8-4.6
		c0-2.8-1.8-4-4.2-4.7l-1.1-0.3c-0.8-0.2-2-0.6-2-1.6c0-1,1.1-1.4,1.9-1.4c1.1,0,2.1,0.5,2.9,1.1l1.8-3.4c-1.5-0.9-3.6-1.4-5.3-1.4
		c-3.4,0-5.9,2.3-5.9,5.7c0,3.3,1.8,4,4.6,4.8c0.9,0.3,2.7,0.7,2.7,1.9C124.1,292.9,122.9,293.4,121.9,293.4z"/>
	<rect x="135.4" y="279.6" width="4.4" height="17"/>
	<path d="M155.2,283.5c1.5,0,3,0.7,3.9,1.9h0V280c-1.3-0.5-2.6-0.9-4-0.9c-2.4,0-4.8,1-6.5,2.8c-1.6,1.7-2.5,3.9-2.5,6.2
		c0,2.5,0.9,4.7,2.7,6.4c1.8,1.6,4,2.5,6.4,2.5c1.4,0,2.4-0.3,3.9-0.8V291c-0.9,1.1-2.4,1.8-3.8,1.8c-2.8,0-4.6-1.9-4.6-4.6
		C150.7,285.6,152.5,283.5,155.2,283.5z"/>
	<path d="M106.8,32.3c0.2,0,0.4,0.1,0.6,0.2l1.1-2.2l-3.4-1.5c0,0,1.1,0.8,0.7,2.6c-1.3-0.4-1.7-1.6-1.7-1.6l-0.6,1.9l-0.6,1.9
		c0,0,1-0.7,2.3-0.2l0,0c-0.7,1.3-2.1,2-3.5,1.7c-1.2-0.2-2-1.1-2.4-2.2c0.3,0,0.6-0.2,0.7-0.5c0.1-0.4-0.1-0.7-0.5-0.8l-0.1,0
		c0.1-0.5,0.7-0.9,1.2-0.7c0.5,0.1,0.8,0.7,0.7,1.2c0,0.2-0.1,0.3-0.3,0.5c0.6-0.2,1.1-0.6,1.2-1.3c0.2-0.9-0.3-1.8-1.2-2
		c-0.4-0.1-0.8,0-1.1,0.1c0.1-0.2,0.1-0.3,0.1-0.5c0.4-1.9-0.4-3.3-0.4-3.3s-1.4,0.9-1.8,2.7c0,0.2-0.1,0.3-0.1,0.5
		c-0.2-0.3-0.5-0.5-0.9-0.6c-0.9-0.2-1.8,0.4-2,1.3c-0.2,0.7,0.1,1.3,0.5,1.7c-0.1-0.2-0.1-0.4,0-0.5c0.1-0.5,0.7-0.9,1.2-0.8
		c0.5,0.1,0.8,0.6,0.7,1.2l-0.2,0c-0.3-0.1-0.7,0.2-0.8,0.5c-0.1,0.3,0.1,0.7,0.4,0.8c-0.7,0.8-1.7,1.1-2.6,1c-1-0.2-1.8-1-2.2-2.1
		l0-0.1c1.4,0,2.2,0.9,2.2,0.9v-4c0,0-0.8,1-2.2,0.9c0.3-1.9,1.5-2.3,1.5-2.3h-6.2c0,0,1.3,0.4,1.5,2.3c-1.4,0-2.2-0.9-2.2-0.9v4
		c0,0,0.8-1,2.2-0.9l0,0.1c-0.3,1.1-1.1,1.9-2.2,2.1c-1,0.2-1.9-0.2-2.6-1c0.3-0.1,0.5-0.4,0.4-0.8c-0.1-0.4-0.4-0.6-0.8-0.5l-0.2,0
		c-0.1-0.5,0.2-1.1,0.7-1.2c0.5-0.1,1.1,0.2,1.2,0.8c0,0.2,0,0.4,0,0.5c0.5-0.4,0.7-1,0.5-1.7c-0.2-0.9-1.1-1.5-2-1.3
		c-0.4,0.1-0.7,0.3-0.9,0.6c0-0.2,0-0.3-0.1-0.5c-0.4-1.9-1.8-2.7-1.8-2.7s-0.9,1.4-0.4,3.3c0,0.2,0.1,0.3,0.1,0.5
		c-0.3-0.2-0.7-0.2-1.1-0.1c-0.9,0.2-1.4,1.1-1.2,2c0.2,0.6,0.6,1.1,1.2,1.3c-0.1-0.1-0.2-0.3-0.3-0.5c-0.1-0.5,0.2-1.1,0.7-1.2
		c0.5-0.1,1,0.2,1.2,0.7l-0.1,0c-0.4,0.1-0.6,0.4-0.5,0.8c0.1,0.3,0.4,0.5,0.7,0.5c-0.4,1.1-1.2,2-2.4,2.2c-1.4,0.3-2.8-0.5-3.5-1.7
		l0,0c1.3-0.5,2.3,0.2,2.3,0.2l-0.6-1.9l-0.6-1.9c0,0-0.4,1.2-1.7,1.6c-0.4-1.8,0.7-2.6,0.7-2.6l-3.4,1.5l1,2.1
		c0.1,0,0.3-0.1,0.4-0.1c0.6,0,1.1,0.5,1.1,1.1c0,0.4-0.2,0.7-0.5,0.9l1.7,3.4c0.2-0.2,0.3-0.3,0.5-0.4c0.2-0.1,5.2-3,13.9-3h0
		c8.7,0,13.7,2.9,13.9,3c0.2,0.1,0.4,0.3,0.5,0.4l1.7-3.3c-0.4-0.1-0.7-0.5-0.7-1C105.7,32.8,106.2,32.3,106.8,32.3z M90.3,31.3
		c-0.6,0-1.1-0.5-1.1-1.1c0-0.6,0.5-1.1,1.1-1.1c0.6,0,1.1,0.5,1.1,1.1C91.4,30.8,90.9,31.3,90.3,31.3z"/>
	<path d="M79.6,17.7c0.5,0,0.9-0.4,0.9-0.9c0-0.5-0.4-0.9-0.9-0.9c-0.5,0-0.9,0.4-0.9,0.9C78.6,17.3,79.1,17.7,79.6,17.7z"/>
	<path d="M110.5,25.7c0-0.5-0.4-0.9-0.9-0.9c-0.5,0-0.9,0.4-0.9,0.9c0,0.5,0.4,0.9,0.9,0.9C110.1,26.6,110.5,26.2,110.5,25.7z"/>
	<path d="M71.1,24c0.5,0,0.9-0.4,0.9-0.9c0-0.5-0.4-0.9-0.9-0.9c-0.5,0-0.9,0.4-0.9,0.9C70.1,23.6,70.6,24,71.1,24z"/>
	<path d="M72.2,21.4c0.5,0,0.9-0.4,0.9-0.9c0-0.5-0.4-0.9-0.9-0.9c-0.5,0-0.9,0.4-0.9,0.9C71.2,21,71.6,21.4,72.2,21.4z"/>
	<path d="M74.1,19.3c0.5,0,0.9-0.4,0.9-0.9c0-0.5-0.4-0.9-0.9-0.9c-0.5,0-0.9,0.4-0.9,0.9C73.2,18.8,73.6,19.3,74.1,19.3z"/>
	<path d="M71.1,26.6c0.5,0,0.9-0.4,0.9-0.9c0-0.5-0.4-0.9-0.9-0.9c-0.5,0-0.9,0.4-0.9,0.9C70.1,26.2,70.6,26.6,71.1,26.6z"/>
	<path d="M86.4,67.7c0.1,0.5,0.2,1,0.3,1.5c0.4,0,0.9,0.4,0.9,0.4c0-1,0.1-1.7-0.2-2.7C86.8,67,86.6,67.4,86.4,67.7z"/>
	<path d="M84,67.5c0.7,0.6,1.1,1.4,1.5,2.9c0-0.5,0.5-1,0.5-1c-0.4-1.6-0.8-2.6-1-3.2C84.7,66.7,84.4,67.2,84,67.5z"/>
	<path d="M90.2,74.7c-2.6,0-5.5,0.6-5.7,0.8c-0.2,0.2-0.2,0.4,0,0.6c0.1,0.1,0.3,0.2,0.4,0.1c0.3-0.1,2.8-0.7,5.3-0.7h0
		c2.5,0,5,0.6,5.3,0.7c0.1,0,0.1,0,0.2,0c0.1,0,0.2,0,0.3-0.1c0.2-0.2,0.1-0.4,0-0.6C95.7,75.4,92.8,74.7,90.2,74.7L90.2,74.7z"/>
	<path d="M86.9,65.3c-0.6,0.3-0.8,0.7-0.9,1c0.1,0.4,0.3,0.8,0.4,1.3c0.1-0.2,0.3-0.9,0.9-1.2c-0.1-0.3-0.2-0.5-0.2-0.7L86.9,65.3z"
		/>
	<path d="M96.8,72.5c0.1,0,0.1,0,0.2,0l0.4-0.8L96,71.1c0,0,0.4,0.3,0.3,1c-0.5-0.2-0.7-0.6-0.7-0.6l-0.3,0.7L95.1,73
		c0,0,0.4-0.3,0.9-0.1l0,0c-0.3,0.5-0.8,0.8-1.4,0.7c-0.5-0.1-0.7-0.4-0.8-0.8c0.1,0,0.2-0.1,0.3-0.2c0-0.1-0.1-0.3-0.2-0.3l0,0
		c0.1-0.2,0.3-0.3,0.5-0.3c0.2,0,0.3,0.3,0.3,0.5c0,0.1-0.1,0.1-0.1,0.2c0.2-0.1,0.4-0.2,0.5-0.5c0.1-0.4-0.1-0.7-0.5-0.8
		c-0.1,0-0.3,0-0.4,0.1c0-0.1,0-0.1,0.1-0.2c0.2-0.7-0.2-1.3-0.2-1.3s-0.6,0.3-0.7,1.1c0,0.1,0,0.1,0,0.2c-0.1-0.1-0.2-0.2-0.4-0.2
		c-0.3-0.1-0.7,0.1-0.8,0.5c-0.1,0.3,0,0.5,0.2,0.7c0-0.1,0-0.1,0-0.2c0-0.2,0.3-0.4,0.5-0.3c0.2,0,0.3,0.3,0.3,0.5L93,72
		c-0.1,0-0.3,0.1-0.3,0.2c0,0.1,0,0.3,0.1,0.3c-0.3,0.3-0.7,0.4-1.1,0.3c-0.6-0.1-1-0.6-1-1.5c1,0,1.1,0.5,1.1,0.5v-2
		c0,0-0.2,0.5-1.1,0.5c0-0.9,0.5-1.2,0.5-1.2h-1.9c0,0,0.5,0.3,0.5,1.2c-1,0-1.1-0.5-1.1-0.5v2c0,0,0.2-0.5,1.1-0.5
		c0,0.9-0.5,1.4-1,1.5c-0.4,0.1-0.9,0-1.1-0.3c0.1,0,0.2-0.2,0.1-0.3c0-0.1-0.2-0.2-0.3-0.2l-0.1,0c0-0.2,0.1-0.4,0.3-0.5
		c0.2,0,0.4,0.1,0.5,0.3c0,0.1,0,0.1,0,0.2c0.2-0.2,0.3-0.4,0.2-0.7c-0.1-0.4-0.4-0.6-0.8-0.5c-0.2,0-0.3,0.1-0.4,0.2
		c0-0.1,0-0.1,0-0.2c-0.2-0.7-0.7-1.1-0.7-1.1s-0.3,0.5-0.2,1.3c0,0.1,0,0.1,0.1,0.2c-0.1-0.1-0.3-0.1-0.4-0.1
		c-0.3,0.1-0.6,0.4-0.5,0.8c0.1,0.3,0.3,0.4,0.5,0.5c0,0-0.1-0.1-0.1-0.2c-0.1-0.2,0.1-0.4,0.3-0.5c0.2,0,0.4,0.1,0.5,0.3l0,0
		c-0.1,0-0.2,0.2-0.2,0.3c0,0.1,0.1,0.2,0.3,0.2c-0.1,0.4-0.4,0.7-0.8,0.8c-0.5,0.1-1.1-0.2-1.4-0.7l0,0c0.5-0.2,0.9,0.1,0.9,0.1
		l-0.3-0.7l-0.3-0.7c0,0-0.2,0.5-0.7,0.6c-0.1-0.7,0.3-1,0.3-1l-1.3,0.6l0.4,0.8c0,0,0.1,0,0.2,0c0.2,0,0.4,0.2,0.4,0.4
		c0,0.2-0.1,0.3-0.2,0.4l0.7,1.6c0,0,2.9-0.8,5.7-0.8c2.8,0,5.6,0.7,5.7,0.8l0.7-1.6c-0.1-0.1-0.2-0.2-0.2-0.4
		C96.4,72.7,96.5,72.5,96.8,72.5z M90.2,71.3c-0.2,0-0.4-0.2-0.4-0.4c0-0.2,0.2-0.4,0.4-0.4c0.2,0,0.4,0.2,0.4,0.4
		C90.6,71.2,90.4,71.3,90.2,71.3z"/>
	<path d="M89.3,64.4c0,0,0-0.1-0.1-0.2L89.2,64l0-0.2c0,0,0-0.1-0.1-0.1c-0.1-0.1-0.3-0.2-0.4-0.3l-0.2-0.1c0.1,0.4,0.2,0.8,0.3,1.4
		c0.7,0.3,1,0.9,1.1,1.2c0-0.7-0.1-1.2,0-1.2C89.6,64.7,89.4,64.6,89.3,64.4z"/>
	<path d="M95.6,64.9c0.3,2,1.4,2.5,2,2.7c0.8,1.1,2.3,1.9,3.5,1.9c0.3,0,0.5,0,0.8-0.1c0.1,0,0.1-0.1,0.2-0.1
		c0.1-0.1,0.1-0.1,0.1-0.2l0.1-0.2l0-0.2l0-0.1l0-0.1l-0.1-0.2l-0.2-0.1l0,0l-0.1-0.1c0-0.1,0-0.2,0.1-0.2c0.1-0.1,0.1-0.1,0.2-0.2
		c0.4-0.3,0.9-0.8,1-1.5c0.5-0.3,0.9-0.7,1.1-1.2c0.2-0.6,0.2-1.2,0-1.8c0.1-0.5,0.1-1.2-0.3-1.8c-0.3-0.5-0.9-0.9-1.6-0.9
		c-0.1,0-0.2,0-0.3,0c-0.4,0-0.8,0.1-1.1,0.3c-0.4-0.4-1-0.9-1.9-1.1c-0.2,0-0.4-0.1-0.6-0.1c-1,0-1.5,0.5-1.7,0.8
		c-0.3,0.1-0.8,0.5-1.1,1.1c-0.4,0.7-0.3,1.7,0.1,2.8C95.5,64.6,95.6,64.7,95.6,64.9z M96.2,62c0.3-0.6,0.8-0.7,0.8-0.7l0.2,0l0-0.1
		c0-0.1,0.2-0.5,1-0.5c0.1,0,0.3,0,0.5,0c0.7,0.1,1.2,0.5,1.4,0.9c0.1,0.1,0.1,0.2,0.2,0.3c0,0.1,0.1,0.2,0.1,0.3
		c0.1,0.2,0.1,0.4,0.1,0.6c0.1,0.4,0,0.9-0.1,1.3c-0.1,0.3-0.1,0.6-0.2,0.8c-0.1,0.2-0.1,0.3-0.2,0.5c-0.1,0.2-0.1,0.5-0.2,0.7
		c0,0.3,0,0.6,0.1,0.8c0,0.1,0.1,0.1,0.1,0.1c0.1-0.1,0.2-0.1,0.1-0.2c-0.1-0.4,0-0.8,0.2-1.2c0.1-0.1,0.1-0.3,0.2-0.4
		c0.1-0.3,0.3-0.6,0.4-0.9c0.2-0.5,0.3-1,0.3-1.5c0-0.3,0-0.5,0-0.8c0-0.1,0-0.2-0.1-0.3c0.2-0.1,0.3-0.1,0.5-0.1c0.1,0,0.2,0,0.3,0
		c0.4,0,0.7,0.2,0.9,0.5c0.1,0.1,0.2,0.3,0.2,0.5c-0.4-0.2-0.7-0.2-0.7-0.2c-0.1,0-0.2,0-0.2,0.1c-0.1,0.1-0.1,0.1-0.1,0.2
		c0,0.2,0.1,0.3,0.3,0.3c0,0,0.5,0,0.8,0.7c0.1,0.4,0.2,0.8,0,1.1c-0.1,0.3-0.3,0.5-0.6,0.7c-0.1-0.3-0.3-0.6-0.5-0.8
		c-0.1-0.1-0.1-0.1-0.2-0.1c-0.1,0-0.2,0-0.2,0.1c-0.1,0.1-0.1,0.3,0,0.4c0.2,0.2,0.3,0.4,0.4,0.7c0.2,0.6-0.1,0.9-0.6,1.3
		c-0.1,0.1-0.2,0.2-0.3,0.3c-0.3,0.3-0.4,0.7-0.3,1.1l0,0l0,0.1c-0.8-0.1-1.7-0.5-2.3-1.1c-0.2-0.2-0.4-0.5-0.5-0.7
		c-0.5-1.1,0.2-1.8,0.2-1.8c0.1-0.1,0.1-0.3,0-0.4c-0.1-0.1-0.1-0.1-0.2-0.1c-0.1,0-0.1,0-0.2,0.1c-0.1,0.1-0.3,0.3-0.4,0.5
		l-0.1,0.1c0,0.1-0.1,0.1-0.1,0.2c0,0.1-0.1,0.2-0.1,0.3c0,0.1,0,0.2,0,0.3c0,0.1,0,0.3,0,0.4l0,0.1l-0.1,0.1
		c-0.4-0.3-0.7-0.9-0.8-1.7c-0.1-0.6,0-1.1,0.3-1.4c0.4-0.6,1.2-0.8,1.3-0.8c0.2,0,0.3-0.2,0.3-0.4c0-0.2-0.2-0.3-0.3-0.3
		c-0.1,0-1.2,0.2-1.8,1.1l0,0.1l-0.1,0C96,62.6,96.1,62.3,96.2,62z"/>
	<path d="M76.8,18c0.5,0,0.9-0.4,0.9-0.9c0-0.5-0.4-0.9-0.9-0.9c-0.5,0-0.9,0.4-0.9,0.9C75.8,17.5,76.2,18,76.8,18z"/>
	<path d="M103.9,18c0.5,0,0.9-0.4,0.9-0.9c0-0.5-0.4-0.9-0.9-0.9c-0.5,0-0.9,0.4-0.9,0.9C103,17.5,103.4,18,103.9,18z"/>
	<path d="M95.7,19.1c0.5,0,0.9-0.4,0.9-0.9c0-0.5-0.4-0.9-0.9-0.9c-0.5,0-0.9,0.4-0.9,0.9C94.7,18.6,95.2,19.1,95.7,19.1z"/>
	<path d="M82.4,18.4c0.5,0,0.9-0.4,0.9-0.9c0-0.5-0.4-0.9-0.9-0.9c-0.5,0-0.9,0.4-0.9,0.9C81.4,18,81.8,18.4,82.4,18.4z"/>
	<path d="M98.3,18.4c0.5,0,0.9-0.4,0.9-0.9c0-0.5-0.4-0.9-0.9-0.9c-0.5,0-0.9,0.4-0.9,0.9C97.4,18,97.8,18.4,98.3,18.4z"/>
	<path d="M101.1,17.7c0.5,0,0.9-0.4,0.9-0.9c0-0.5-0.4-0.9-0.9-0.9c-0.5,0-0.9,0.4-0.9,0.9C100.1,17.3,100.6,17.7,101.1,17.7z"/>
	<path d="M106.5,19.3c0.5,0,0.9-0.4,0.9-0.9c0-0.5-0.4-0.9-0.9-0.9c-0.5,0-0.9,0.4-0.9,0.9C105.6,18.8,106,19.3,106.5,19.3z"/>
	<path d="M108.5,21.4c0.5,0,0.9-0.4,0.9-0.9c0-0.5-0.4-0.9-0.9-0.9c-0.5,0-0.9,0.4-0.9,0.9C107.6,21,108,21.4,108.5,21.4z"/>
	<path d="M108.7,23c0,0.5,0.4,0.9,0.9,0.9c0.5,0,0.9-0.4,0.9-0.9c0-0.5-0.4-0.9-0.9-0.9C109.1,22.1,108.7,22.5,108.7,23z"/>
	<path d="M110,28.4c0-0.5-0.4-0.9-0.9-0.9c-0.5,0-0.9,0.4-0.9,0.9c0,0.5,0.4,0.9,0.9,0.9C109.6,29.4,110,29,110,28.4z"/>
	<path d="M103.2,24.3c-1.5-0.1-2,0-2.6-0.5l-0.2-0.1c-0.9-0.9-2.1-1.5-4-0.8c-0.7,0.3-1.3,0.6-1.7,0.8c-0.6,0.3-1.3,0.7-1.7,0.7
		l0,1.1c0.8,0,1.4-0.3,2.1-0.7c0.5-0.2,1-0.5,1.6-0.7c1.4-0.5,2.7,0,3.2,0.5l0.1,0.1c0.7,0.7,1.2,0.7,3.2,0.8
		c1.3,0.1,2.3,2.4,2.3,2.4l1.6,0.8c0,0,0-0.1,0-0.1c1.2-2.8,1.1-5.4-0.3-7.6c-1.7-2.7-5.4-3.2-8-2.2c-2,0.7-4,1.2-6,1.3v1.7
		c2.2-0.2,4.5-0.7,6.7-1.5c1.8-0.7,4.4-0.3,5.6,1.4c0.8,1.3,1.2,2.9,0.8,4.7C105.6,25.5,104.6,24.4,103.2,24.3z"/>
	<path d="M86.8,16.5c0,1.3,0.7,2.4,1.7,3v6h0.9c0-0.5,0.4-0.9,0.9-0.9c0.5,0,0.9,0.4,0.9,0.9h0.9v-6c1-0.6,1.7-1.7,1.7-3
		c0-1.6-1.1-2.9-2.5-3.4c0.1-0.1,0.2-0.3,0.2-0.5c0-0.2-0.2-0.5-0.4-0.5h0c1.4-0.2,2,0.7,2,0.7V9.8c0,0-0.6,1-2,0.7l0,0
		c-0.2-1.4,0.7-2,0.7-2h-3.1c0,0,0.9,0.7,0.7,2l0,0c-1.4,0.2-2-0.7-2-0.7v3.2c0,0,0.7-1,2-0.7h0c-0.2,0.1-0.4,0.3-0.4,0.5
		c0,0.2,0.1,0.4,0.2,0.5C87.9,13.6,86.8,14.9,86.8,16.5z M90.3,23.6c-0.5,0-0.9-0.4-0.9-0.9s0.4-0.9,0.9-0.9c0.5,0,0.9,0.4,0.9,0.9
		S90.8,23.6,90.3,23.6z M89.5,19.9C89.8,20,90,20,90.3,20h0c0.3,0,0.6,0,0.8-0.1c0,0.5-0.4,0.8-0.8,0.8
		C89.9,20.7,89.5,20.4,89.5,19.9z M90.3,18.9L90.3,18.9c-1.2,0-2.1-0.8-2.3-1.9h4.6C92.4,18.1,91.5,18.9,90.3,18.9z M92.6,16.1h-1.9
		v-1.9C91.7,14.4,92.5,15.1,92.6,16.1z M90.3,10.7c0.4,0,0.7,0.3,0.7,0.7c0,0.4-0.3,0.7-0.7,0.7c-0.4,0-0.7-0.3-0.7-0.7
		C89.6,11,89.9,10.7,90.3,10.7z M89.9,14.2v1.9H88C88.2,15.2,88.9,14.4,89.9,14.2z"/>
	<path d="M96.4,40.2c0.9,0,1.6-0.6,1.6-1.3c0-0.7-0.7-1.3-1.6-1.3c-0.9,0-1.6,0.6-1.6,1.3C94.8,39.6,95.5,40.2,96.4,40.2z"/>
	<path d="M90.2,39.7c0.9,0,1.6-0.6,1.6-1.3c0-0.7-0.7-1.3-1.6-1.3c-0.9,0-1.6,0.6-1.6,1.3C88.6,39.1,89.3,39.7,90.2,39.7z"/>
	<path d="M85,19.1c0.5,0,0.9-0.4,0.9-0.9c0-0.5-0.4-0.9-0.9-0.9c-0.5,0-0.9,0.4-0.9,0.9C84.1,18.6,84.5,19.1,85,19.1z"/>
	<path d="M75.8,43.7c0.3,1.2,1.4,1.9,2.6,1.4c0.6-0.2,5.6-2.8,11.8-2.8c6.2,0,11.3,2.5,11.8,2.8c0.3,0.1,0.5,0.2,0.8,0.2
		c0.9,0,1.6-0.6,1.8-1.5c0.2-0.8-0.1-1.6-0.7-2.1c0.3-0.3,0.6-0.7,0.7-1.1c0.2-1-0.2-2-1.1-2.4c-4.9-2.2-9.9-2.7-13.3-2.7
		c-3.4,0-8.4,0.5-13.3,2.7c-0.8,0.4-1.3,1.3-1.1,2.3c0.1,0.5,0.3,0.9,0.7,1.1C75.9,42.1,75.6,42.9,75.8,43.7z M77.2,40.8
		c-0.2-0.1-0.3-0.3-0.3-0.6c-0.1-0.5,0.1-1,0.5-1.2c4.7-2.2,9.6-2.6,12.9-2.6c3.3,0,8.2,0.5,12.9,2.6c0.4,0.2,0.7,0.7,0.5,1.2
		c-0.1,0.2-0.2,0.4-0.3,0.6l-1,0.8l1,0.8c0.3,0.2,0.4,0.7,0.3,1.1c-0.1,0.4-0.4,0.7-0.8,0.7c-0.1,0-0.3,0-0.4-0.1l-0.2-0.1
		c-5-2.3-9.3-2.7-12-2.7c-2.7,0-7,0.5-12,2.7L78,44.1c-0.1,0.1-0.3,0.1-0.4,0.1c-0.4,0-0.7-0.3-0.8-0.7c-0.1-0.4,0-0.8,0.3-1.1
		l1-0.8L77.2,40.8z"/>
	<path d="M80.9,20.4c2.2,0.8,4.4,1.3,6.7,1.5v-1.7c-2-0.2-4-0.6-6-1.3c-2.6-0.9-6.2-0.5-8,2.2c-1.4,2.2-1.5,4.8-0.3,7.6
		c0,0,0,0.1,0,0.1l1.6-0.8c0,0,0.9-2.3,2.3-2.4c1.9-0.1,2.4-0.1,3.2-0.8l0.1-0.1c0.5-0.5,1.8-1,3.2-0.5c0.7,0.2,1.2,0.5,1.6,0.7
		c0.7,0.4,1.4,0.7,2.1,0.7l0-1.1c-0.4,0-1.1-0.4-1.7-0.7c-0.5-0.2-1-0.5-1.7-0.8c-1.9-0.7-3.1-0.1-4,0.8L80,23.9
		c-0.5,0.5-1.1,0.4-2.6,0.5c-1.4,0.1-2.3,1.2-2.9,2.2c-0.4-1.7,0-3.4,0.8-4.7C76.5,20.1,79,19.7,80.9,20.4z"/>
	<path d="M71.6,27.5c-0.5,0-0.9,0.4-0.9,0.9c0,0.5,0.4,0.9,0.9,0.9c0.5,0,0.9-0.4,0.9-0.9C72.6,27.9,72.1,27.5,71.6,27.5z"/>
	<path d="M84,40.2c0.9,0,1.6-0.6,1.6-1.3c0-0.7-0.7-1.3-1.6-1.3c-0.9,0-1.6,0.6-1.6,1.3C82.4,39.6,83.2,40.2,84,40.2z"/>
	<path d="M91.2,92.5c-0.6,0-1,0.5-1,1.1c0,0.6,0.5,1,1.1,1c0.6,0,1-0.5,1-1.1C92.3,93,91.8,92.5,91.2,92.5z"/>
	<polygon points="109.4,69.1 110.3,69 110.2,67.8 110.9,67.7 111,68.9 111.9,68.9 111.8,67.7 112.5,67.6 112.6,68.9 113.5,68.8 
		113.4,66.5 109.2,66.7 	"/>
	<path d="M108.7,64.3l1.3-0.3l0.1,0.6c0.2,0.9,0.8,1.3,1.7,1.1c0.9-0.2,1.2-0.9,1-1.8l-0.4-1.6l-4,1L108.7,64.3z M111.9,63.5l0,0.2
		c0.1,0.4,0.2,0.8-0.3,0.9c-0.5,0.1-0.6-0.3-0.7-0.6l0-0.2L111.9,63.5z"/>
	<polygon points="109.3,70.8 111.8,71.2 111.8,71.2 109,72.8 108.9,73.8 113,74.4 113.1,73.3 110.6,73 110.6,73 113.4,71.4 
		113.5,70.3 109.5,69.7 	"/>
	<polygon points="107,59.9 108.7,58.9 111.3,59.2 110.7,58.1 109.3,58 109.9,56.7 109.3,55.6 108.2,58 106.5,59 	"/>
	<path d="M111.3,75.4c-0.7-0.3-1.1,0.1-1.5,0.6c-0.1,0.2-0.4,0.6-0.7,0.4c-0.3-0.1-0.3-0.4-0.2-0.6c0.1-0.3,0.4-0.6,0.7-0.7
		l-0.7-0.7c-0.4,0.3-0.8,0.7-0.9,1.2c-0.1,0.4-0.2,0.8,0,1.2c0.1,0.4,0.5,0.6,0.9,0.8c0.6,0.2,1-0.1,1.4-0.6l0.2-0.2
		c0.1-0.2,0.3-0.4,0.5-0.3c0.2,0.1,0.2,0.4,0.2,0.5c-0.1,0.2-0.3,0.4-0.5,0.6l0.6,0.7c0.3-0.3,0.6-0.7,0.8-1.1
		C112.4,76.4,112.1,75.7,111.3,75.4z"/>
	<polygon points="104.5,56.3 105.2,55.7 104.2,54.8 106.5,52.5 105.7,51.8 102.8,54.7 	"/>
	<path d="M100,52.7l0.6-0.4l1.2,0.8l-0.2,0.7l0.9,0.6l1-4.3l-1-0.6L99.1,52L100,52.7z M102.4,50.9L102.4,50.9l-0.4,1.3l-0.7-0.5
		L102.4,50.9z"/>
	<path d="M90,99.1c-0.6,0-1,0.5-1,1c0,0.6,0.5,1,1,1c0.6,0,1-0.5,1-1C91,99.6,90.5,99.1,90,99.1z"/>
	<path d="M87.3,91c-0.6,0-1,0.5-1,1.1c0,0.6,0.5,1,1.1,1c0.6,0,1-0.5,1-1.1C88.3,91.5,87.9,91,87.3,91z"/>
	<path d="M95.5,93.4c-0.6,0-1,0.5-1,1.1c0,0.6,0.5,1,1,1c0.6,0,1-0.5,1-1.1C96.5,93.9,96.1,93.4,95.5,93.4z"/>
	<path d="M98.2,87.7c-0.6,0-1,0.5-1,1c0,0.6,0.5,1,1,1c0.6,0,1-0.5,1-1C99.3,88.2,98.8,87.7,98.2,87.7z"/>
	<polygon points="106.3,79.6 107.1,80.1 107.7,79 108.3,79.3 107.7,80.4 108.5,80.8 109.1,79.8 109.7,80.1 109.1,81.2 109.8,81.7 
		111,79.6 107.4,77.6 	"/>
	<path d="M102.4,85.7c-0.6,0-1,0.5-1,1c0,0.6,0.5,1,1,1c0.6,0,1-0.5,1-1C103.4,86.2,102.9,85.7,102.4,85.7z"/>
	<polygon points="73.6,78.7 72.1,79.4 71.4,78.1 72.9,77.3 72.4,76.4 68.8,78.3 69.3,79.2 70.7,78.5 71.4,79.8 70,80.6 70.5,81.5 
		74.1,79.6 	"/>
	<path d="M76.4,90.9c0.2,1.3,0.9,2.3,2,3c1.1,0.6,2.4,0.7,3.6,0.2c1.3,0.7,2.5,1.2,3.7,1.7c0,0.4-0.1,0.9-0.2,1.2
		c-0.4,1.9-1.1,3.4-2.3,4.4l-0.4,0.4l0.1,0.6c0.2,1.8,1.7,3.1,3.7,3.2c0,0,0,0,0,0c0,0.2,0,0.4,0,0.6c0,1.9,1.6,3.4,3.5,3.5l0.2,0
		c1,0,1.9-0.4,2.5-1c0.7-0.7,1.1-1.6,1.1-2.5c0-0.2,0-0.4-0.1-0.6c0,0,0,0,0,0c1.9,0,3.5-1.5,3.6-3.3l0-0.6l-0.4-0.4
		c-0.8-0.7-1.4-1.6-1.8-2.6c0-0.1-0.1-0.3-0.1-0.5c0.2,0,0.3,0,0.4,0h0c2,0,3.2-1.3,4.2-2.2c0.5-0.4,0.9-0.9,1.3-1
		c0.2-0.1,0.4-0.2,0.7-0.3c1.4-0.5,3.5-1.4,4-4.8c6.3-4.7,10.5-12.2,10.5-20.7c0-14.2-11.5-25.8-25.8-25.8S64.4,54.9,64.4,69.1
		C64.4,78.3,69.2,86.3,76.4,90.9z M80.4,92.8c-0.4,0-0.9-0.1-1.2-0.3c-1.2-0.7-1.6-2.3-1.2-3.9l1.4,1c0.3,0.2,0.6,0.3,0.9,0.3
		c0.5,0,0.9-0.2,1.2-0.6c0.2-0.3,0.3-0.7,0.3-1.1c-0.1-0.4-0.3-0.7-0.6-1l-1.6-1.2c0.7-0.7,1.6-1.1,2.5-1.1c0.4,0,0.9,0.1,1.2,0.3
		c0.7,0.4,1.1,1.1,1.3,2c0.2,1,0,2.1-0.6,3.1C83.1,91.9,81.7,92.8,80.4,92.8z M75.9,86c-0.1-0.1-0.2-0.2-0.2-0.4
		c0-0.2,0-0.3,0.1-0.4c0.1-0.2,0.3-0.2,0.5-0.2c0.1,0,0.3,0,0.4,0.1l4,3c0.1,0.1,0.2,0.2,0.2,0.4s0,0.3-0.1,0.4
		c-0.2,0.3-0.6,0.3-0.8,0.1L75.9,86z M90.1,84.4c-0.2,0-0.5,0-0.8-0.1c-0.4,0-0.8-0.1-1.1-0.1c-0.4,0-1.8-0.1-2.5,1
		c-0.1,0.1-0.1,0.2-0.2,0.2c-0.3-0.6-0.8-1.1-1.4-1.4c-0.8-0.5-1.8-0.6-2.8-0.5c-4.8-3-8-8.3-8-14.4c0-9.4,7.6-17,17-17
		c9.4,0,17,7.6,17,17c0,6.5-3.6,12.1-8.9,14.9c-0.6-0.4-1.7-0.7-2.9-0.4C93.4,84.1,90.9,84.4,90.1,84.4z M94.3,85.1
		c-0.1,0.2-0.2,0.4-0.3,0.6c0,0.1-0.1,0.2-0.1,0.3c0,0.1-0.1,0.2-0.1,0.3c-0.1,0.2-0.1,0.4-0.2,0.5c0,0,0,0,0,0c-0.3,1-0.4,2-0.5,3
		c-2.8-0.7-5.2-1.9-6.8-2.8c0-0.5,0.1-0.9,0.3-1.1c0.2-0.3,0.6-0.5,1.3-0.5c0.4,0,0.8,0,1.2,0.1c0.4,0,0.7,0.1,0.9,0.1
		c0.3,0,0.6,0,0.9,0C91.9,85.6,92.9,85.6,94.3,85.1z M96.1,102.2c-0.1,1.2-1.1,2.1-2.4,2.1c-0.3,0-0.6-0.1-0.9-0.2
		c-0.1,0-0.1,0-0.2,0c-0.2,0-0.3,0.1-0.4,0.2c-0.2,0.2-0.2,0.4,0,0.6c0.3,0.4,0.4,0.8,0.4,1.2c0,0.6-0.2,1.1-0.6,1.6
		c-0.5,0.5-1.1,0.7-1.7,0.7h0c-1.3,0-2.4-1-2.4-2.3c0-0.4,0.1-0.9,0.4-1.2c0.1-0.2,0.1-0.5-0.1-0.6c-0.1-0.1-0.3-0.2-0.4-0.2
		c-0.1,0-0.2,0-0.2,0c-0.3,0.1-0.6,0.2-0.9,0.2c-1.2,0-2.3-0.9-2.4-2c1.3-1.2,2.2-2.9,2.6-5.1c0.1-0.3,0.2-0.7,0.2-1
		c2.8,1.1,5.2,1.6,6.8,1.8c0.1,0.4,0.2,0.7,0.2,1C94.4,100.3,95.1,101.4,96.1,102.2z M101.2,93.7c-0.3,0.1-0.5,0.2-0.8,0.3
		c-0.5,0.3-1,0.7-1.5,1.2c-1,0.9-2,1.9-3.5,1.9h0c-0.2,0-0.4,0-0.6,0c-0.4,0-0.8-0.1-1.3-0.1c-1.6-0.2-3.9-0.8-6.6-1.8
		c-0.3-0.1-0.6-0.3-1-0.4c-0.9-0.4-1.8-0.8-2.8-1.3c0.8-0.5,1.6-1.3,2.1-2.3c0.6-1,0.9-2.1,0.9-3.1c2.7,1.5,7,3.4,12.1,3.3
		c2.1,0,4.2-0.4,6.2-1.2C103.9,92.6,102.5,93.2,101.2,93.7z M90.2,44.4c13.6,0,24.8,11.1,24.8,24.8c0,8.1-3.9,15.3-10,19.8l-0.1,0.1
		c-2.2,0.9-4.4,1.4-6.7,1.4c-1.3,0-2.6-0.1-3.8-0.3c0.1-1.2,0.3-2.5,0.7-3.6c7.6-2.1,13.2-9.1,13.2-17.4c0-10-8.1-18-18.1-18
		c-10,0-18,8.1-18,18c0,6.1,3.1,11.6,7.8,14.8c-0.6,0.3-1.2,0.7-1.7,1.2l-1.1-0.8c-0.6-0.5-1.6-0.3-2,0.3c-0.2,0.3-0.3,0.7-0.3,1.1
		c0.1,0.4,0.3,0.7,0.6,1l1.3,1c-0.2,0.6-0.4,1.3-0.4,1.9c-6.5-4.5-10.8-11.9-10.8-20.4C65.5,55.5,76.6,44.4,90.2,44.4z"/>
	<path d="M71.7,58.5c1.1,0.8,2.4,0.6,3.2-0.5c0.8-1.1,0.6-2.4-0.5-3.2c-1-0.7-2.4-0.4-3.1,0.6C70.6,56.3,70.7,57.7,71.7,58.5z
		 M72.2,56c0.4-0.5,1.1-0.6,1.6-0.3c0.6,0.4,0.7,1.1,0.3,1.7c-0.4,0.5-1.1,0.6-1.7,0.2C71.9,57.2,71.8,56.5,72.2,56z"/>
	<rect x="68.9" y="63.2" transform="matrix(0.1807 -0.9835 0.9835 0.1807 -7.3718 121.7441)" width="1.1" height="4.1"/>
	<path d="M69.6,61.5c0.7,0.3,1.1,0,1.5-0.5c0.2-0.2,0.4-0.5,0.7-0.4c0.3,0.1,0.3,0.4,0.2,0.6c-0.1,0.3-0.5,0.5-0.8,0.7l0.6,0.8
		c0.4-0.3,0.8-0.7,1-1.1c0.2-0.4,0.2-0.8,0.1-1.2c-0.1-0.4-0.5-0.7-0.8-0.8c-0.6-0.3-1.1,0-1.4,0.5l-0.2,0.2
		c-0.1,0.1-0.3,0.4-0.6,0.3c-0.2-0.1-0.2-0.4-0.1-0.6c0.1-0.2,0.3-0.4,0.5-0.5l-0.6-0.7c-0.3,0.3-0.7,0.7-0.8,1
		C68.6,60.4,68.8,61.2,69.6,61.5z"/>
	<path d="M70.1,76.4c1.3-0.3,2-1.5,1.7-2.8c-0.3-1.3-1.5-2-2.7-1.7c-1.2,0.3-1.8,1.6-1.5,2.7C67.8,75.9,68.9,76.7,70.1,76.4z
		 M68.5,74.5c-0.2-0.6,0.2-1.3,0.8-1.4c0.7-0.2,1.3,0.2,1.5,0.8c0.2,0.6-0.2,1.3-0.9,1.4C69.3,75.5,68.7,75.1,68.5,74.5z"/>
	<polygon points="71.1,70 68.6,69.9 68.6,69.9 71.1,68 71.1,66.9 67,66.9 67,68 69.5,68 69.5,68 67,69.9 67,71 71.1,71 	"/>
	<polygon points="96.2,48.4 96.2,48.4 96.3,51 96.7,51.1 98.4,49.2 98.4,49.2 97.9,51.6 98.9,51.9 99.7,47.8 98.7,47.5 97.1,49.2 
		97.1,46.9 96.1,46.6 94.1,50.2 95.1,50.6 	"/>
	
		<rect x="89.2" y="47.4" transform="matrix(5.109798e-02 -0.9987 0.9987 5.109798e-02 38.7295 136.7051)" width="4.1" height="1.1"/>
	<path d="M86.8,49.9c0.4,0.3,0.9,0.4,1.4,0.3c0.5-0.1,1-0.2,1.3-0.6c0.4-0.4,0.3-1,0.3-1.5l-0.3-2.3l-1.1,0.1l0.2,2.2
		c0.1,0.5,0.1,1.1-0.6,1.2c-0.7,0.1-0.8-0.5-0.8-1L87,46.1l-1.1,0.1l0.3,2.3C86.2,49,86.3,49.6,86.8,49.9z"/>
	<path d="M83.8,51.3c0.4-0.1,0.7-0.3,1-0.6l0.4,0.3l0.9-0.5L85.2,50c0.2-0.5,0.2-1,0-1.5c-0.5-1.3-1.7-1.7-2.9-1.3
		c-1.1,0.4-1.8,1.6-1.4,2.8C81.3,51.1,82.6,51.7,83.8,51.3z M82.7,48.1c0.6-0.2,1.3,0.1,1.5,0.7c0.1,0.2,0.1,0.4,0,0.6l-0.4-0.2
		l-0.9,0.5l0.8,0.4c-0.1,0.1-0.2,0.1-0.3,0.2c-0.6,0.2-1.3-0.1-1.5-0.8C81.7,49,82.1,48.3,82.7,48.1z"/>
	<rect x="75" y="51.8" transform="matrix(0.7194 -0.6946 0.6946 0.7194 -16.2407 67.5818)" width="1.1" height="4.1"/>
	<polygon points="76.4,51.6 78.3,54.2 79.2,53.5 77.2,51 77.9,50.4 77.4,49.7 75.1,51.4 75.7,52.1 	"/>
	<path d="M93.5,65.3l-0.1,0.3c-0.1,0.2-0.2,0.4-0.2,0.7c0.6,0.4,0.8,1,0.9,1.2c0.1-0.4,0.2-0.9,0.4-1.3C94.3,66,94.1,65.7,93.5,65.3
		z"/>
	<path d="M86.9,61.3c0.3,0.8,1,1.5,2,1.7c0.1,0.1,0.3,0.2,0.4,0.3c0.3,0.2,0.3,0.5,0.4,0.7l0,0.1l0.1,0.2l0.2,0.1l0.1,0l0.1,0l0.1,0
		l0.1,0l0.1-0.1l0.1-0.1c0,0,0-0.1,0.1-0.2c0,0,0-0.1,0-0.1c0,0,0-0.4,0.3-0.6c0.2-0.1,0.3-0.2,0.4-0.3c0.9-0.2,1.7-0.8,2-1.7
		c0.9-0.7,1.1-1.9,1.1-2.3c1.1-2.2-0.2-3.3-0.7-3.7c-0.8-1-1.7-1.2-2.3-1.2c-0.6,0-1.1,0.2-1.4,0.3c-0.3-0.2-0.8-0.3-1.4-0.3
		c-0.6,0-1.5,0.2-2.3,1.2c-0.4,0.3-1.7,1.5-0.7,3.7C85.8,59.7,86.1,60.7,86.9,61.3z M87,55.9L87,55.9c0.6-0.7,1.1-1.1,1.8-1.1
		c0.3,0,0.5,0.1,0.8,0.2v0.1c0,0-0.1,0.2-0.1,0.2c0,0.1-0.1,0.3-0.1,0.4c0,0.3,0,0.5,0.1,0.8c0,0.1,0.1,0.2,0.1,0.3
		c0,0.1,0.1,0.2,0.1,0.3c0.1,0.2,0.2,0.3,0.2,0.5c0,0.1,0,0.2,0.1,0.2l0,0.1c0,0,0,0.1,0,0.1c0,0.1,0,0.2,0,0.4l0,0.2
		c0,0.2,0,0.4,0,0.7c0,0.2,0.1,0.5,0.3,0.6l0.1,0l0-0.2c-0.2-0.3-0.1-0.7,0-1l0-0.1c0.1-0.1,0.1-0.3,0.2-0.5c0-0.1,0-0.1,0-0.2
		l0-0.2c0-0.1,0-0.3,0-0.4c0-0.2-0.1-0.4-0.1-0.5l0-0.1c0-0.1,0-0.2-0.1-0.3c0-0.1,0-0.2,0-0.3c0-0.2,0-0.3,0.1-0.4
		c0-0.1,0-0.1,0.1-0.3l0.1-0.1c0,0,0-0.1,0.1-0.1c0-0.1,0-0.2,0-0.4c0.3-0.1,0.5-0.2,0.8-0.2c0.6,0,1.2,0.3,1.7,1l0.1,0.1
		c0.1,0,0.8,0.5,0.7,1.6c-0.3-0.6-0.8-1.1-1.4-1.4c0,0-0.1,0-0.1,0c-0.1,0-0.2,0.1-0.3,0.2c0,0.1,0,0.2,0,0.2c0,0.1,0.1,0.1,0.2,0.2
		c0.7,0.3,1.2,1,1.3,1.7c0.1,0.5,0,1.1-0.4,1.6c-0.1-0.6-0.3-1.1-0.6-1.4c-0.1-0.1-0.1-0.1-0.2-0.1c-0.1,0-0.2,0-0.2,0.1
		s-0.1,0.1-0.1,0.2c0,0.1,0,0.2,0.1,0.2c0.4,0.4,0.6,1.4,0.4,1.9c-0.1,0.3-0.3,0.6-0.7,0.8c0.1-0.4,0-0.8-0.2-1.2
		c0-0.1-0.2-0.2-0.3-0.2c0,0-0.1,0-0.1,0c-0.2,0.1-0.2,0.3-0.1,0.4c0.2,0.5,0.4,1.1-0.6,1.7c-0.2,0.1-0.3,0.2-0.5,0.4
		c-0.1-0.2-0.3-0.3-0.4-0.4c-1-0.6-0.8-1.2-0.6-1.7c0.1-0.2,0-0.3-0.1-0.4c0,0-0.1,0-0.1,0c-0.1,0-0.2,0.1-0.3,0.2
		c-0.2,0.4-0.3,0.9-0.2,1.3c-0.3-0.2-0.5-0.5-0.6-0.8c-0.2-0.6-0.1-1.5,0.4-1.9c0.1-0.1,0.1-0.3,0-0.4c-0.1-0.1-0.1-0.1-0.2-0.1
		c-0.1,0-0.2,0-0.2,0.1c-0.3,0.3-0.6,0.8-0.7,1.4c-0.3-0.5-0.4-1.1-0.3-1.6c0.1-0.7,0.6-1.4,1.3-1.7c0.1,0,0.1-0.1,0.2-0.2
		c0-0.1,0-0.2,0-0.2c-0.1-0.1-0.2-0.2-0.3-0.2c0,0-0.1,0-0.1,0c-0.6,0.3-1.1,0.8-1.5,1.4C86.2,56.5,86.9,56,87,55.9z"/>
	<path d="M96.4,67.5c-0.4-0.3-0.7-0.8-1-1.3c-0.2,0.6-0.7,1.6-1,3.2c0,0,0.5,0.5,0.5,1C95.3,68.9,95.8,68,96.4,67.5z"/>
	<path d="M92.8,69.6c0,0,0.5-0.4,0.9-0.4c0.1-0.5,0.2-1.1,0.3-1.5c-0.2-0.3-0.4-0.6-1-0.7C92.7,68,92.7,68.6,92.8,69.6z"/>
	<path d="M93.7,64.8c0.6,0.4,0.8,1.1,0.8,1.4c0.2-0.5,0.4-1,0.7-1.3c0-0.1,0-0.3,0-0.4c-0.3-0.7-0.4-1.4-0.3-2
		C94.4,63.1,94,63.9,93.7,64.8z"/>
	<path d="M76.3,65.1c0.2,0.5,0.6,0.9,1.1,1.2c0.1,0.8,0.6,1.2,1,1.5c0.1,0.1,0.1,0.1,0.2,0.2c0.1,0.1,0.1,0.1,0.1,0.2l-0.1,0.1l0,0
		l-0.2,0.1l-0.1,0.2l0,0.1l0,0.1l0,0.2l0.1,0.2c0,0,0.1,0.1,0.1,0.2c0.1,0,0.1,0.1,0.2,0.1c0.2,0.1,0.5,0.1,0.8,0.1
		c1.3,0,2.7-0.8,3.5-1.9c0.6-0.2,1.6-0.7,2-2.7c0-0.2,0-0.4,0.1-0.5c0.4-1.1,0.5-2,0.1-2.8c-0.3-0.7-0.8-1-1.1-1.1
		c-0.2-0.3-0.7-0.8-1.7-0.8c-0.2,0-0.4,0-0.6,0.1c-1,0.2-1.6,0.7-1.9,1.1c-0.3-0.2-0.7-0.3-1.1-0.3c-0.1,0-0.2,0-0.3,0
		c-0.7,0.1-1.2,0.4-1.6,0.9c-0.4,0.6-0.4,1.3-0.3,1.8C76.1,63.9,76.1,64.6,76.3,65.1z M77.1,63.7c0.3-0.7,0.7-0.7,0.8-0.7
		c0.2,0,0.3-0.1,0.3-0.3c0-0.1,0-0.2-0.1-0.2c-0.1-0.1-0.1-0.1-0.2-0.1c-0.1,0-0.3,0-0.7,0.2c0-0.2,0.1-0.3,0.2-0.5
		c0.2-0.3,0.5-0.5,0.9-0.5c0.1,0,0.2,0,0.3,0c0.2,0,0.3,0,0.5,0.1c0,0.1,0,0.2-0.1,0.3c0,0.3,0,0.5,0,0.8c0,0.5,0.1,1,0.3,1.5
		c0.1,0.3,0.3,0.6,0.4,0.9c0.1,0.1,0.1,0.3,0.2,0.4c0.2,0.4,0.4,0.8,0.2,1.2c0,0.1,0,0.2,0.1,0.2c0.1,0,0.1,0,0.1-0.1
		c0.1-0.2,0.2-0.5,0.1-0.8c0-0.3-0.1-0.5-0.2-0.7c0-0.2-0.1-0.3-0.2-0.5C80.1,64.6,80,64.3,80,64c-0.1-0.4-0.1-0.8-0.1-1.3
		c0-0.2,0.1-0.4,0.1-0.6c0-0.1,0.1-0.2,0.1-0.3c0.1-0.1,0.1-0.2,0.2-0.3c0.3-0.3,0.7-0.7,1.4-0.9c0.2,0,0.3,0,0.5,0
		c0.7,0,1,0.4,1,0.5l0,0.1l0.2,0c0,0,0.6,0.2,0.8,0.7c0.1,0.3,0.2,0.6,0.1,1l-0.1,0l0-0.1c-0.6-0.9-1.7-1-1.8-1.1
		c-0.2,0-0.3,0.1-0.3,0.3c0,0.2,0.1,0.3,0.3,0.4c0.1,0,0.9,0.2,1.3,0.8c0.3,0.4,0.4,0.9,0.3,1.4c-0.1,0.8-0.4,1.4-0.8,1.7l-0.1-0.1
		l0-0.1c0-0.1,0-0.3,0-0.4c0-0.1,0-0.2,0-0.3c0-0.1,0-0.2-0.1-0.3c0-0.1,0-0.2-0.1-0.2L82.9,65c-0.1-0.2-0.3-0.4-0.4-0.5
		c-0.1-0.1-0.1-0.1-0.2-0.1c-0.1,0-0.2,0-0.2,0.1c-0.1,0.1-0.1,0.3,0,0.4c0,0,0.7,0.7,0.2,1.8c-0.1,0.2-0.3,0.5-0.5,0.7
		c-0.6,0.6-1.5,1.1-2.3,1.1l0-0.1l0,0c0.1-0.4,0-0.8-0.3-1.1c-0.1-0.1-0.2-0.2-0.3-0.3c-0.5-0.4-0.8-0.7-0.6-1.3
		c0.1-0.3,0.2-0.5,0.4-0.7c0.1-0.1,0.1-0.3,0-0.4c-0.1-0.1-0.1-0.1-0.2-0.1c-0.1,0-0.2,0-0.2,0.1c-0.2,0.2-0.3,0.5-0.5,0.8
		c-0.3-0.2-0.5-0.4-0.6-0.7C77,64.4,77,64.1,77.1,63.7z"/>
	<path d="M86.8,64.8c-0.3-0.9-0.7-1.7-1.1-2.4c0.1,0.6-0.1,1.3-0.3,2c0,0.1,0,0.3,0,0.4c0.2,0.4,0.5,0.8,0.7,1.3
		C86,65.9,86.1,65.2,86.8,64.8z"/>
	<path d="M90.5,68.7h0.8c0,0.2,0-1,0.1-1.5c-0.3,0-0.7,0.3-0.9,0.7L90.5,68.7z"/>
	<path d="M91.7,64.7c0.1-0.6,0.2-1.1,0.3-1.4l-0.2,0.1c-0.1,0.1-0.2,0.2-0.4,0.3c-0.1,0.1-0.1,0.1-0.1,0.1l0,0.2l-0.1,0.2
		c0,0.1-0.1,0.1-0.1,0.2c-0.1,0.2-0.3,0.4-0.5,0.5c0,0,0,0.5,0,1.2C90.7,65.6,91,65,91.7,64.7z"/>
	<path d="M89.1,68.7h0.8l0-0.8c-0.3-0.5-0.6-0.7-0.9-0.7C89.1,67.6,89.1,68.9,89.1,68.7z"/>
	<path d="M90.5,67.6c0.1-0.3,0.4-0.8,1-1.2c0-0.3,0.1-0.5,0.1-0.8c0-0.1,0-0.3,0.1-0.4c-0.3,0-0.9,0.6-1.1,1
		C90.6,66.7,90.5,67.1,90.5,67.6z"/>
	<path d="M88.7,65.3c0,0.2,0,0.3,0.1,0.4c0,0.2,0.1,0.5,0.1,0.8c0.6,0.3,0.9,0.9,1,1.2c0-0.5,0-1-0.1-1.3
		C89.7,65.9,89.1,65.3,88.7,65.3z"/>
	<path d="M80.2,72.8L80.2,72.8L80.2,72.8c0-0.1,0-0.1,0-0.1c0,0,0-0.1-0.1-0.1l0,0l0,0c-0.5,0.2-1,0.3-1.5,0.5l-0.3,0.1l0,0l0,0
		c0,0.1,0.1,0.1,0.1,0.2l0,0l0,0l0,0c0.1,0,0.3-0.1,0.4-0.1C79.3,73.1,79.7,73,80.2,72.8z"/>
	<path d="M90.7,78.1c0,0,0.3-0.6,0.7-1c0-0.1,0-0.1,0-0.2c-0.2,0.1-0.5,0.3-0.7,0.5c0,0,0.3-0.5,0.6-0.9c0-0.2,0-0.3,0-0.3
		s-0.3,0-0.8,0v5.1c0,0.1-0.1,0.2-0.2,0.2c-0.1,0-0.2-0.1-0.2-0.2v-5.1c-0.3,0-0.6,0-0.8,0c0,0,0,0.1,0,0.3c0.3,0.4,0.6,0.9,0.6,0.9
		c-0.2-0.2-0.5-0.4-0.7-0.5c0,0.1,0,0.1,0,0.2c0.4,0.4,0.7,1,0.7,1c-0.3-0.2-0.5-0.4-0.8-0.5c0,0.1,0,0.3-0.1,0.4
		c-0.1,0.7,0.7,1.2,0.7,1.2s0,1.6,0,2.1c0,0.5,0.6,0.6,0.6,0.6s0.6-0.1,0.6-0.6c0-0.5,0-2.1,0-2.1s0.8-0.5,0.7-1.2
		c0-0.1,0-0.3-0.1-0.4C91.2,77.7,90.9,77.9,90.7,78.1z"/>
	<path d="M101.4,75.1L101.4,75.1L101.4,75.1c0.1-0.3,0.2-0.5,0.3-0.8l0,0l0,0c-0.1,0-0.1-0.1-0.2-0.1l0,0l0,0
		c-0.1,0.2-0.1,0.4-0.2,0.6c-0.2-0.1-0.4-0.2-0.6-0.3c0-0.1,0.1-0.2,0.1-0.2c0-0.1,0.1-0.2,0.1-0.3l0,0l-0.1,0c0,0-0.1,0-0.1-0.1
		l0,0l0,0c-0.1,0.1-0.1,0.2-0.1,0.3c0,0.1-0.1,0.1-0.1,0.2c-0.2-0.1-0.3-0.1-0.5-0.2c0-0.1,0-0.1,0.1-0.2c0-0.1,0.1-0.2,0.1-0.3l0,0
		l-0.1,0c-0.1,0-0.2-0.1-0.2-0.1l0,0l-0.3,0.8l0,0l0,0C100.2,74.6,101.4,75.1,101.4,75.1z"/>
	<path d="M101.2,75.7L101.2,75.7L101.2,75.7c0.1,0,0.1-0.1,0.1-0.1c0,0,0-0.1,0-0.1l0,0l-0.1,0c-0.6-0.3-1.1-0.5-1.9-0.8l0,0l0,0.1
		c0,0,0,0.1,0,0.1l0,0l0,0C100.1,75.2,100.6,75.4,101.2,75.7z"/>
	<path d="M101.9,73.7c-0.4-0.2-0.8-0.3-1.2-0.5c0.7-0.2,1.8-0.7,1.8-0.7l-1.8-0.5c0,0-0.2,0.2-0.2,0.2s1.1,0.3,1.3,0.3
		c-0.2,0.1-1.8,0.7-1.8,0.7s1.3,0.5,1.9,0.7L101.9,73.7z"/>
	<path d="M79,74.8L79,74.8c0.1,0,0.2-0.1,0.3-0.1l0.1,0l-0.1,0c-0.2-0.1-0.3-0.2-0.4-0.3c-0.1-0.1,0-0.3,0.1-0.5
		c0.1-0.2,0.3-0.3,0.5-0.3c0.1,0,0.2,0,0.3,0c0,0,0,0,0,0c0,0,0,0,0,0c0.1,0,0.1,0,0.2,0c0,0,0.1,0,0.1,0l0,0c0,0,0.1,0,0.1,0.1
		c0,0,0.1,0,0.1,0.1c0,0,0.1,0.1,0.1,0.1c0,0,0,0,0,0c0,0,0,0,0,0c0.1,0.1,0,0.3,0,0.4l0,0.1l0.1,0c0.1,0,0.2-0.1,0.3-0.1l0,0v0
		c0.1-0.1,0.1-0.3,0-0.4c0-0.1-0.1-0.2-0.2-0.3c0,0,0,0,0,0l0,0c-0.1-0.1-0.2-0.1-0.3-0.1l0,0c0,0,0,0-0.1,0c-0.3-0.1-0.6-0.1-0.8,0
		c-0.3,0.1-0.5,0.2-0.6,0.5c-0.2,0.2-0.2,0.5-0.1,0.7C78.7,74.6,78.8,74.8,79,74.8L79,74.8z"/>
	<path d="M97.9,80.3c1.8-0.3,3.2-1.8,4.5-4.7c0.1,0.1,0.3,0.3,0.7,0.5c0.3,0.1,0.5,0.2,0.7,0.2c0.2,0,0.3-0.1,0.4-0.1
		c0.1-0.1,0.2-0.2,0.1-0.4c0-0.1-0.2-0.2-0.3-0.2l-0.2,0c-0.1,0-0.1,0-0.2,0c-0.1-0.1-0.2-0.2-0.2-0.3c0-0.3,0.2-0.5,0.6-0.8
		c0.1-0.1,0.2-0.1,0.3-0.2c0.2-0.2,0.4-0.3,0.5-0.5c0.2-0.3,0.3-0.5,0.3-0.9c0.1-0.8-0.3-1.3-0.8-1.4c-0.1,0-0.2,0-0.3,0
		c-1-0.1-2.7-0.6-2.8-0.6c-0.3,0-1.5,0.1-2.5,1.8c-0.4,0.7-0.6,1.5-0.8,2.4c-0.3,1.3-0.6,2.4-1.4,2.8c-0.3,0.2-0.6,0.2-0.9,0.2
		c-1,0-0.8-1.1-0.6-1.3c0,0,0,0,0,0c-0.2,0-0.4-0.1-0.6-0.1c-0.2,0.7-0.2,1.7,0.4,2.5c0.3,0.4,1,1.1,2.3,1.1
		C97.4,80.4,97.7,80.3,97.9,80.3z M95.4,78.9c0,0-0.1-0.2-0.1-0.2l0.1,0c0.1,0,0.3,0.1,0.4,0.1c0.3,0,0.7-0.1,1.1-0.3
		c1.1-0.5,1.4-1.8,1.8-3.2c0.2-0.8,0.4-1.6,0.8-2.2c0.8-1.4,1.7-1.5,1.9-1.5c0.2,0.1,1,0.3,1.8,0.5c-0.2,0.3-0.5,0.6-0.6,1
		c-0.1,0.2-0.1,0.4-0.2,0.6c-0.7,2-2,5.7-4.6,6.1c-0.2,0-0.4,0.1-0.6,0.1C96.4,79.7,95.8,79.5,95.4,78.9z"/>
	<path d="M94.1,76.6c0,0-0.3-0.1-0.8-0.1c0,1.1,0.1,3.3,0.2,4.4c0,0.1,0,0.2-0.1,0.2h0c-0.1,0-0.1-0.1-0.2-0.1
		c-0.1-1.1-0.2-3.5-0.2-4.5c-0.3,0-0.5-0.1-0.8-0.1c0,0,0,0.2,0,0.3c0.3,0.4,0.5,0.8,0.5,0.8c-0.2-0.2-0.4-0.3-0.5-0.4
		c0,0.2,0,0.4,0.1,0.6c0.3,0.3,0.5,0.7,0.5,0.7c-0.1-0.1-0.3-0.2-0.4-0.3c0.1,0.4,0.2,0.7,0.4,0.8c0,0.4,0.1,1.6,0.1,1.9
		c0,0.2,0.1,0.7,0.6,0.7c0.4,0,0.5-0.3,0.5-0.7c0-0.3-0.1-2-0.1-2S94.1,78.4,94.1,76.6z"/>
	<path d="M100.4,77.2L100.4,77.2c0,0,0.5-0.5,0.3-1c-0.1-0.3-0.3-0.5-0.7-0.6c-0.2-0.1-0.3-0.1-0.5-0.1c-0.8,0-1,1.1-1,1.1l0,0
		L100.4,77.2L100.4,77.2z M98.9,76.4c0.1-0.3,0.3-0.7,0.7-0.7c0.1,0,0.2,0,0.4,0.1c0.3,0.1,0.5,0.3,0.5,0.5c0.1,0.2-0.1,0.5-0.2,0.7
		L98.9,76.4z"/>
	<path d="M85.3,76.8C85.3,76.8,85.3,76.8,85.3,76.8c0.1,0.2,0.3,1.3-0.7,1.3c-0.3,0-0.5-0.1-0.9-0.2c-0.8-0.4-1.1-1.6-1.4-2.8
		c-0.2-0.8-0.4-1.7-0.8-2.4c-0.9-1.7-2.2-1.8-2.5-1.8c-0.1,0-1.8,0.5-2.8,0.6c-0.1,0-0.2,0-0.3,0c-0.5,0.1-0.9,0.6-0.8,1.4
		c0,0.3,0.2,0.6,0.3,0.9c0.1,0.2,0.3,0.3,0.5,0.5c0.1,0.1,0.2,0.1,0.3,0.2c0.4,0.3,0.7,0.5,0.6,0.8c0,0.1-0.1,0.2-0.2,0.3
		c0,0-0.1,0-0.2,0l-0.2,0c-0.1,0-0.2,0.1-0.3,0.2c0,0.1,0,0.3,0.1,0.4c0.1,0,0.2,0.1,0.4,0.1c0.2,0,0.5-0.1,0.7-0.2
		c0.4-0.2,0.6-0.4,0.7-0.5c1.2,2.9,2.7,4.5,4.5,4.7c0.2,0,0.5,0.1,0.7,0.1c1.3,0,2-0.7,2.3-1.1c0.5-0.8,0.6-1.8,0.4-2.5
		C85.6,76.7,85.4,76.8,85.3,76.8z M85,78.9c-0.4,0.6-1,0.9-1.8,0.9c-0.2,0-0.4,0-0.6-0.1c-2.6-0.4-3.9-4.1-4.6-6.1
		c-0.1-0.2-0.2-0.4-0.2-0.6c-0.2-0.4-0.4-0.8-0.6-1c0.8-0.2,1.7-0.4,1.9-0.5c0.2,0,1.2,0.1,1.9,1.5c0.3,0.6,0.6,1.4,0.8,2.2
		c0.4,1.4,0.7,2.7,1.8,3.2c0.4,0.2,0.8,0.3,1.1,0.3c0.1,0,0.3,0,0.4-0.1l0.1,0C85.1,78.7,85,78.9,85,78.9z"/>
	<path d="M81.3,75.4L81.3,75.4L81.3,75.4L81.3,75.4c-0.3,0-0.5,0.1-0.8,0.2l0-0.1c-0.1-0.2-0.1-0.4-0.2-0.6c0.3-0.1,0.5-0.1,0.8-0.2
		l0,0l0,0c0-0.1,0-0.1-0.1-0.2l0,0l0,0l0,0c-0.7,0.2-1.3,0.3-2.1,0.6l0,0l0,0c0,0.1,0.1,0.1,0.1,0.2l0,0l0,0
		c0.4-0.1,0.7-0.2,0.9-0.3c0.1,0.2,0.1,0.4,0.2,0.6l0,0.1c-0.3,0.1-0.5,0.2-0.9,0.3l0,0l0,0c0,0,0,0.1,0.1,0.1l0,0l0,0l0,0
		c0.7-0.2,1.1-0.4,1.8-0.5l0,0l0-0.1C81.3,75.5,81.3,75.5,81.3,75.4z"/>
	<path d="M89,87.2c0,0.6,0.5,1,1,1c0.6,0,1-0.5,1-1c0-0.6-0.5-1-1-1C89.5,86.2,89,86.6,89,87.2z"/>
	<path d="M87.2,80.9c0,0.1-0.1,0.1-0.2,0.1h0c-0.1,0-0.1-0.1-0.1-0.2c0.1-1.1,0.2-3.4,0.2-4.4c-0.5,0.1-0.8,0.1-0.8,0.1
		c-0.1,1.8,0.3,2.2,0.3,2.2s-0.1,1.7-0.1,2c0,0.3,0,0.7,0.5,0.7c0.4,0,0.5-0.5,0.6-0.7c0-0.2,0.1-1.5,0.1-1.9
		c0.2-0.1,0.3-0.5,0.4-0.8c-0.1,0.1-0.3,0.2-0.4,0.3c0,0,0.2-0.4,0.5-0.7c0-0.2,0-0.4,0.1-0.6c-0.2,0.1-0.4,0.2-0.5,0.4
		c0,0,0.2-0.4,0.5-0.8c0-0.2,0-0.3,0-0.3c-0.3,0-0.5,0.1-0.8,0.1C87.5,77.4,87.4,79.8,87.2,80.9z"/>
	<polygon points="56.4,81.5 20,81.5 20,86 58.8,86 	"/>
	<polygon points="160.5,81.5 124.1,81.5 121.7,86 160.5,86 	"/>
</g>
</svg>
