<?xml version="1.0" encoding="utf-8"?>
<!-- Generator: Adobe Illustrator 26.0.1, SVG Export Plug-In . SVG Version: 6.00 Build 0)  -->
<svg version="1.1" id="Layer_1" xmlns="http://www.w3.org/2000/svg" xmlns:xlink="http://www.w3.org/1999/xlink" x="0px" y="0px"
	 viewBox="0 0 200 118.1" style="enable-background:new 0 0 200 118.1;" xml:space="preserve">
<g>
	<path d="M69.9,96.3c-4.4,0-7.2-2.7-7.2-8.2c-0.4-5.1,2.3-8.2,7-8.2c1.9,0,3.8,0.4,5.5,1.5l2.3-5.9c-2.7-1.1-5.5-1.7-8.4-1.7
		c-8.6,0-13.7,5.9-13.7,14.5h0.2c0,9.1,5.5,14.3,13.9,14.3c2.9,0,5.5-0.6,8.2-1.7L75.4,95C73.7,95.9,71.8,96.5,69.9,96.3z"/>
	<path d="M25,73.8c-3-0.2-5.7,1.7-6.9,4.6v-4h-6.7v27.4h6.9V88.9c0-3.8,0.4-5.1,1.5-6.5c1-1.1,2.5-1.9,4-1.7c1,0,1.9,0.2,2.7,0.6
		l3.4-6.1C28.4,74.2,26.7,73.8,25,73.8z"/>
	<path d="M41.8,73.8c-8.9,0-13.1,7-13.1,14.5h-0.2c0,9.1,5.1,14.3,14.3,14.3c3.2,0,6.5-0.6,9.5-1.9L49.9,95c-2.1,1-4.4,1.5-6.7,1.5
		c-4.6,0-7-1.9-7.6-5.5H53c0.2-1.3,0.2-2.5,0.2-3.8C53,80.1,50.1,73.8,41.8,73.8z M35.5,85.8c0.6-4.2,2.7-6.3,5.7-6.3
		c3.4,0,5.1,3,5.1,6.3H35.5z"/>
	<polygon points="95.8,74.4 87.2,84.5 87.2,61.5 80.4,66.4 80.4,101.8 87.2,101.8 87.2,89.1 96,101.8 104.6,101.8 93.7,86.6 
		104.8,74.4 	"/>
	<path d="M147.2,96.3c-2.1,0-2.9-1.1-2.9-3.2V80.1h7.2v-5.7h-7.2v-9.7l-6.9,4.8v4.9h-9.3v-9.7l-6.9,4.8v4.9h-4.2v5.7h4.2v13.5
		c-0.6,4.2,2.3,8.2,6.5,8.9c0.8,0.2,1.5,0.2,2.3,0c2.1,0,4.2-0.4,6.1-1.3l-2.3-5.7c-1,0.6-1.9,0.8-2.9,0.8c-2.1,0-2.9-1.1-2.9-3
		V80.3h9.3v13.5c-0.6,4.2,2.3,8.2,6.5,8.9c0.8,0.2,1.5,0.2,2.3,0c2.1,0,4.2-0.4,6.1-1.3l-2.3-5.7C149.1,96.1,148.2,96.3,147.2,96.3z
		"/>
	<path d="M110.8,62.8c-2.3,0-4.2,1.9-4.2,4.2s1.9,4.2,4.4,4.2c2.3,0,4.2-1.9,4.2-4.4C115,64.7,113.1,62.8,110.8,62.8z"/>
	<rect x="107.4" y="74.4" width="6.9" height="27.4"/>
	<path d="M160,11.4c-17.7,0-32,13.7-32,32.9c0,6.1,1.3,12,4,17.5l8-5.7c-1.9-4-2.9-8.4-2.7-12.8c0-13.7,10.1-24.2,23-24.2
		c12.6,0,20.4,8.9,20.4,20.4c0,10.3-6.9,16.9-15.8,16.9c-8.6,0-14.5-5.9-14.5-14.1c0-7.2,4.6-12.2,10.1-12.2c4.2,0,6.5,1.9,6.5,4.9
		c0,3.4-3.6,5.3-7.2,4.4l-3.8,2.7c3.2,4,6.9,7.4,11,10.3l4-2.9c-2.3-1.7-4.6-3.6-6.5-5.5c4.6-0.4,8.2-4.4,8-8.9
		c0-6.1-4.4-10.5-12-10.5c-9.1,0-16.7,7.4-16.7,18.1c0,11.8,8.6,20.6,21.1,20.6c13.9,0.2,23.6-10.1,23.6-23.8
		C188.5,23.2,177.3,11.4,160,11.4z"/>
</g>
</svg>
