<?xml version="1.0" encoding="utf-8"?>
<!-- Generator: Adobe Illustrator 26.0.1, SVG Export Plug-In . SVG Version: 6.00 Build 0)  -->
<svg version="1.1" id="Layer_1" xmlns="http://www.w3.org/2000/svg" xmlns:xlink="http://www.w3.org/1999/xlink" x="0px" y="0px"
	 viewBox="0 0 200 200" style="enable-background:new 0 0 200 200;" xml:space="preserve">
<g>
	<path d="M178.3,118.4c-53.5-9.9-106.9-19.9-160.4-29.8c0,6.6,0,13.2,0,19.7c31.9,5.5,63.8,10.9,95.6,16.3c7.9,1.3,15.8,2.8,23.7,4
		c0.1,0.7-0.6,1.2-1.1,1.7c-2.9,2.7-7,3.4-10.8,3.2c-17.6-0.2-35.2-0.2-52.8-0.4c-18.2-0.4-36.5-1.1-54.7-2.2
		c0.5,10.2,0.9,20.5,1.7,30.7c0.2,1.9,0.3,3.8,1.1,5.5c0.8,1.3,2.3,2,3.7,2.5c2.8,0.8,5.6,0.8,8.4,1c35.3,2.4,70.7,3.3,106.1,1.7
		c8.2-0.4,16.5-0.6,24.6-2.1c5.5-1,11.1-3.8,14-8.7c2.8-4.8,3.4-10.4,3.6-15.9c0.3-8.8,0.5-17.6,0.8-26.3l-0.1-0.3
		C180.7,118.7,179.5,118.7,178.3,118.4z"/>
	<path d="M182.1,90.7c-30.9-5.8-61.8-11.4-92.7-17.2c-9.3-1.7-18.6-3.5-27.9-5.1c1.7-2.7,5.1-3.7,8.1-4.1c12.3-0.6,24.7-0.5,37-0.5
		c23.8,0,47.6,1.1,71.3,2.3c1.3,0,2.7,0.2,4,0.1c-0.7-9.3-0.9-18.5-1.7-27.8c-0.2-1.9-0.2-3.9-1.2-5.6c-1-1.6-2.9-2.2-4.6-2.6
		c-3.2-0.7-6.5-0.6-9.7-0.9c-30.8-2-61.7-3.1-92.6-2c-9.9,0.4-19.9,0.6-29.8,1.6c-6.3,0.7-13.1,2-17.7,6.6c-2.7,2.5-4.2,6.1-4.9,9.7
		c-1.2,5.1-1,10.3-1.3,15.4c-0.1,6.5-0.4,13-0.5,19.5c37.3,6.4,74.7,12.9,112,19.3c17.4,3,34.7,6.1,52.1,8.9
		C182.1,102.4,182.1,96.5,182.1,90.7z"/>
</g>
</svg>
