<?xml version="1.0" encoding="utf-8"?>
<!-- Generator: Adobe Illustrator 26.0.1, SVG Export Plug-In . SVG Version: 6.00 Build 0)  -->
<svg version="1.1"
	 id="snapvision-logo" xmlns:cc="http://creativecommons.org/ns#" xmlns:dc="http://purl.org/dc/elements/1.1/" xmlns:rdf="http://www.w3.org/1999/02/22-rdf-syntax-ns#"
	 xmlns="http://www.w3.org/2000/svg" xmlns:xlink="http://www.w3.org/1999/xlink" x="0px" y="0px" viewBox="0 0 40.5 8.2"
	 style="enable-background:new 0 0 40.5 8.2;" xml:space="preserve">
<g>
	<path d="M5.1,3.9C5,3.8,4.9,3.8,4.8,3.8c-0.1,0-0.2-0.1-0.3-0.1c-0.1,0-0.2-0.1-0.2-0.1c-0.1,0-0.1-0.1-0.1-0.2c0-0.1,0-0.1,0-0.1
		c0,0,0.1-0.1,0.1-0.1c0,0,0.1,0,0.1-0.1c0,0,0.1,0,0.1,0c0.1,0,0.2,0,0.2,0C4.9,3.2,5,3.2,5,3.3l0.4-0.5C5.3,2.7,5.2,2.6,5,2.6
		c-0.1,0-0.3-0.1-0.5-0.1c-0.1,0-0.3,0-0.4,0.1c-0.1,0-0.2,0.1-0.3,0.2C3.7,2.8,3.7,2.9,3.6,3C3.6,3.1,3.5,3.3,3.5,3.4
		c0,0.2,0,0.3,0.1,0.4C3.7,3.9,3.8,4,3.9,4s0.2,0.1,0.3,0.1c0.1,0,0.2,0.1,0.3,0.1c0.1,0,0.2,0.1,0.2,0.1c0.1,0,0.1,0.1,0.1,0.2
		c0,0,0,0.1,0,0.1c0,0-0.1,0.1-0.1,0.1c0,0-0.1,0-0.1,0.1c0,0-0.1,0-0.1,0c-0.1,0-0.2,0-0.3-0.1C4,4.7,3.9,4.7,3.9,4.6L3.4,5.1
		c0.1,0.1,0.3,0.2,0.4,0.3C4,5.4,4.2,5.4,4.4,5.4c0.1,0,0.3,0,0.4-0.1c0.1,0,0.2-0.1,0.3-0.2C5.2,5.1,5.3,5,5.3,4.9s0.1-0.2,0.1-0.4
		c0-0.2,0-0.3-0.1-0.4C5.3,4,5.2,4,5.1,3.9z"/>
	<polygon points="8.9,4.5 8.9,4.5 7.8,2.6 6.9,2.6 6.9,5.3 7.6,5.3 7.6,3.4 7.6,3.4 8.8,5.3 9.6,5.3 9.6,2.6 8.9,2.6 	"/>
	<path d="M12.1,2.6l-1.2,2.7h0.7l0.2-0.6h1.1l0.2,0.6h0.7l-1.2-2.7H12.1z M12,4.3l0.3-0.9l0.3,0.9H12z"/>
	<path d="M16.9,2.8c-0.1-0.1-0.2-0.1-0.3-0.1c-0.1,0-0.3,0-0.4,0h-1v2.7h0.6V4.3h0.4c0.1,0,0.3,0,0.4,0c0.1,0,0.2-0.1,0.3-0.1
		C17,4,17.1,3.9,17.1,3.8s0.1-0.2,0.1-0.4c0-0.2,0-0.3-0.1-0.4C17.1,2.9,17,2.8,16.9,2.8z M16.5,3.6c0,0-0.1,0.1-0.1,0.1
		c0,0-0.1,0-0.1,0.1c0,0-0.1,0-0.2,0h-0.4l0-0.7h0.3c0.1,0,0.1,0,0.2,0c0.1,0,0.1,0,0.2,0c0.1,0,0.1,0.1,0.1,0.1
		c0,0,0.1,0.1,0.1,0.2C16.6,3.5,16.6,3.6,16.5,3.6z"/>
	<polygon points="19.8,4.4 19.8,4.4 19.1,2.6 18.4,2.6 19.5,5.3 20,5.3 21.1,2.6 20.5,2.6 	"/>
	<rect x="22.5" y="2.6" width="0.6" height="2.7"/>
	<path d="M26.2,3.9c-0.1-0.1-0.2-0.1-0.3-0.1c-0.1,0-0.2-0.1-0.3-0.1c-0.1,0-0.2-0.1-0.2-0.1c-0.1,0-0.1-0.1-0.1-0.2
		c0-0.1,0-0.1,0-0.1c0,0,0.1-0.1,0.1-0.1c0,0,0.1,0,0.1-0.1c0,0,0.1,0,0.1,0c0.1,0,0.2,0,0.2,0c0.1,0,0.2,0.1,0.2,0.1l0.4-0.5
		c-0.1-0.1-0.2-0.2-0.4-0.2c-0.1,0-0.3-0.1-0.5-0.1c-0.1,0-0.3,0-0.4,0.1c-0.1,0-0.2,0.1-0.3,0.2c-0.1,0.1-0.2,0.2-0.2,0.3
		c-0.1,0.1-0.1,0.2-0.1,0.4c0,0.2,0,0.3,0.1,0.4C24.8,3.9,24.8,4,24.9,4c0.1,0.1,0.2,0.1,0.3,0.1c0.1,0,0.2,0.1,0.3,0.1
		c0.1,0,0.2,0.1,0.2,0.1c0.1,0,0.1,0.1,0.1,0.2c0,0,0,0.1,0,0.1c0,0-0.1,0.1-0.1,0.1c0,0-0.1,0-0.1,0.1c0,0-0.1,0-0.1,0
		c-0.1,0-0.2,0-0.3-0.1c-0.1,0-0.2-0.1-0.2-0.2l-0.4,0.5c0.1,0.1,0.3,0.2,0.4,0.3s0.3,0.1,0.5,0.1c0.1,0,0.3,0,0.4-0.1
		c0.1,0,0.2-0.1,0.3-0.2c0.1-0.1,0.2-0.2,0.2-0.3s0.1-0.2,0.1-0.4c0-0.2,0-0.3-0.1-0.4C26.3,4,26.3,4,26.2,3.9z"/>
	<rect x="28" y="2.6" width="0.6" height="2.7"/>
	<path d="M32.7,2.9c-0.1-0.1-0.3-0.2-0.5-0.3s-0.4-0.1-0.6-0.1s-0.4,0-0.6,0.1s-0.3,0.2-0.5,0.3c-0.1,0.1-0.2,0.3-0.3,0.5
		c-0.1,0.2-0.1,0.4-0.1,0.6s0,0.4,0.1,0.6c0.1,0.2,0.2,0.3,0.3,0.5c0.1,0.1,0.3,0.2,0.5,0.3s0.4,0.1,0.6,0.1s0.4,0,0.6-0.1
		s0.3-0.2,0.5-0.3c0.1-0.1,0.2-0.3,0.3-0.5C33,4.4,33.1,4.2,33.1,4c0-0.2,0-0.4-0.1-0.6C32.9,3.2,32.8,3,32.7,2.9z M32.4,4.3
		c0,0.1-0.1,0.2-0.2,0.3c-0.1,0.1-0.2,0.1-0.3,0.2c-0.1,0-0.2,0.1-0.3,0.1c-0.1,0-0.2,0-0.4-0.1c-0.1,0-0.2-0.1-0.3-0.2
		c-0.1-0.1-0.1-0.2-0.2-0.3c0-0.1-0.1-0.2-0.1-0.4c0-0.1,0-0.2,0.1-0.4c0-0.1,0.1-0.2,0.2-0.3c0.1-0.1,0.2-0.1,0.3-0.2
		c0.1,0,0.2-0.1,0.4-0.1c0.1,0,0.2,0,0.3,0.1c0.1,0,0.2,0.1,0.3,0.2c0.1,0.1,0.1,0.2,0.2,0.3c0,0.1,0.1,0.2,0.1,0.4
		C32.5,4.1,32.4,4.2,32.4,4.3z"/>
	<polygon points="36.6,4.5 36.6,4.5 35.4,2.6 34.6,2.6 34.6,5.3 35.2,5.3 35.2,3.4 35.2,3.4 36.4,5.3 37.2,5.3 37.2,2.6 36.6,2.6 	
		"/>
	<polygon points="0,8.1 2.2,8.1 2.2,7.4 0.6,7.4 0.6,0.7 2.3,0.7 2.3,0 0,0 	"/>
	<polygon points="40.5,0 38.3,0 38.3,0.7 39.8,0.7 39.9,7.4 38.3,7.4 38.3,8.1 40.5,8.1 	"/>
</g>
</svg>
