<?xml version="1.0" encoding="utf-8"?>
<!-- Generator: Adobe Illustrator 26.0.1, SVG Export Plug-In . SVG Version: 6.00 Build 0)  -->
<svg version="1.1" id="Layer_1" xmlns="http://www.w3.org/2000/svg" xmlns:xlink="http://www.w3.org/1999/xlink" x="0px" y="0px"
	 viewBox="0 0 360 95.8" style="enable-background:new 0 0 360 95.8;" xml:space="preserve">
<g>
	<path d="M278,55.7l-6.9,0.6c-4.2,0.3-6.3,1.5-6.3,4.8s3,5.1,7.5,5.1c6,0,12.7-2.9,12.7-9l0-3C282.7,55.1,280.4,55.6,278,55.7z"/>
	<path d="M344.4,0H15.6C7,0,0,7,0,15.6v64.6c0,8.6,7,15.6,15.6,15.6h328.7c8.6,0,15.6-7,15.6-15.6V15.6C360,7,353,0,344.4,0z
		 M71.2,32.7h-18v39.2H40.1V32.7h-18v-9.2h49.1V32.7z M115.9,71.8h-11.5V67h-0.1c-2.2,3-7.8,6.2-14.8,6.2c-6.2,0-15.6-2.4-15.6-13.1
		V35.5h12v21c0,5,2.6,7.5,8.1,7.5c6.4,0,10.1-3.6,10.1-10.3V35.5h11.9V71.8z M165.3,71.8h-11.9l0-20.6c0-5-2.6-7.5-8-7.5
		c-5.5,0-10.2,2.8-10.2,10.5v17.5h-11.9V35.5h11.5v5.3h0.1c2.2-3.1,7.8-6.2,14.8-6.2c6.2,0,15.6,2.4,15.6,13.1V71.8z M192,73.2
		c-13.8,0-20.7-4-21.3-12.6h13.1c0.5,3.2,2.7,5.2,8.9,5.2c5.4,0,8.6-1.3,8.6-3.9c0-2-1-2.8-6.8-3.7l-10.8-1.5
		c-7.6-1-11.9-3.4-11.9-10.3c0-9.8,10-12.2,19.9-12.2c16.7,0,20.7,5.5,21.5,12.3h-13.1c-0.7-3.7-4.6-4.8-8.1-4.8
		c-3.1,0-7.8,0.3-7.8,3.9c0,1.7,0.9,2.8,6,3.4l8.3,0.9c12.1,1.3,16.1,4.9,16.1,11.2C214.4,71.7,202.3,73.2,192,73.2z M246.8,72
		c-2.2,0.3-6.7,0.7-9.3,0.7c-11.3,0-12.4-4.2-12.4-10.8V43.5h-7.5v-8h7.5V24.3h11.9v11.2h9.6v8h-9.6v17c0,2.8,0.9,3.8,4,3.8
		c2.1,0,3.9-0.1,5.8-0.3V72z M285.9,71.8c-0.4-1.2-0.7-2.5-0.8-3.9c-4.1,4.1-11.6,5.2-17,5.2c-9.5,0-16.1-3.3-16.1-11.8
		c0-8.8,7.7-10.7,15-11.2l12.7-0.9c3.7-0.3,4.9-0.9,4.9-3.8c0-2.9-2.4-4.3-9.4-4.3c-5.1,0-7.7,0.4-9.4,5.4l-11.5,0
		c1.4-11.2,11.7-12.5,21.5-12.5c17.1,0,20.7,5.5,20.7,12.3v18c-0.1,2.5,0.4,5,1.4,7.3H285.9z M315.5,71.8h-11.9V22.6h11.9V71.8z
		 M334.8,71.8h-11.9V22.6h11.9V71.8z"/>
</g>
</svg>
