<?xml version="1.0" encoding="utf-8"?>
<!-- Generator: Adobe Illustrator 26.0.1, SVG Export Plug-In . SVG Version: 6.00 Build 0)  -->
<svg version="1.1"
	 id="svg2" inkscape:version="0.48.2 r9819" sodipodi:docname="AJAX.svg" xmlns:cc="http://creativecommons.org/ns#" xmlns:dc="http://purl.org/dc/elements/1.1/" xmlns:inkscape="http://www.inkscape.org/namespaces/inkscape" xmlns:rdf="http://www.w3.org/1999/02/22-rdf-syntax-ns#" xmlns:sodipodi="http://sodipodi.sourceforge.net/DTD/sodipodi-0.dtd" xmlns:svg="http://www.w3.org/2000/svg"
	 xmlns="http://www.w3.org/2000/svg" xmlns:xlink="http://www.w3.org/1999/xlink" x="0px" y="0px" viewBox="0 0 200 200"
	 style="enable-background:new 0 0 200 200;" xml:space="preserve">
<sodipodi:namedview  bordercolor="#666666" borderopacity="1" fit-margin-bottom="0" fit-margin-left="0" fit-margin-right="0" fit-margin-top="0" gridtolerance="10" guidetolerance="10" id="namedview12" inkscape:current-layer="g8" inkscape:cx="60.969416" inkscape:cy="65.212452" inkscape:pageopacity="0" inkscape:pageshadow="2" inkscape:window-height="1004" inkscape:window-maximized="1" inkscape:window-width="1280" inkscape:window-x="-8" inkscape:window-y="-8" inkscape:zoom="5.5529412" objecttolerance="10" pagecolor="#ffffff" showgrid="false">
	</sodipodi:namedview>
<g>
	<path d="M102,139.7h-3.4v6.9h3.4c2.3,0,3.1-1.8,3.1-3.5C105.1,141.1,104.5,139.7,102,139.7z"/>
	<path d="M99.9,11.2c-49.1,0-88.8,39.7-88.8,88.8s39.7,88.8,88.8,88.8s88.8-39.7,88.8-88.8C188.9,50.9,149,11.2,99.9,11.2z
		 M100.4,36.2c7.1,0,12.7,5.6,12.7,12.7c0,7.1-5.6,12.7-12.7,12.7c-7.1,0-12.7-5.6-12.7-12.7C87.7,41.9,93.4,36.2,100.4,36.2z
		 M100.4,66.3c7.1,0,12.7,5.6,12.7,12.7s-5.6,12.7-12.7,12.7c-7.1,0-12.7-5.6-12.7-12.7S93.4,66.3,100.4,66.3z M69.5,36.2
		c7.1,0,12.7,5.6,12.7,12.7c0,7.1-5.6,12.7-12.7,12.7c-7.1,0-12.7-5.6-12.7-12.7C56.8,41.9,62.5,36.2,69.5,36.2z M69.5,66.3
		c7.1,0,12.7,5.6,12.7,12.7s-5.6,12.7-12.7,12.7c-7.1,0-12.7-5.6-12.7-12.7S62.5,66.3,69.5,66.3z M69.5,97.2
		c7.1,0,12.7,5.6,12.7,12.7c0,7.1-5.6,12.7-12.7,12.7c-7.1,0-12.7-5.6-12.7-12.7C56.8,102.8,62.5,97.2,69.5,97.2z M84.5,151.1
		c0,3.1-0.2,6.9-4.2,9.8c-2.7,1.9-5.8,2.3-8.7,2.3c-2.9,0-6-0.3-8.7-2.3c-4-2.9-4.2-6.8-4.2-9.8v-17.9h8.5v17.9c0,1.8,0.2,3.1,1.4,4
		c1,0.8,1.6,1,2.9,1c1.1,0,1.9-0.3,2.9-1c1.3-1.1,1.4-2.4,1.4-4v-17.9h8.5V151.1z M100.4,97.2c7.1,0,12.7,5.6,12.7,12.7
		c0,7.1-5.6,12.7-12.7,12.7c-7.1,0-12.7-5.6-12.7-12.7C87.7,102.8,93.4,97.2,100.4,97.2z M109.4,151.4c-1.6,1.1-3.5,1.6-8.2,1.6
		h-2.4v9.7h-7.4v-29.4h12.2c6,0,9.7,3.5,9.7,10.1C113.3,146.8,111.9,149.7,109.4,151.4z M140,142.1c-2.9-2.4-4-2.3-6.3-2.3
		c-4.5,0-7.6,3.4-7.6,8.2c0,4.8,3.1,8.2,7.6,8.2c2.4,0,3.5-0.3,6.3-2.3v7.6c-2.7,1.4-4.3,1.8-7.1,1.8c-8.8,0-15.1-6.3-15.1-15.3
		c0-8.8,6.4-15.4,15-15.4c2.6,0,4.3,0.5,7.2,1.8V142.1z M130.5,122.5c-7.1,0-12.7-5.6-12.7-12.7s5.6-12.7,12.7-12.7
		c6.9,0,12.7,5.6,12.7,12.7S137.4,122.5,130.5,122.5z M130.5,91.6c-7.1,0-12.7-5.6-12.7-12.7c0-7.1,5.6-12.7,12.7-12.7
		c6.9,0,12.7,5.6,12.7,12.7C143.2,86,137.4,91.6,130.5,91.6z M130.5,61.7c-7.1,0-12.7-5.6-12.7-12.7c0-7.1,5.6-12.7,12.7-12.7
		c6.9,0,12.7,5.6,12.7,12.7C143.2,56,137.4,61.7,130.5,61.7z"/>
</g>
</svg>
