<?xml version="1.0" encoding="utf-8"?>
<!-- Generator: Adobe Illustrator 26.0.1, SVG Export Plug-In . SVG Version: 6.00 Build 0)  -->
<svg version="1.1" id="master-artboard" xmlns="http://www.w3.org/2000/svg" xmlns:xlink="http://www.w3.org/1999/xlink" x="0px"
	 y="0px" viewBox="0 0 200 200" style="enable-background:new 0 0 200 200;" xml:space="preserve">
<path d="M100.6,11.9c-48.4,0-87.4,39-87.4,87.4s39,87.4,87.4,87.4c48.4,0,87.4-39,87.4-87.4C188,50.9,149,11.9,100.6,11.9z
	 M100.6,19.8c9.1,0,17.8,1.6,25.9,4.5l-24.8,55.9c-0.3,0.7-0.5,1-1,1c-0.5,0-0.7-0.5-1-1L74.7,24.3C82.8,21.3,91.5,19.8,100.6,19.8z
	 M62.5,29.9l29,64.5c0.3,1,1.2,1.4,2.1,1.4h14c1,0,1.8-0.2,2.3-1.4l29-64.5c11.6,6.5,21.3,15.7,28.5,26.7l-40.6,81.1
	c-0.2,0.5-0.5,1-1,1c-0.5,0-0.7-0.5-1-1l-15.2-34.6c-0.5-1.2-1.2-1.4-2.3-1.4h-14c-1,0-1.8,0.2-2.3,1.4l-14.7,34.6
	c-0.2,0.5-0.5,1-1,1c-0.5,0-0.7-0.5-1-1L34,56.6C41.2,45.6,50.8,36.4,62.5,29.9z M100.6,178.7c-43.5,0-79.2-35.8-79.2-79.4
	c0-9.8,1.8-19.1,5.1-27.8l46.3,93.2c0.5,1.2,1.4,2.3,2.8,2.3c1.4,0,2.3-1,2.8-2.3L99.7,117c0.2-0.5,0.5-1,1-1c0.5,0,0.7,0.5,1,1
	l21.3,47.7c0.5,1.2,1.4,2.3,2.8,2.3c1.4,0,2.3-1,2.8-2.3l46.3-93.2c3.3,8.7,5.1,18,5.1,27.8C179.8,142.8,144.1,178.7,100.6,178.7z"
	/>
</svg>
