<?xml version="1.0" encoding="utf-8"?>
<!-- Generator: Adobe Illustrator 26.0.1, SVG Export Plug-In . SVG Version: 6.00 Build 0)  -->
<svg version="1.1"
	 id="svg65" inkscape:version="0.92.3 (2405546, 2018-03-11)" sodipodi:docname="yamahalogo.svg" xmlns:cc="http://creativecommons.org/ns#" xmlns:dc="http://purl.org/dc/elements/1.1/" xmlns:inkscape="http://www.inkscape.org/namespaces/inkscape" xmlns:ns3="http://ns.adobe.com/AdobeIllustrator/10.0/" xmlns:rdf="http://www.w3.org/1999/02/22-rdf-syntax-ns#" xmlns:sodipodi="http://sodipodi.sourceforge.net/DTD/sodipodi-0.dtd" xmlns:svg="http://www.w3.org/2000/svg"
	 xmlns="http://www.w3.org/2000/svg" xmlns:xlink="http://www.w3.org/1999/xlink" x="0px" y="0px" viewBox="0 0 799.7 174.1"
	 style="enable-background:new 0 0 799.7 174.1;" xml:space="preserve">
<sodipodi:namedview  bordercolor="#666666" borderopacity="1.0" id="base" inkscape:current-layer="layer1" inkscape:cx="621.89049" inkscape:cy="230.31055" inkscape:document-units="mm" inkscape:pageopacity="0.0" inkscape:pageshadow="2" inkscape:window-height="1027" inkscape:window-maximized="1" inkscape:window-width="1920" inkscape:window-x="-8" inkscape:window-y="-8" inkscape:zoom="0.49497475" pagecolor="#ffffff" showgrid="false">
	</sodipodi:namedview>
<g>
	<path d="M87.1,0C39,0,0,39,0,87.1s39,87.1,87.1,87.1s87.1-39,87.1-87.1C174.1,39,135.1,0,87.1,0z M87.1,164.3
		c-42.7,0-77.2-34.6-77.2-77.2c0-42.7,34.6-77.2,77.2-77.2c42.7,0,77.2,34.6,77.2,77.2C164.3,129.7,129.7,164.3,87.1,164.3z"/>
	<path d="M139.9,61.6l-36.2,20.9L99.4,80v-5l36.2-20.9l-4-6.9L99.4,65.7v-6.5c0-5.2-2.3-9.8-6-13C92,45,91,43.2,91,41.1
		c0-2.3,1.2-4.3,2.9-5.5c0.6-0.4,0.9-1.1,0.9-1.8c0-0.2,0-0.5-0.1-0.7l-6.5-18.3c-0.2-0.5-0.7-0.9-1.3-0.9c-0.6,0-1.1,0.4-1.3,0.9
		l-6.5,18.3C79,33.3,79,33.6,79,33.8c0,0.7,0.4,1.4,0.9,1.8l0,0c1.8,1.2,2.9,3.2,2.9,5.5c0,2-0.9,3.9-2.4,5.1c-3.7,3.1-6,7.8-6,13
		v6.5L42.6,47.2l-4,6.9L74.8,75v5l-4.3,2.5L34.2,61.6l-4,6.9l32.2,18.6l-5.7,3.3c-4.5,2.6-7.4,6.9-8.3,11.7
		c-0.4,1.9-1.5,3.6-3.2,4.6c-2,1.1-4.3,1.2-6.3,0.3c-0.6-0.3-1.4-0.3-2,0.1c-0.2,0.1-0.4,0.3-0.6,0.5l-12.6,14.8
		c-0.4,0.4-0.5,1-0.2,1.6c0.3,0.5,0.9,0.8,1.4,0.6L44,121c0.2,0,0.5-0.1,0.7-0.2c0.6-0.4,1-1,1.1-1.7c0.2-2.1,1.4-4.1,3.3-5.3
		c1.8-1,3.8-1.1,5.6-0.5c4.5,1.6,9.7,1.3,14.2-1.3l5.7-3.3v37.2h8v-41.8l4.3-2.5l4.3,2.5v41.8h8v-37.2l5.7,3.3
		c4.5,2.6,9.7,2.9,14.2,1.3c1.8-0.6,3.8-0.5,5.6,0.5c2,1.1,3.2,3.2,3.3,5.3c0.1,0.7,0.4,1.3,1.1,1.7c0.2,0.1,0.4,0.2,0.7,0.2
		l19.1,3.6c0.6,0.1,1.1-0.1,1.4-0.6c0.3-0.5,0.2-1.1-0.2-1.6l-12.6-14.8c-0.2-0.2-0.3-0.3-0.6-0.5c-0.6-0.4-1.4-0.4-2-0.1
		c-1.9,0.9-4.3,0.9-6.3-0.3c-1.8-1-2.9-2.7-3.3-4.6l0,0c-0.9-4.7-3.8-9.1-8.3-11.7l-5.7-3.3l32.2-18.6L139.9,61.6z M74.7,99.2
		L74.7,99.2l-10.6,6.1c-2.1,1.2-4.7,0.5-5.9-1.6s-0.5-4.7,1.6-5.9l10.6-6.1l4.3,2.5V99.2z M82.7,58.1c0-2.4,1.9-4.4,4.3-4.4
		s4.3,1.9,4.3,4.4v12.3L87,72.9l-4.3-2.5V58.1z M92.1,89.9l-5,2.9l-5-2.9v-5.8l5-2.9l5,2.9V89.9z M114.3,97.8
		c2.1,1.2,2.8,3.9,1.6,5.9c-1.2,2.1-3.9,2.8-5.9,1.6l-10.6-6.1v-5l4.3-2.5L114.3,97.8z"/>
	<polygon points="666.7,69.4 637.6,69.4 637.6,11.3 611.1,11.3 611.1,162.8 637.6,162.8 637.6,96.3 666.7,96.3 666.7,162.8 
		693.8,162.8 693.8,11.3 666.7,11.3 	"/>
	<polygon points="258.1,11.3 238.1,70.3 220,11.3 193.5,11.3 222.9,104.2 222.9,162.8 252.4,162.8 252.4,101.2 283,11.3 	"/>
	<polygon points="436.7,83.4 422,11.3 380.6,11.3 380.6,162.8 404.3,162.8 404.3,48.6 424.6,147.9 446.8,147.9 464.8,47 
		464.8,162.8 492.6,162.8 492.6,11.3 449.5,11.3 	"/>
	<path d="M774.7,11.3h-41L706,162.8h24.6l5.9-35.3H767l5.7,35.3h27.1L774.7,11.3z M740.6,102.3l11.3-67.8l11,67.8H740.6z"/>
	<path d="M532.5,11.3l-27.7,151.5h24.6l5.9-35.3h30.5l5.7,35.3h27.1l-25-151.5C573.6,11.3,532.5,11.3,532.5,11.3z M539.4,102.3
		l11.3-67.8l11,67.8H539.4z"/>
	<path d="M301.9,11.3l-27.7,151.5h24.6l5.9-35.3h30.5l5.7,35.3H368L343,11.3H301.9z M308.9,102.3l11.3-67.8l11,67.8H308.9z"/>
</g>
</svg>
