<?xml version="1.0" encoding="utf-8"?>
<!-- Generator: Adobe Illustrator 25.4.1, SVG Export Plug-In . SVG Version: 6.00 Build 0)  -->
<svg version="1.1" id="Layer_1" xmlns="http://www.w3.org/2000/svg" xmlns:xlink="http://www.w3.org/1999/xlink" x="0px" y="0px"
	 viewBox="0 0 873.7 243.2" style="enable-background:new 0 0 873.7 243.2;" xml:space="preserve">
<style type="text/css">
	.st0{fill:#FFFFFF;}
</style>
<g>
	<path class="st0" d="M121.9,20.6C109,13.5,93.7,9.9,75.8,9.9H12.4v177.4h62.9c18,0,33.5-3.5,46.5-10.7c13-7.1,22.9-17.3,29.9-30.6
		c7-13.3,10.4-29.2,10.4-47.6c0-18.4-3.5-34.2-10.4-47.5C144.7,37.8,134.8,27.6,121.9,20.6z M118.9,130.8
		c-3.8,8.3-9.6,14.5-17.1,18.4c-7.6,4-16.9,5.9-28,5.9H49.9V42.1h23.9c11.1,0,20.4,2,28,5.9c7.6,3.9,13.3,10,17.1,18.4
		c3.8,8.3,5.8,19,5.8,32.1C124.7,111.7,122.7,122.5,118.9,130.8z"/>
	<path class="st0" d="M282.1,69.4c-5.7-5.6-12.3-9.8-19.9-12.6c-7.6-2.8-15.8-4.2-24.6-4.2c-13,0-24.4,2.9-34.1,8.7
		c-9.7,5.8-17.2,13.8-22.5,24.2c-5.3,10.3-8,22.3-8,36c0,14,2.7,26.2,8,36.4c5.3,10.2,12.9,18.2,22.7,23.7
		c9.8,5.6,21.6,8.4,35.3,8.4c11,0,20.7-1.7,29.1-5.1c8.4-3.4,15.3-8.1,20.6-14.2c5.3-6.1,8.9-13.2,10.6-21.4l-34.1-2.3
		c-1.3,3.3-3.1,6.2-5.5,8.5c-2.4,2.3-5.3,4-8.7,5.2c-3.4,1.2-7.2,1.7-11.3,1.7c-6.2,0-11.5-1.3-16-3.9c-4.5-2.6-8-6.3-10.4-11.1
		c-2.5-4.8-3.7-10.5-3.7-17.1v-0.1h90.6v-10.1c0-11.3-1.6-21.2-4.8-29.7C292.2,82,287.8,75,282.1,69.4z M209.6,107.4
		c0.2-4.8,1.4-9.2,3.7-13.1c2.4-4.3,5.8-7.7,10.1-10.3c4.3-2.6,9.3-3.9,14.9-3.9c5.4,0,10.1,1.2,14.2,3.5c4.1,2.3,7.3,5.6,9.6,9.7
		c2.3,4.1,3.5,8.8,3.5,14.1H209.6z"/>
	<path class="st0" d="M417.3,122.9c-6.4-5.9-16-10.2-28.9-12.8l-24.1-4.8c-6.2-1.3-10.5-3.1-13.1-5.3c-2.5-2.2-3.8-4.9-3.8-8.1
		c0-4,2-7.2,5.9-9.6c3.9-2.4,8.7-3.6,14.5-3.6c4.3,0,8,0.7,11,2.1c3.1,1.4,5.6,3.3,7.5,5.6c1.9,2.3,3.1,5,3.7,7.8l33.8-2.1
		c-1.6-12.2-7.3-21.9-16.9-29c-9.7-7.1-22.9-10.7-39.7-10.7c-11.4,0-21.3,1.7-29.7,5c-8.5,3.3-15,8.1-19.7,14.3
		c-4.6,6.2-7,13.5-7,22.1c0,9.9,3.2,18.1,9.5,24.5c6.3,6.4,16,10.9,29,13.5l23,4.6c5.8,1.2,10,2.8,12.8,5c2.8,2.2,4.2,4.9,4.2,8.3
		c-0.1,4-2.1,7.2-6,9.7c-4,2.5-9.2,3.8-15.6,3.8c-6.6,0-12-1.4-16.2-4.2c-4.2-2.8-6.9-6.9-8-12.3l-36.3,1.9
		c1.8,12.7,7.9,22.7,18.3,30.1c10.4,7.4,24.4,11,42,11c11.5,0,21.8-1.8,30.6-5.5c8.9-3.7,15.8-8.8,21-15.4
		c5.1-6.6,7.7-14.2,7.7-22.9C426.9,136.5,423.7,128.8,417.3,122.9z"/>
	<path class="st0" d="M527.2,76.6h-1.1c-1.6-3.6-4-7.2-7.1-11c-3.1-3.7-7.1-6.8-12.1-9.4c-5-2.5-11.2-3.8-18.7-3.8
		c-9.8,0-18.7,2.5-26.9,7.6c-8.2,5.1-14.7,12.6-19.6,22.8c-4.9,10.1-7.4,22.8-7.4,38.1c0,14.8,2.4,27.4,7.1,37.5
		c4.8,10.2,11.2,17.9,19.4,23.1c8.2,5.2,17.3,7.8,27.4,7.8c7.2,0,13.2-1.2,18.2-3.6c5-2.4,9.1-5.4,12.2-9c3.1-3.6,5.6-7.3,7.3-11
		h1.6v21.3H564V9.9h-36.8V76.6z M524.7,141.5c-2.2,5.9-5.4,10.5-9.5,13.7c-4.1,3.3-9.2,4.9-15.1,4.9c-6.1,0-11.2-1.7-15.3-5
		c-4.1-3.3-7.3-7.9-9.4-13.9c-2.2-5.9-3.2-12.7-3.2-20.5c0-7.7,1.1-14.4,3.2-20.3c2.1-5.8,5.3-10.4,9.4-13.7
		c4.2-3.3,9.3-4.9,15.3-4.9c5.9,0,11,1.6,15.2,4.8c4.2,3.2,7.3,7.7,9.5,13.5c2.2,5.8,3.3,12.7,3.3,20.6
		C528,128.7,526.9,135.6,524.7,141.5z"/>
	<path class="st0" d="M687.8,69.4c-5.7-5.6-12.3-9.8-19.9-12.6c-7.6-2.8-15.8-4.2-24.6-4.2c-13,0-24.4,2.9-34.1,8.7
		c-9.7,5.8-17.2,13.8-22.5,24.2c-5.3,10.3-8,22.3-8,36c0,14,2.7,26.2,8,36.4c5.3,10.2,12.9,18.2,22.7,23.7
		c9.8,5.6,21.6,8.4,35.3,8.4c11,0,20.7-1.7,29.1-5.1c8.4-3.4,15.3-8.1,20.6-14.2c5.3-6.1,8.9-13.2,10.6-21.4l-34.1-2.3
		c-1.3,3.3-3.1,6.2-5.5,8.5c-2.4,2.3-5.3,4-8.7,5.2c-3.4,1.2-7.2,1.7-11.3,1.7c-6.2,0-11.5-1.3-16-3.9c-4.5-2.6-8-6.3-10.4-11.1
		c-2.5-4.8-3.7-10.5-3.7-17.1v-0.1h90.6v-10.1c0-11.3-1.6-21.2-4.8-29.7C697.9,82,693.5,75,687.8,69.4z M615.3,107.4
		c0.2-4.8,1.4-9.2,3.7-13.1c2.4-4.3,5.8-7.7,10.1-10.3c4.3-2.6,9.3-3.9,14.9-3.9c5.4,0,10.1,1.2,14.2,3.5s7.3,5.6,9.6,9.7
		c2.3,4.1,3.5,8.8,3.5,14.1H615.3z"/>
	<rect x="718.5" y="202" class="st0" width="142.3" height="31.7"/>
</g>
</svg>
